<svg xmlns="http://www.w3.org/2000/svg" xmlns:xlink="http://www.w3.org/1999/xlink" viewBox="0 0 80 80"><defs><style>.a{clip-path:url(#b);}.b{fill:none;stroke:#3cc751;stroke-width:2px;}</style><clipPath id="b"><rect width="80" height="80"/></clipPath></defs><g id="a" class="a"><path class="b" d="M33.368,27.984a9.094,9.094,0,0,1-5.273,0L8.466,21.93a7.532,7.532,0,0,0-1.172,3.809,2.691,2.691,0,0,1,1.172,1.074,3.2,3.2,0,0,1-1.172,4.3L8.857,43.121a.985.985,0,0,1-.2.635A.705.705,0,0,1,8.075,44H3.388a.705.705,0,0,1-.586-.244.985.985,0,0,1-.2-.635L4.169,31.109a3.174,3.174,0,0,1,0-5.469,10.767,10.767,0,0,1,1.27-4.687l-4.3-1.27a2.068,2.068,0,0,1-1.465-1.27,2.539,2.539,0,0,1,0-1.953,2.068,2.068,0,0,1,1.465-1.27l26.953-8.3a9.094,9.094,0,0,1,5.273,0l26.953,8.3a2.068,2.068,0,0,1,1.465,1.27,2.539,2.539,0,0,1,0,1.953,2.068,2.068,0,0,1-1.465,1.27Zm.977,3.027,14.648-4.59,1.27,8.2q0,1.66-2.637,3.125A23.8,23.8,0,0,1,40.5,40.045a53.809,53.809,0,0,1-9.766.83,53.809,53.809,0,0,1-9.766-.83,23.8,23.8,0,0,1-7.129-2.295Q11.2,36.285,11.2,34.625l1.27-8.2,14.746,4.59a12.9,12.9,0,0,0,7.031,0Z" transform="translate(9.5 16.195)"/></g></svg>