<svg xmlns="http://www.w3.org/2000/svg" xmlns:xlink="http://www.w3.org/1999/xlink" viewBox="0 0 80 80"><defs><style>.a{clip-path:url(#b);}.b{fill:none;stroke:#3cc751;stroke-width:2px;}</style><clipPath id="b"><rect width="80" height="80"/></clipPath></defs><g id="a" class="a"><path class="b" d="M58.857,22.125a4.5,4.5,0,0,1-.879,2.686,4.643,4.643,0,0,1-2.246,1.709V37.75A6.17,6.17,0,0,1,49.482,44l-.879-.781q-4-3.418-6.25-5.078a37.44,37.44,0,0,0-7.715-4.395A30.267,30.267,0,0,0,24.97,31.6,4.833,4.833,0,0,0,21.8,34.625a4.214,4.214,0,0,0,.342,4,1.1,1.1,0,0,1,.1,1.172,3.968,3.968,0,0,0,0,3.223,8.279,8.279,0,0,0,1.953,2.734,2.112,2.112,0,0,1,.732,2.1,2.232,2.232,0,0,1-1.416,1.709,10.855,10.855,0,0,1-4.736.635,9.329,9.329,0,0,1-4.443-1.123,2.184,2.184,0,0,1-.977-1.27l-.488-1.367a52.563,52.563,0,0,1-1.855-7.031,18.955,18.955,0,0,1,.488-7.91h-4.2a4.52,4.52,0,0,1-3.32-1.367,4.52,4.52,0,0,1-1.367-3.32V17.438a4.52,4.52,0,0,1,1.367-3.32,4.52,4.52,0,0,1,3.32-1.367H22.919a30.243,30.243,0,0,0,10.645-1.855,35.789,35.789,0,0,0,8.3-4.492Q44.4,4.645,48.6,1.031L49.482.25a6.04,6.04,0,0,1,4.443,1.807A6.04,6.04,0,0,1,55.732,6.5v11.23a4.643,4.643,0,0,1,2.246,1.709A4.5,4.5,0,0,1,58.857,22.125ZM49.482,35.8V8.453A50.267,50.267,0,0,1,40.2,14.8a36.792,36.792,0,0,1-12.6,3.906v6.836a36.792,36.792,0,0,1,12.6,3.906A50.268,50.268,0,0,1,49.482,35.8Z" transform="translate(9.5 16.195)"/></g></svg>