<svg xmlns="http://www.w3.org/2000/svg" xmlns:xlink="http://www.w3.org/1999/xlink" viewBox="0 0 80 80"><defs><style>.a{clip-path:url(#b);}.b{fill:none;stroke:#3cc751;stroke-width:2px;}</style><clipPath id="b"><rect width="80" height="80"/></clipPath></defs><g id="a" class="a"><path class="b" d="M36.982,24.078l2.148,4.3H49.775L32,46.539a1.822,1.822,0,0,1-1.318.586,1.525,1.525,0,0,1-1.221-.586L11.689,28.375h9.18l2.93-7.031,5.566,12.4a1.383,1.383,0,0,0,1.367.879,1.578,1.578,0,0,0,1.465-.879Zm15.039-16.6a12.336,12.336,0,0,1,3.223,5.518A13.814,13.814,0,0,1,52.7,25.25H41.083l-2.637-5.371A1.578,1.578,0,0,0,36.982,19a1.383,1.383,0,0,0-1.367.879l-4.785,9.57-5.664-12.7a1.616,1.616,0,0,0-1.514-.879,1.416,1.416,0,0,0-1.416.977l-3.516,8.4H8.759A13.814,13.814,0,0,1,6.22,12.994,12.336,12.336,0,0,1,9.443,7.477l.293-.293A12.945,12.945,0,0,1,15.5,3.815a12.29,12.29,0,0,1,6.689,0A12.931,12.931,0,0,1,28,7.184l2.734,2.832,2.734-2.832a12.931,12.931,0,0,1,5.811-3.369,12.29,12.29,0,0,1,6.689,0,12.944,12.944,0,0,1,5.762,3.369Z" transform="translate(9.5 17)"/></g></svg>