<svg xmlns="http://www.w3.org/2000/svg" xmlns:xlink="http://www.w3.org/1999/xlink" viewBox="0 0 80 80"><defs><style>.a{clip-path:url(#b);}.b{fill:none;stroke:#3cc751;stroke-width:2px;}</style><clipPath id="b"><rect width="80" height="80"/></clipPath></defs><g id="a" class="a"><path class="b" d="M53.755,1.187A33.8,33.8,0,0,1,55.816,7.7a33.374,33.374,0,0,1,.749,6.979,34.222,34.222,0,0,1-3.185,14.8,28.037,28.037,0,0,1-8.806,10.867,25.181,25.181,0,0,1-13.115,4.778,17.168,17.168,0,0,1-9.836-1.78,17.634,17.634,0,0,1-6.464-5.433,25.647,25.647,0,0,0-5.152,5.621,14.1,14.1,0,0,0-1.593,2.764A3,3,0,0,1,6.774,47.98a2.8,2.8,0,0,1-2.3.047,3.013,3.013,0,0,1-1.639-1.639,2.8,2.8,0,0,1-.047-2.3A27.681,27.681,0,0,1,7.851,36.5a35.249,35.249,0,0,1,11.523-8.338,44.908,44.908,0,0,1,19.2-3.935,1.5,1.5,0,1,0,0-3q-15.832,0-26.793,7.869l-.094-.187Q11.6,27.792,11.6,27.23a17.361,17.361,0,0,1,2.436-8.993,18.331,18.331,0,0,1,6.558-6.558,17.361,17.361,0,0,1,8.993-2.436H37.08a15.559,15.559,0,0,0,8.1-2.2A16.725,16.725,0,0,0,51.132,1,1.507,1.507,0,0,1,52.49.25,1.3,1.3,0,0,1,53.755,1.187Z" transform="translate(10.931 16.25)"/></g></svg>