<svg xmlns="http://www.w3.org/2000/svg" xmlns:xlink="http://www.w3.org/1999/xlink" viewBox="0 0 80 80"><defs><style>.a{clip-path:url(#b);}.b{fill:none;stroke:#3cc751;stroke-width:2px;}</style><clipPath id="b"><rect width="80" height="80"/></clipPath></defs><g id="a" class="a"><path class="b" d="M33.582,28.2a.833.833,0,0,1,.775.775v1.55a.833.833,0,0,1-.775.775h-6.2a.833.833,0,0,1-.775-.775v-1.55a.833.833,0,0,1,.775-.775h1.55V22.872a.726.726,0,0,1-.63.1,1.205,1.205,0,0,1-.533-.291l-.775-1.356a.592.592,0,0,1-.145-.533.742.742,0,0,1,.339-.533l1.453-.969A2.226,2.226,0,0,1,29.9,18.9h1.356a.833.833,0,0,1,.775.775V28.2Zm24.8-21.7a3.143,3.143,0,0,1,3.1,3.1v31a3.143,3.143,0,0,1-3.1,3.1H2.582A2.979,2.979,0,0,1,.4,42.78a2.979,2.979,0,0,1-.92-2.18V9.6A2.979,2.979,0,0,1,.4,7.42a2.979,2.979,0,0,1,2.18-.92ZM4.132,39.05h6.2A5.991,5.991,0,0,0,8.54,34.642,5.991,5.991,0,0,0,4.132,32.85Zm0-21.7A5.991,5.991,0,0,0,8.54,15.558a5.991,5.991,0,0,0,1.792-4.408h-6.2Zm26.35,18.6a8.085,8.085,0,0,0,4.65-1.453,10.228,10.228,0,0,0,3.391-3.972,12.314,12.314,0,0,0,0-10.85A10.228,10.228,0,0,0,35.132,15.7a8.167,8.167,0,0,0-9.3,0,10.228,10.228,0,0,0-3.391,3.972,12.314,12.314,0,0,0,0,10.85A10.228,10.228,0,0,0,25.832,34.5,8.085,8.085,0,0,0,30.482,35.95Zm26.35,3.1v-6.2a6.121,6.121,0,0,0-6.2,6.2Zm0-21.7v-6.2h-6.2a6.121,6.121,0,0,0,6.2,6.2Z" transform="translate(10 15.195)"/></g></svg>