<svg xmlns="http://www.w3.org/2000/svg" xmlns:xlink="http://www.w3.org/1999/xlink" viewBox="0 0 210 88"><defs><style>.a{clip-path:url(#b);}.b,.c,.d{fill:none;stroke-width:2px;}.b{stroke:#3cc751;}.c{stroke:#36b389;}.d{stroke:#0d806c;}</style><clipPath id="b"><rect width="210" height="88"/></clipPath></defs><g id="a" class="a"><g transform="translate(-4499.783 -3377)"><path class="b" d="M24.533,11.25a10.849,10.849,0,0,1,3.281-7.969A10.849,10.849,0,0,1,35.783,0a10.849,10.849,0,0,1,7.969,3.281,10.849,10.849,0,0,1,3.281,7.969,10.849,10.849,0,0,1-3.281,7.969A10.849,10.849,0,0,1,35.783,22.5a10.849,10.849,0,0,1-7.969-3.281A10.849,10.849,0,0,1,24.533,11.25Zm39.844.156a5.3,5.3,0,0,1,0,7.187L49.533,33.281V75a5.07,5.07,0,0,1-5,5h-2.5a5.07,5.07,0,0,1-5-5V57.5h-2.5V75a5.07,5.07,0,0,1-5,5h-2.5a5.07,5.07,0,0,1-5-5V33.281L7.189,18.594A5.215,5.215,0,0,1,5.783,15a4.805,4.805,0,0,1,1.484-3.516A4.805,4.805,0,0,1,10.783,10a5.215,5.215,0,0,1,3.594,1.406L27.814,25H43.752L57.189,11.406a5.3,5.3,0,0,1,7.187,0Z" transform="translate(4497 3381)"/><path class="c" d="M24.533,11.25a10.849,10.849,0,0,1,3.281-7.969A10.849,10.849,0,0,1,35.783,0a10.849,10.849,0,0,1,7.969,3.281,10.849,10.849,0,0,1,3.281,7.969,10.849,10.849,0,0,1-3.281,7.969A10.849,10.849,0,0,1,35.783,22.5a10.849,10.849,0,0,1-7.969-3.281A10.849,10.849,0,0,1,24.533,11.25Zm39.844.156a5.3,5.3,0,0,1,0,7.187L49.533,33.281V75a5.07,5.07,0,0,1-5,5h-2.5a5.07,5.07,0,0,1-5-5V57.5h-2.5V75a5.07,5.07,0,0,1-5,5h-2.5a5.07,5.07,0,0,1-5-5V33.281L7.189,18.594A5.215,5.215,0,0,1,5.783,15a4.805,4.805,0,0,1,1.484-3.516A4.805,4.805,0,0,1,10.783,10a5.215,5.215,0,0,1,3.594,1.406L27.814,25H43.752L57.189,11.406a5.3,5.3,0,0,1,7.187,0Z" transform="translate(4545.145 3381)"/><path class="d" d="M24.533,11.25a10.849,10.849,0,0,1,3.281-7.969A10.849,10.849,0,0,1,35.783,0a10.849,10.849,0,0,1,7.969,3.281,10.849,10.849,0,0,1,3.281,7.969,10.849,10.849,0,0,1-3.281,7.969A10.849,10.849,0,0,1,35.783,22.5a10.849,10.849,0,0,1-7.969-3.281A10.849,10.849,0,0,1,24.533,11.25Zm39.844.156a5.3,5.3,0,0,1,0,7.187L49.533,33.281V75a5.07,5.07,0,0,1-5,5h-2.5a5.07,5.07,0,0,1-5-5V57.5h-2.5V75a5.07,5.07,0,0,1-5,5h-2.5a5.07,5.07,0,0,1-5-5V33.281L7.189,18.594A5.215,5.215,0,0,1,5.783,15a4.805,4.805,0,0,1,1.484-3.516A4.805,4.805,0,0,1,10.783,10a5.215,5.215,0,0,1,3.594,1.406L27.814,25H43.752L57.189,11.406a5.3,5.3,0,0,1,7.187,0Z" transform="translate(4593.289 3381)"/><path class="b" d="M24.533,11.25a10.849,10.849,0,0,1,3.281-7.969A10.849,10.849,0,0,1,35.783,0a10.849,10.849,0,0,1,7.969,3.281,10.849,10.849,0,0,1,3.281,7.969,10.849,10.849,0,0,1-3.281,7.969A10.849,10.849,0,0,1,35.783,22.5a10.849,10.849,0,0,1-7.969-3.281A10.849,10.849,0,0,1,24.533,11.25Zm39.844.156a5.3,5.3,0,0,1,0,7.187L49.533,33.281V75a5.07,5.07,0,0,1-5,5h-2.5a5.07,5.07,0,0,1-5-5V57.5h-2.5V75a5.07,5.07,0,0,1-5,5h-2.5a5.07,5.07,0,0,1-5-5V33.281L7.189,18.594A5.215,5.215,0,0,1,5.783,15a4.805,4.805,0,0,1,1.484-3.516A4.805,4.805,0,0,1,10.783,10a5.215,5.215,0,0,1,3.594,1.406L27.814,25H43.752L57.189,11.406a5.3,5.3,0,0,1,7.187,0Z" transform="translate(4641.434 3381)"/></g></g></svg>