<svg xmlns="http://www.w3.org/2000/svg" xmlns:xlink="http://www.w3.org/1999/xlink" viewBox="0 0 80 80"><defs><style>.a{clip-path:url(#b);}.b{fill:none;stroke:#3cc751;stroke-width:2px;}</style><clipPath id="b"><rect width="80" height="80"/></clipPath></defs><g id="a" class="a"><path class="b" d="M8.782,21.975a5.958,5.958,0,0,1-4.359-1.841,6.083,6.083,0,0,1,0-8.719A5.958,5.958,0,0,1,8.782,9.575a5.958,5.958,0,0,1,4.359,1.841,6.083,6.083,0,0,1,0,8.719A5.958,5.958,0,0,1,8.782,21.975Zm43.4,0a5.958,5.958,0,0,1-4.359-1.841,6.083,6.083,0,0,1,0-8.719,6.083,6.083,0,0,1,8.719,0,6.083,6.083,0,0,1,0,8.719A5.958,5.958,0,0,1,52.182,21.975Zm3.1,3.1a6.286,6.286,0,0,1,6.2,6.2v3.1a3.143,3.143,0,0,1-3.1,3.1H51.988a14.351,14.351,0,0,0-2.422-6.2,13.6,13.6,0,0,0-4.844-4.359,5.958,5.958,0,0,1,4.359-1.841Zm-24.8,0a10.849,10.849,0,0,1-10.85-10.85,10.851,10.851,0,0,1,16.275-9.4,10.849,10.849,0,0,1,5.425,9.4,10.849,10.849,0,0,1-10.85,10.85Zm7.459,3.1a10.841,10.841,0,0,1,5.57,1.5,11.173,11.173,0,0,1,4.069,4.069,10.841,10.841,0,0,1,1.5,5.57v2.809a4.631,4.631,0,0,1-4.65,4.65h-27.9a4.631,4.631,0,0,1-4.65-4.65V39.316a10.841,10.841,0,0,1,1.5-5.57,11.173,11.173,0,0,1,4.069-4.069,10.841,10.841,0,0,1,5.57-1.5H23.8a15.188,15.188,0,0,0,13.369,0Zm-21.7-1.259A13.6,13.6,0,0,0,11.4,31.275a14.351,14.351,0,0,0-2.422,6.2H2.582a2.979,2.979,0,0,1-2.18-.92,2.979,2.979,0,0,1-.92-2.18v-3.1a5.958,5.958,0,0,1,1.841-4.359,5.958,5.958,0,0,1,4.359-1.841h6.2A5.958,5.958,0,0,1,16.241,26.916Z" transform="translate(10.018 15.125)"/></g></svg>