<?xml version="1.0" standalone="no"?>
<!DOCTYPE svg PUBLIC "-//W3C//DTD SVG 20010904//EN"
 "http://www.w3.org/TR/2001/REC-SVG-20010904/DTD/svg10.dtd">
<svg version="1.0" xmlns="http://www.w3.org/2000/svg"
 width="260.000000pt" height="260.000000pt" viewBox="0 0 260.000000 260.000000"
 preserveAspectRatio="xMidYMid meet">
<metadata>
Created by potrace 1.11, written by Peter Selinger 2001-2013
</metadata>
<g transform="translate(0.000000,260.000000) scale(0.100000,-0.100000)"
fill="#000000" stroke="none">
<path d="M1075 2580 c-415 -75 -759 -332 -940 -705 -96 -196 -127 -325 -131
-535 -4 -228 34 -407 126 -597 46 -93 119 -210 162 -257 21 -23 21 -22 8 23
-20 69 -25 119 -24 251 0 109 4 150 22 213 45 159 136 294 259 384 86 64 107
74 338 167 267 108 426 199 534 307 79 79 131 175 131 242 0 29 6 23 50 -57
93 -166 174 -368 206 -517 37 -174 46 -253 45 -404 0 -134 -4 -164 -31 -281
-84 -361 -337 -674 -619 -766 -39 -12 -71 -26 -71 -30 0 -13 181 -15 302 -4
102 9 262 50 366 95 413 177 709 558 776 1001 27 176 5 426 -54 600 -147 438
-517 769 -964 861 -140 29 -356 33 -491 9z"/>
<path d="M1125 967 c-254 -137 -565 -522 -565 -701 0 -29 6 -37 51 -65 28 -17
51 -31 53 -31 1 0 0 26 -2 58 -12 167 96 372 307 582 59 58 132 123 164 143
31 21 57 40 57 43 0 6 0 6 -65 -29z"/>
</g>
</svg>
