<?xml version="1.0" standalone="no"?>
<!DOCTYPE svg PUBLIC "-//W3C//DTD SVG 20010904//EN"
 "http://www.w3.org/TR/2001/REC-SVG-20010904/DTD/svg10.dtd">
<svg version="1.0" xmlns="http://www.w3.org/2000/svg"
 width="700.000000pt" height="700.000000pt" viewBox="0 0 700.000000 700.000000"
 preserveAspectRatio="xMidYMid meet">
<metadata>
Created by potrace 1.11, written by Peter Selinger 2001-2013
</metadata>
<g transform="translate(0.000000,700.000000) scale(0.100000,-0.100000)"
fill="#000000" stroke="none">
<path d="M3297 6994 c-1 -1 -40 -4 -87 -7 -104 -7 -218 -22 -325 -42 -44 -9
-93 -18 -110 -21 -129 -24 -377 -98 -562 -170 -218 -84 -522 -245 -695 -369
-31 -22 -66 -47 -78 -55 -44 -30 -186 -145 -265 -214 -142 -125 -299 -292
-421 -446 -32 -41 -61 -77 -64 -80 -11 -10 -147 -216 -192 -290 -60 -100 -147
-267 -188 -360 -18 -41 -40 -93 -50 -115 -45 -101 -149 -424 -165 -513 -3 -15
-7 -37 -10 -49 -12 -54 -15 -71 -26 -128 -5 -33 -12 -71 -15 -85 -3 -14 -7
-45 -10 -70 -3 -25 -7 -56 -10 -70 -12 -71 -19 -228 -19 -425 1 -257 12 -384
51 -605 162 -900 671 -1702 1419 -2235 73 -53 80 -57 227 -146 446 -271 972
-441 1508 -487 113 -9 471 -9 590 1 814 69 1598 433 2175 1013 301 301 560
678 719 1044 16 36 35 79 42 95 84 184 205 632 229 845 3 30 8 66 10 80 10 54
15 125 20 265 l6 146 -143 -6 c-79 -3 -159 -8 -178 -10 -326 -32 -624 -102
-930 -216 -254 -96 -500 -225 -750 -396 -44 -30 -234 -176 -270 -208 -183
-160 -358 -342 -480 -500 -30 -38 -57 -72 -60 -75 -3 -3 -49 -70 -102 -150
-112 -172 -182 -292 -238 -415 -22 -49 -47 -101 -54 -115 -45 -84 -150 -395
-191 -565 -41 -172 -44 -187 -51 -235 -3 -25 -8 -54 -10 -65 -2 -11 -7 -40
-10 -65 -3 -25 -7 -56 -10 -70 -5 -32 -17 -176 -17 -212 0 -16 -4 -28 -7 -28
-4 0 -8 31 -9 68 -1 38 -3 79 -6 93 -2 13 -9 67 -15 119 -45 373 -179 803
-356 1148 -62 120 -165 295 -176 300 -4 2 -8 8 -8 13 0 22 -209 297 -322 424
-104 117 -255 260 -412 392 -150 126 -437 308 -651 412 -340 167 -698 277
-1064 327 -25 3 -57 8 -71 10 -35 5 -188 17 -232 18 -44 1 -40 10 5 12 66 3
203 14 227 18 14 2 46 7 71 10 25 4 57 9 70 11 13 2 42 7 64 10 22 4 45 8 50
9 6 2 28 6 50 10 558 107 1160 409 1604 806 395 352 668 728 897 1235 92 205
202 583 238 825 3 19 7 44 10 55 11 59 22 182 31 361 l7 142 -101 -1 c-56 -1
-103 -2 -104 -3z m-3187 -3494 c0 -5 -2 -10 -4 -10 -3 0 -8 5 -11 10 -3 6 -1
10 4 10 6 0 11 -4 11 -10z"/>
<path d="M6787 6994 c-1 -1 -38 -4 -82 -8 -84 -6 -223 -22 -265 -31 -14 -2
-41 -7 -60 -10 -19 -3 -84 -17 -145 -31 -60 -14 -119 -27 -130 -30 -42 -8
-274 -84 -360 -117 -733 -282 -1340 -793 -1750 -1473 -245 -405 -425 -940
-470 -1389 -3 -33 -8 -71 -10 -84 -3 -14 -7 -92 -11 -174 l-6 -149 140 6 c145
6 182 10 317 27 125 16 144 19 244 41 51 11 102 21 112 23 52 10 220 60 326
96 295 102 538 222 798 394 251 167 445 332 645 551 208 227 380 472 525 748
126 240 242 554 300 806 37 164 62 320 81 495 2 17 6 94 9 171 l6 142 -106 -1
c-58 -1 -107 -2 -108 -3z"/>
</g>
</svg>
