<?xml version="1.0" standalone="no"?>
<!DOCTYPE svg PUBLIC "-//W3C//DTD SVG 20010904//EN"
 "http://www.w3.org/TR/2001/REC-SVG-20010904/DTD/svg10.dtd">
<svg version="1.0" xmlns="http://www.w3.org/2000/svg"
 width="700.000000pt" height="700.000000pt" viewBox="0 0 700.000000 700.000000"
 preserveAspectRatio="xMidYMid meet">
<metadata>
Created by potrace 1.11, written by Peter Selinger 2001-2013
</metadata>
<g transform="translate(0.000000,700.000000) scale(0.100000,-0.100000)"
fill="#000000" stroke="none">
<path d="M6777 6994 c-1 -1 -38 -4 -82 -8 -200 -14 -372 -46 -666 -120 -205
-52 -511 -181 -759 -319 -487 -271 -944 -710 -1241 -1192 -86 -139 -219 -388
-219 -409 0 -3 -11 -29 -25 -58 -45 -98 -137 -353 -149 -414 -2 -10 -15 -62
-29 -114 -30 -113 -68 -319 -82 -440 -3 -30 -8 -68 -10 -85 -2 -16 -7 -97 -10
-179 l-7 -148 144 6 c78 3 154 8 168 10 14 2 57 7 95 11 258 25 660 127 890
225 28 12 68 29 90 38 76 32 279 133 349 174 63 37 285 180 311 200 6 5 28 22
50 39 483 371 850 834 1090 1374 93 209 187 500 219 679 3 14 7 29 9 33 3 5 8
32 11 62 4 29 8 56 10 60 2 3 7 31 11 61 9 71 14 111 20 158 7 51 16 202 18
290 l2 72 -103 -2 c-57 -2 -104 -4 -105 -4z"/>
<path d="M3427 6984 c-1 -1 -58 -4 -127 -8 -69 -4 -138 -8 -155 -11 -16 -2
-57 -6 -90 -10 -33 -3 -67 -8 -75 -10 -8 -2 -35 -7 -60 -10 -53 -8 -262 -52
-305 -65 -16 -5 -77 -23 -135 -40 -1034 -311 -1886 -1113 -2259 -2128 -34 -93
-91 -273 -105 -332 -2 -8 -11 -42 -19 -75 -8 -33 -18 -76 -21 -95 -3 -19 -8
-46 -11 -60 -40 -200 -59 -384 -60 -570 0 -114 11 -337 20 -415 15 -122 23
-183 30 -215 2 -14 7 -36 10 -50 2 -14 7 -41 10 -60 3 -19 12 -62 21 -95 8
-33 16 -69 18 -80 31 -149 139 -446 240 -659 219 -464 596 -932 994 -1235 26
-20 53 -41 59 -48 30 -28 307 -206 403 -259 89 -49 224 -115 345 -169 131 -58
420 -149 595 -186 128 -27 119 -26 173 -33 27 -4 59 -9 70 -12 12 -2 46 -7 76
-10 30 -3 63 -7 73 -9 17 -4 211 -15 308 -19 19 0 40 -5 47 -9 12 -7 247 -2
323 8 19 2 62 7 94 10 50 5 245 39 351 60 138 28 413 116 588 189 168 70 382
183 552 291 70 45 235 163 250 179 6 6 28 24 49 40 93 70 317 283 404 386 26
30 63 72 83 95 140 159 326 447 451 700 137 277 260 654 304 930 4 28 8 52 9
55 1 5 14 97 21 155 11 93 17 193 18 290 l1 110 -70 -1 c-81 -1 -273 -13 -301
-18 -10 -2 -44 -7 -75 -10 -31 -4 -67 -9 -80 -11 -13 -3 -41 -7 -64 -11 -33
-4 -214 -43 -275 -58 -424 -106 -875 -323 -1235 -595 -163 -123 -394 -338
-523 -485 -424 -486 -706 -1077 -818 -1711 -7 -44 -16 -100 -19 -125 -3 -25
-9 -63 -12 -85 -3 -22 -9 -78 -13 -125 -4 -47 -8 -69 -10 -50 -1 19 -3 46 -4
60 -2 14 -6 59 -10 99 -4 41 -9 77 -10 80 -2 4 -7 35 -10 71 -4 36 -13 93 -21
128 -8 34 -17 77 -20 95 -8 48 -51 209 -87 322 -111 360 -312 749 -548 1060
-122 161 -173 220 -319 365 -215 213 -388 348 -661 513 -349 211 -695 349
-1080 431 -131 28 -162 33 -243 42 -31 4 -57 10 -57 14 0 4 27 10 59 14 48 6
203 33 281 51 427 94 899 308 1270 573 521 374 922 876 1173 1467 122 287 220
635 252 895 4 30 9 66 11 80 9 67 18 206 18 300 l1 105 -33 0 c-19 0 -34 -1
-35 -1z"/>
</g>
</svg>
