<svg xmlns="http://www.w3.org/2000/svg" xmlns:xlink="http://www.w3.org/1999/xlink" viewBox="0 0 120 70"><defs><style>.a{clip-path:url(#b);}.b{fill:#a6a49d;}</style><clipPath id="b"><rect width="120" height="70"/></clipPath></defs><g id="a" class="a"><g transform="translate(0 18)"><g transform="translate(0)"><path class="b" d="M28.177,32.138a24.279,24.279,0,0,1-12.651,3.834,9.106,9.106,0,0,1-.128-2.236c.064-1.406.831-1.022,1.406-2.172a9.626,9.626,0,0,0,.7-1.661c0-.064-.383-6.837-.447-9.712-.064-1.533-.319-4.153-.7-6.709-.192-1.47-.639-2.683-.894-4.089-.319-2.045-.639-4.345-.639-4.345a38.293,38.293,0,0,0-.958,5.878c-.192,1.342-.319,2.747-.511,4.025C13.034,17.7,12.14,25.11,12.012,25.493c-.192.639-.192-.192-.192-.192s.511-7.731.639-11.181c.064-1.661.192-3.514.383-5.239a27.807,27.807,0,0,1,.639-3.706,14.026,14.026,0,0,1,1.15-2.747c.256-.064,1.278,1.661,1.661,3.259.767,3.514,1.278,3.961,1.853,7.667.575,3.514,1.086,6.453,1.15,6.9a42.333,42.333,0,0,1-.319,9.328,1.921,1.921,0,0,1-.511,1.214,4.7,4.7,0,0,0-1.533,2.683c0,.7-.128.7.064,1.086,0,0,1.214,1.789,8.05-2.3a4.3,4.3,0,0,0,2.108-3.578V3.77s-6.773-2.3-12.012-2.3S3.386,3.77,3.386,3.77V28.624c0,1.533.192,4.409,2.428,5.367,0,0-5.814-1.981-5.814-5.431V1.661A102.8,102.8,0,0,1,15.143,0,106.966,106.966,0,0,1,30.477,1.661V28.624A4.412,4.412,0,0,1,28.177,32.138Z" transform="translate(0)"/></g><g transform="translate(106.701 1.661)"><path class="b" d="M172.878,12.248a5.558,5.558,0,0,1-2.492.511,3.273,3.273,0,0,1-2.492-.958A3.881,3.881,0,0,1,167,9.117a4.174,4.174,0,0,1,.894-2.747,2.9,2.9,0,0,1,2.236-.958,5.067,5.067,0,0,1,1.086.128V2.6h1.6v9.648Zm-1.6-.7V6.37a2.4,2.4,0,0,0-.7-.064c-1.278,0-1.917.894-1.917,2.747,0,1.789.575,2.683,1.789,2.683A1.45,1.45,0,0,0,171.281,11.545Z" transform="translate(-167 -2.6)"/><path class="b" d="M184.442,10.542l-4.409.639c.128,1.342.767,1.981,1.981,1.981a3.89,3.89,0,0,0,1.789-.383l.383,1.022a5.177,5.177,0,0,1-2.364.511,3.129,3.129,0,0,1-2.428-.958,4.056,4.056,0,0,1-.895-2.747,4.149,4.149,0,0,1,.831-2.747,2.809,2.809,0,0,1,2.236-.958,2.6,2.6,0,0,1,2.172.958A3.653,3.653,0,0,1,184.442,10.542Zm-1.47-.639c0-1.342-.447-2.045-1.406-2.045a1.29,1.29,0,0,0-1.15.575,2.873,2.873,0,0,0-.383,1.917Z" transform="translate(-171.152 -4.153)"/></g><g transform="translate(35.78 15.079)"><path class="b" d="M58.556,39.381H56V23.6h2.556Z" transform="translate(-56 -23.6)"/><path class="b" d="M73.128,36.214a6.812,6.812,0,0,1-1.15,4.153,4.547,4.547,0,0,1-7.028,0,6.812,6.812,0,0,1-1.15-4.153,6.812,6.812,0,0,1,1.15-4.153,4.547,4.547,0,0,1,7.028,0A6.684,6.684,0,0,1,73.128,36.214Zm-2.556-.064c0-2.811-.7-4.217-2.172-4.217-1.406,0-2.172,1.406-2.172,4.217,0,2.747.7,4.089,2.172,4.089C69.87,40.3,70.573,38.9,70.573,36.15Z" transform="translate(-58.816 -26.055)"/><path class="b" d="M87.992,38.578a3.3,3.3,0,0,1-1.086,2.428,4.381,4.381,0,0,1-2.875,1.022A5.32,5.32,0,0,1,80.9,41.2l.639-1.6a3.312,3.312,0,0,0,2.108.639,1.74,1.74,0,0,0,1.278-.447,1.6,1.6,0,0,0,.511-1.15,1.5,1.5,0,0,0-.383-1.086,4.45,4.45,0,0,0-1.278-.767c-1.725-.639-2.556-1.725-2.556-3.131a2.97,2.97,0,0,1,1.022-2.3A3.522,3.522,0,0,1,84.8,30.4a5.444,5.444,0,0,1,2.939.767l-.639,1.47A2.568,2.568,0,0,0,85.309,32a1.367,1.367,0,0,0-1.15.447,1.508,1.508,0,0,0-.447,1.022c0,.767.575,1.342,1.661,1.789C87.1,35.959,87.992,37.109,87.992,38.578Z" transform="translate(-64.991 -26.055)"/><path class="b" d="M114.034,39.49h-3l-1.214-4.025h-4.984l-1.278,4.025H101l5.175-15.59h2.747ZM109.5,33.8l-1.6-5.495a6.307,6.307,0,0,1-.383-1.917h-.128a17.546,17.546,0,0,1-.447,1.917L105.281,33.8Z" transform="translate(-72.248 -23.708)"/><path class="b" d="M132.781,41.8h-2.556V33.814c0-1.278-.7-1.853-2.045-1.853a4.878,4.878,0,0,0-1.725.319V41.8H123.9V31.131a10.842,10.842,0,0,1,4.409-.831,5.024,5.024,0,0,1,3.514,1.022,3.129,3.129,0,0,1,.958,2.428Z" transform="translate(-80.517 -26.019)"/><path class="b" d="M150.637,38.743a8.4,8.4,0,0,1-3.9.831,4.821,4.821,0,0,1-3.834-1.533,6.209,6.209,0,0,1-1.406-4.217,6.351,6.351,0,0,1,1.406-4.345,4.459,4.459,0,0,1,3.578-1.533,6.249,6.249,0,0,1,1.661.192V23.6H150.7V38.743Zm-2.556-1.086v-8.05a3.173,3.173,0,0,0-1.15-.128c-1.981,0-2.939,1.406-2.939,4.281,0,2.811.894,4.217,2.747,4.217A2.915,2.915,0,0,0,148.081,37.656Z" transform="translate(-86.872 -23.6)"/><path class="b" d="M168.692,36.014l-6.9,1.022c.192,2.108,1.214,3.131,3.067,3.131a5.544,5.544,0,0,0,2.811-.639l.575,1.6a7.789,7.789,0,0,1-3.706.767,5.005,5.005,0,0,1-3.834-1.533,6.136,6.136,0,0,1-1.406-4.345,6.578,6.578,0,0,1,1.278-4.281,4.328,4.328,0,0,1,3.514-1.533,4.257,4.257,0,0,1,3.45,1.47A6.876,6.876,0,0,1,168.692,36.014Zm-2.428-.958c0-2.108-.767-3.195-2.236-3.195a1.984,1.984,0,0,0-1.789.958,4.908,4.908,0,0,0-.639,2.939Z" transform="translate(-93.299 -25.983)"/><path class="b" d="M183.692,38.578a3.3,3.3,0,0,1-1.086,2.428,4.381,4.381,0,0,1-2.875,1.022A5.32,5.32,0,0,1,176.6,41.2l.639-1.6a3.311,3.311,0,0,0,2.108.639,1.74,1.74,0,0,0,1.278-.447,1.6,1.6,0,0,0,.511-1.15,1.5,1.5,0,0,0-.383-1.086,4.451,4.451,0,0,0-1.278-.767c-1.725-.639-2.556-1.725-2.556-3.131a2.97,2.97,0,0,1,1.022-2.3A3.522,3.522,0,0,1,180.5,30.4a5.444,5.444,0,0,1,2.939.767l-.639,1.47A2.568,2.568,0,0,0,181.009,32a1.367,1.367,0,0,0-1.15.447,1.508,1.508,0,0,0-.447,1.022c0,.767.575,1.342,1.661,1.789C182.8,35.959,183.692,37.109,183.692,38.578Z" transform="translate(-99.546 -26.055)"/></g><g transform="translate(43.575 1.661)"><path class="b" d="M73.823,14.184h-1.6V9.072c0-.831-.447-1.214-1.278-1.214a3.618,3.618,0,0,0-1.15.192v6.07H68.2V7.411A7.131,7.131,0,0,1,71.011,6.9a3.226,3.226,0,0,1,2.236.639,1.894,1.894,0,0,1,.639,1.533v5.111Z" transform="translate(-68.2 -4.153)"/><path class="b" d="M81.489,3.431a.78.78,0,0,1-.256.575,1.135,1.135,0,0,1-.639.256.82.82,0,0,1-.639-.256.623.623,0,0,1-.256-.575.78.78,0,0,1,.256-.575,1.135,1.135,0,0,1,.639-.256.82.82,0,0,1,.639.256A.81.81,0,0,1,81.489,3.431Zm-.128,9.2h-1.6V5.475h1.6Z" transform="translate(-72.352 -2.6)"/><path class="b" d="M90.4,7.1l-2.3,7.156H86.564L84.2,7.1h1.725L87.2,11.764a6.344,6.344,0,0,1,.192.958h0q.1-.383.192-.958L88.864,7.1Z" transform="translate(-73.977 -4.225)"/><path class="b" d="M101.242,10.542l-4.409.639c.128,1.342.767,1.981,1.981,1.981a3.89,3.89,0,0,0,1.789-.383l.383,1.022a5.177,5.177,0,0,1-2.364.511,3.129,3.129,0,0,1-2.428-.958,4.056,4.056,0,0,1-.895-2.747,4.149,4.149,0,0,1,.831-2.747A2.809,2.809,0,0,1,98.367,6.9a2.6,2.6,0,0,1,2.172.958A4.077,4.077,0,0,1,101.242,10.542ZM99.709,9.9c0-1.342-.447-2.045-1.406-2.045a1.29,1.29,0,0,0-1.15.575,2.873,2.873,0,0,0-.383,1.917Z" transform="translate(-77.985 -4.153)"/><path class="b" d="M110.35,6.893l-.319,1.214a3.207,3.207,0,0,0-.767-.128,1.363,1.363,0,0,0-.767.192v6.07h-1.6V7.4A7.256,7.256,0,0,1,110.35,6.893Z" transform="translate(-82.174 -4.146)"/><path class="b" d="M117.836,12.211a2.041,2.041,0,0,1-.7,1.533,2.521,2.521,0,0,1-1.853.639,3.633,3.633,0,0,1-1.981-.511l.447-1.022a2.109,2.109,0,0,0,1.342.447,1.346,1.346,0,0,0,.831-.319,1.026,1.026,0,0,0,.319-.7.873.873,0,0,0-.256-.7,2.02,2.02,0,0,0-.831-.447c-1.086-.447-1.661-1.086-1.661-1.981a1.85,1.85,0,0,1,.639-1.47,2.389,2.389,0,0,1,1.661-.575,3.493,3.493,0,0,1,1.853.511l-.383.958a1.784,1.784,0,0,0-1.15-.383,1.018,1.018,0,0,0-.767.256.873.873,0,0,0-.256.7c0,.447.383.831,1.086,1.15A1.911,1.911,0,0,1,117.836,12.211Z" transform="translate(-84.484 -4.225)"/><path class="b" d="M124.389,3.431a.78.78,0,0,1-.256.575,1.135,1.135,0,0,1-.639.256.82.82,0,0,1-.639-.256.623.623,0,0,1-.256-.575.78.78,0,0,1,.256-.575,1.135,1.135,0,0,1,.639-.256.82.82,0,0,1,.639.256A.81.81,0,0,1,124.389,3.431Zm-.128,9.2h-1.6V5.475h1.6Z" transform="translate(-87.842 -2.6)"/><path class="b" d="M133.478,12.284a5.558,5.558,0,0,1-2.492.511,3.273,3.273,0,0,1-2.492-.958,3.881,3.881,0,0,1-.895-2.683,4.174,4.174,0,0,1,.895-2.747,2.9,2.9,0,0,1,2.236-.958,5.067,5.067,0,0,1,1.086.128V2.7h1.6v9.584Zm-1.661-.639V6.47a2.4,2.4,0,0,0-.7-.064c-1.278,0-1.917.894-1.917,2.747,0,1.789.575,2.683,1.789,2.683A4.024,4.024,0,0,0,131.817,11.645Z" transform="translate(-89.648 -2.636)"/><path class="b" d="M144.459,13.728a5.958,5.958,0,0,1-2.62.511c-1.981,0-2.939-.7-2.939-2.172a2.086,2.086,0,0,1,1.214-1.981,8.1,8.1,0,0,1,2.811-.7V9c0-.767-.447-1.214-1.406-1.214a3.712,3.712,0,0,0-1.789.447l-.383-.958a5.494,5.494,0,0,1,2.492-.575c1.789,0,2.62.831,2.62,2.492v4.536Zm-1.533-.575V10.214a4.287,4.287,0,0,0-1.789.511,1.4,1.4,0,0,0-.639,1.342q0,1.342,1.533,1.342A3.663,3.663,0,0,0,142.925,13.153Z" transform="translate(-93.728 -4.08)"/><path class="b" d="M155.778,12.284a5.558,5.558,0,0,1-2.492.511,3.273,3.273,0,0,1-2.492-.958,3.881,3.881,0,0,1-.895-2.683,4.174,4.174,0,0,1,.895-2.747,2.9,2.9,0,0,1,2.236-.958,5.067,5.067,0,0,1,1.086.128V2.7h1.6v9.584Zm-1.661-.639V6.47a2.4,2.4,0,0,0-.7-.064c-1.278,0-1.917.894-1.917,2.747,0,1.789.575,2.683,1.789,2.683A4.024,4.024,0,0,0,154.117,11.645Z" transform="translate(-97.7 -2.636)"/></g><path class="b" d="M55.9,2.7h1.725v7.731a1.167,1.167,0,0,0,1.342,1.278,3.72,3.72,0,0,0,1.214-.192V2.7h1.725v9.52a6.8,6.8,0,0,1-3,.575,3.479,3.479,0,0,1-2.364-.7,2.028,2.028,0,0,1-.639-1.6Z" transform="translate(-20.184 -0.975)"/></g></g></svg>