<svg xmlns="http://www.w3.org/2000/svg" xmlns:xlink="http://www.w3.org/1999/xlink" viewBox="0 0 120 70"><defs><style>.a{clip-path:url(#b);}.b{fill:#a6a49d;}.c{fill:#faf9f2;}.d{fill:#3d7dda;}.e{fill:#fff;}.f{fill:#f2f0e7;}</style><clipPath id="b"><rect width="120" height="70"/></clipPath></defs><g id="a" class="a"><g transform="translate(0 1)"><g transform="translate(56.813 24.098)"><path class="b" d="M82.371,36.972V35.36c0-.28-.07-.35-.35-.42h-.28c-.07,0-.14,0-.14-.07s.07-.07.14-.07h2.242a1.845,1.845,0,0,1,1.4.42,1.381,1.381,0,0,1,.35.911,1.747,1.747,0,0,1-1.891,1.821H83.7c-.07,0-.07,0-.07-.07s.07-.07.21-.07a1.235,1.235,0,0,0,1.051-1.261,1.343,1.343,0,0,0-.42-1.121.962.962,0,0,0-.771-.28h-.28c-.07,0-.07.07-.07.14v3.082a9.473,9.473,0,0,0,.07,1.611.384.384,0,0,0,.28.42h.42c.07,0,.14,0,.14.07s-.07.07-.14.07H81.95c-.07,0-.14,0-.14-.07s0-.07.14-.07h.28c.14,0,.21-.21.21-.42a9.929,9.929,0,0,0,.07-1.611v-1.4Z" transform="translate(-81.25 -34.52)"/><path class="b" d="M88.9,37.612A2.928,2.928,0,0,1,92.052,34.6a2.782,2.782,0,0,1,3.082,2.872,3.054,3.054,0,0,1-3.152,3.152A2.908,2.908,0,0,1,88.9,37.612Zm5.184.14c0-1.751-.981-2.8-2.242-2.8-.911,0-1.891.49-1.891,2.382,0,1.611.911,2.872,2.382,2.872C92.823,40.2,94.084,39.994,94.084,37.752Z" transform="translate(-83.436 -34.46)"/><path class="b" d="M100.331,39.374c0,.63.14.771.28.841a.889.889,0,0,0,.42.07c.07,0,.14,0,.14.07s-.07.07-.21.07H99.14c-.07,0-.14,0-.14-.07s.07-.07.14-.07a.762.762,0,0,0,.35-.07c.21-.07.21-.28.21-.981l.07-4.553c0-.14,0-.28.07-.28s.14.07.28.21c.07.07,1.261,1.331,2.382,2.452.49.49,1.541,1.611,1.681,1.751h.07l-.07-3.433c0-.49-.07-.63-.28-.7a.889.889,0,0,0-.42-.07c-.07,0-.14,0-.14-.07s.07-.07.21-.07h1.681c.07,0,.21,0,.21.07s-.07.07-.14.07h-.21c-.21.07-.28.21-.28.63l-.07,4.834c0,.14,0,.21-.07.21a.531.531,0,0,1-.28-.14L102.152,37.9a26.381,26.381,0,0,1-1.821-1.961h0Z" transform="translate(-86.461 -34.4)"/><path class="b" d="M111.572,35.13h-1.121a1.012,1.012,0,0,0-.771.21c-.07.14-.14.21-.14.28a.069.069,0,0,1-.07.07c-.07,0-.07-.07-.07-.14,0-.14.14-.841.14-.911a.245.245,0,0,1,.07-.14,1.425,1.425,0,0,0,.35.07c.21,0,.49.07.771.07h3.012a4.39,4.39,0,0,0,.771-.07c.07,0,.07.07.07.14v.911c0,.07,0,.14-.07.14s-.07-.07-.07-.14v-.07c0-.21-.21-.42-.911-.42h-.981v3.152a9.475,9.475,0,0,0,.07,1.611.384.384,0,0,0,.28.42h.42c.07,0,.14,0,.14.07s-.07.07-.14.07h-2.172c-.07,0-.14,0-.14-.07s0-.07.14-.07h.28c.14,0,.21-.21.21-.42a9.924,9.924,0,0,0,.07-1.611V35.13Z" transform="translate(-89.575 -34.43)"/><path class="b" d="M118.9,36.972V35.36c0-.28-.07-.42-.28-.42h-.28c-.07,0-.14,0-.14-.07s.07-.07.21-.07H120.3c.07,0,.14,0,.14.07s-.07.07-.14.07h-.21c-.21.07-.28.14-.28.42v4.623c0,.21.07.35.28.35h.42c.07,0,.14,0,.14.07s-.07.07-.14.07H118.34c-.07,0-.14,0-.14-.07s0-.07.14-.07h.28c.14,0,.21-.14.21-.35a10.432,10.432,0,0,0,.07-1.681Z" transform="translate(-92.211 -34.52)"/><path class="b" d="M124.981,38.373a9.476,9.476,0,0,0,.07,1.611c0,.21.07.42.28.42h.35c.07,0,.14,0,.14.07s-.07.07-.14.07H123.51c-.14,0-.14,0-.14-.07s0-.07.14-.07h.28c.14,0,.21-.21.21-.42a9.926,9.926,0,0,0,.07-1.611V35.43c0-.28-.07-.35-.35-.42h-.28c-.07,0-.14,0-.14-.07s.07-.07.21-.07h3.433c.07,0,.07-.07.14-.07a.069.069,0,0,1,.07.07,1.425,1.425,0,0,0-.07.35,1.939,1.939,0,0,1-.07.63c0,.07,0,.14-.07.14s-.07-.07-.07-.14a.421.421,0,0,0-.07-.28c-.07-.14-.21-.21-.49-.21h-1.191c-.07,0-.07,0-.07.14v1.891c0,.07,0,.07.07.07h1.331a.535.535,0,0,0,.35-.14l.07-.07a.069.069,0,0,1,.07.07,2.485,2.485,0,0,0-.07.49v.56c0,.07,0,.14-.07.14s-.07-.07-.07-.14a.257.257,0,0,0-.07-.21c-.07-.14-.14-.21-.42-.28h-1.121c-.07,0-.07,0-.07.07v.42Z" transform="translate(-93.738 -34.52)"/><path class="b" d="M131,36.972V35.36c0-.28-.07-.42-.28-.42h-.28c-.07,0-.14,0-.14-.07s.07-.07.21-.07H132.4c.07,0,.14,0,.14.07s-.07.07-.14.07h-.21c-.21.07-.28.14-.28.42v4.623c0,.21.07.35.28.35h.42c.07,0,.14,0,.14.07s-.07.07-.14.07H130.44c-.07,0-.14,0-.14-.07s0-.07.14-.07h.28c.14,0,.21-.14.21-.35A10.435,10.435,0,0,0,131,38.3Z" transform="translate(-95.834 -34.52)"/><path class="b" d="M135.881,39.784a2.967,2.967,0,0,1-.07-4.343,3.426,3.426,0,0,1,2.452-.841,5.316,5.316,0,0,1,1.121.07,3.615,3.615,0,0,0,.771.14.245.245,0,0,1,.14.07,1.5,1.5,0,0,1-.07.42v.841c0,.14,0,.21-.07.21s-.07-.07-.07-.14a1.479,1.479,0,0,0-.28-.7,2.24,2.24,0,0,0-1.541-.49,1.873,1.873,0,0,0-1.471.49,2.528,2.528,0,0,0-.7,1.961,2.588,2.588,0,0,0,2.382,2.732c.7,0,1.121-.07,1.4-.42a1.756,1.756,0,0,0,.28-.49c0-.14.07-.14.07-.14.07,0,.07.07.07.14a8.8,8.8,0,0,1-.14,1.051c-.07.14-.07.14-.21.21a3.936,3.936,0,0,1-1.4.21A5.289,5.289,0,0,1,135.881,39.784Z" transform="translate(-97.212 -34.46)"/><path class="b" d="M144.8,36.972V35.36c0-.28-.07-.42-.28-.42h-.28c-.07,0-.14,0-.14-.07s.07-.07.21-.07H146.2c.07,0,.14,0,.14.07s-.07.07-.14.07h-.21c-.21.07-.28.14-.28.42v4.623c0,.21.07.35.28.35h.42c.07,0,.14,0,.14.07s-.07.07-.14.07H144.24c-.07,0-.14,0-.14-.07s0-.07.14-.07h.28c.14,0,.21-.14.21-.35a10.435,10.435,0,0,0,.07-1.681V36.972Z" transform="translate(-99.967 -34.52)"/><path class="b" d="M150.6,38.523h0l-.49,1.191a1.782,1.782,0,0,0-.14.49c0,.14.07.21.28.21h.14c.07,0,.14,0,.14.07s-.07.07-.14.07H148.64c-.07,0-.14,0-.14-.07s0-.07.07-.07h.21c.35-.07.49-.28.63-.7L151.3,34.88c.07-.21.14-.28.21-.28s.14.07.21.21c.21.42,1.4,3.573,1.891,4.694.28.7.49.771.7.841h.35c.07,0,.07,0,.07.07s-.07.07-.35.07h-1.471c-.14,0-.21,0-.21-.07s0-.07.14-.07c.07,0,.14-.07.07-.21l-.63-1.611a.069.069,0,0,0-.07-.07H150.6Zm1.541-.42h0l-.63-1.961a.07.07,0,0,0-.14,0l-.7,1.891v.07Z" transform="translate(-101.285 -34.46)"/><path class="b" d="M81.871,52.742V51.13c0-.28-.07-.35-.35-.42h-.28c-.07,0-.14,0-.14-.07s.07-.07.14-.07h2.032c.14,0,.14,0,.14.07s-.07.07-.14.07h-.21c-.21.07-.28.14-.28.42v2.662c0,1.121.21,1.611.63,1.891a1.418,1.418,0,0,0,.981.28,1.545,1.545,0,0,0,1.051-.42,2.642,2.642,0,0,0,.42-1.891V51.06c0-.28-.07-.35-.35-.42h-.28c-.07,0-.14,0-.14-.07s.07-.07.14-.07h1.751c.14,0,.14,0,.14.07s-.07.07-.14.07h-.21c-.21.07-.28.14-.28.42v2.452a2.967,2.967,0,0,1-.7,2.312,2.266,2.266,0,0,1-1.611.56,2.206,2.206,0,0,1-1.681-.56,2.4,2.4,0,0,1-.7-2.032V52.742Z" transform="translate(-81.1 -39.222)"/><path class="b" d="M91.931,55.174c0,.63.14.771.28.841a.888.888,0,0,0,.42.07c.07,0,.14,0,.14.07s-.07.07-.21.07H90.74c-.07,0-.14,0-.14-.07s.07-.07.14-.07a.762.762,0,0,0,.35-.07c.21-.07.21-.28.21-.981l.07-4.553c0-.14,0-.28.07-.28s.14.07.28.21c.07.07,1.261,1.331,2.382,2.452.49.49,1.541,1.611,1.681,1.751h.07l-.07-3.292c0-.49-.07-.63-.28-.7a.888.888,0,0,0-.42-.07c-.07,0-.14,0-.14-.07s.07-.07.21-.07h1.681c.07,0,.21,0,.21.07s-.07.07-.14.07h-.21c-.21.07-.28.21-.28.63l-.07,4.834c0,.14,0,.21-.07.21a.531.531,0,0,1-.28-.14l-2.242-2.242a26.381,26.381,0,0,1-1.821-1.961h0Z" transform="translate(-83.945 -39.132)"/><path class="b" d="M102.2,52.772V51.16c0-.28-.07-.42-.28-.42h-.28c-.07,0-.14,0-.14-.07s.07-.07.21-.07H103.6c.07,0,.14,0,.14.07s-.07.07-.14.07h-.21c-.21.07-.28.14-.28.42v4.623c0,.21.07.35.28.35h.42c.07,0,.14,0,.14.07s-.07.07-.14.07H101.64c-.07,0-.14,0-.14-.07s0-.07.14-.07h.28c.14,0,.21-.14.21-.35a10.434,10.434,0,0,0,.07-1.681Z" transform="translate(-87.209 -39.251)"/><path class="b" d="M106.811,51.3c-.21-.42-.28-.49-.56-.56h-.28c-.07,0-.07,0-.07-.07s.07-.07.21-.07h2.032c.07,0,.21,0,.21.07s-.07.07-.14.07c-.14,0-.21,0-.28.07s-.07.07-.07.14a1.9,1.9,0,0,0,.21.56l1.331,3.5h0c.35-.841,1.331-3.292,1.541-3.783a.421.421,0,0,0,.07-.28c0-.07,0-.14-.07-.14s-.21-.07-.28-.07-.14,0-.14-.07.07-.07.21-.07H112.2c.07,0,.14,0,.14.07s-.07.07-.14.07a.762.762,0,0,0-.35.07,1.974,1.974,0,0,0-.42.7c-.28.7-.49,1.121-.911,2.1-.49,1.121-.841,1.961-1.051,2.312-.21.42-.28.56-.35.56s-.14-.14-.28-.49Z" transform="translate(-88.527 -39.251)"/><path class="b" d="M116.671,52.742V51.13c0-.28-.07-.35-.35-.42h-.28c-.07,0-.14,0-.14-.07s.07-.07.14-.07h3.012a.525.525,0,0,0,.35-.07h.14c.07,0,.07,0,.07.07a1.71,1.71,0,0,0-.07.49c0,.07,0,.42-.07.49,0,.07,0,.07-.07.07s-.07-.07-.07-.14a.421.421,0,0,0-.07-.28c-.07-.14-.14-.21-.49-.28h-1.121c-.07,0-.07,0-.07.07v1.961c0,.07,0,.07.07.07h1.261a.412.412,0,0,0,.35-.14c.07-.07.07-.07.14-.07a.069.069,0,0,1,.07.07,1.938,1.938,0,0,0-.07.56v.49c0,.07,0,.14-.07.14s-.07,0-.07-.07v-.28a.4.4,0,0,0-.42-.28h-1.121c-.07,0-.07,0-.07.07v1.821c0,.56.14.63.911.63a2.384,2.384,0,0,0,.7-.07c.21-.07.28-.28.35-.56,0-.07,0-.14.07-.14s.07.07.07.14c0,.21-.07.7-.07.841-.07.21-.14.21-.42.21-1.191,0-1.681-.07-2.1-.07h-.981c-.07,0-.14,0-.14-.07s0-.07.14-.07h.28c.14,0,.21-.21.21-.42a9.924,9.924,0,0,0,.07-1.611v-1.4Z" transform="translate(-91.522 -39.222)"/><path class="b" d="M123.671,52.772V51.16c0-.28-.07-.35-.35-.42h-.28c-.07,0-.14,0-.14-.07s.07-.07.14-.07h2.1a2.461,2.461,0,0,1,1.4.35,1.361,1.361,0,0,1,.49,1.051,2.174,2.174,0,0,1-.981,1.751c.7.841,1.191,1.541,1.681,2.032a1.474,1.474,0,0,0,.841.49h.21c.07,0,.07,0,.07.07s-.07.07-.14.07h-.7a2.287,2.287,0,0,1-.841-.14,4.12,4.12,0,0,1-1.051-1.121,10.406,10.406,0,0,0-.771-1.051c-.07-.07-.07-.07-.14-.07h-.7c-.07,0-.07,0-.07.07v.14a9.474,9.474,0,0,0,.07,1.611c0,.21.07.42.28.42h.35c.07,0,.07,0,.07.07s-.07.07-.14.07H123.04c-.07,0-.14,0-.14-.07s0-.07.14-.07h.28c.14,0,.21-.21.21-.42a9.927,9.927,0,0,0,.07-1.611V52.772Zm.911.56c0,.07,0,.14.07.14a1.542,1.542,0,0,0,.56.07c.28,0,.42,0,.56-.14a1.3,1.3,0,0,0,.42-1.121c0-1.121-.7-1.4-1.191-1.4h-.42c-.07,0-.07.07-.07.14v2.312Z" transform="translate(-93.618 -39.251)"/><path class="b" d="M132.54,56.114c-.14-.07-.14-.07-.14-.28a3.185,3.185,0,0,1,.07-.981c0-.14,0-.21.07-.21s.07.07.07.14a1.042,1.042,0,0,0,.07.42,1.058,1.058,0,0,0,1.121.771.962.962,0,0,0,1.051-.841,1.581,1.581,0,0,0-.771-1.261l-.35-.28a2.219,2.219,0,0,1-1.121-1.821,1.562,1.562,0,0,1,1.751-1.471,3.413,3.413,0,0,1,1.051.14.245.245,0,0,1,.14.07v.911c0,.14,0,.21-.07.21s-.07-.07-.07-.14a1.219,1.219,0,0,0-.21-.49,1.05,1.05,0,0,0-.841-.35.818.818,0,0,0-.911.771c0,.35.21.63.841,1.121l.21.14c.911.7,1.261,1.261,1.261,1.961a1.514,1.514,0,0,1-.7,1.331,1.878,1.878,0,0,1-1.191.28A1.96,1.96,0,0,1,132.54,56.114Z" transform="translate(-96.463 -39.162)"/><path class="b" d="M139.3,52.772V51.16c0-.28-.07-.42-.28-.42h-.28c-.07,0-.14,0-.14-.07s.07-.07.21-.07H140.7c.07,0,.14,0,.14.07s-.07.07-.14.07h-.21c-.21.07-.28.14-.28.42v4.623c0,.21.07.35.28.35h.42c.07,0,.14,0,.14.07s-.07.07-.14.07H138.74c-.07,0-.14,0-.14-.07s0-.07.14-.07h.28c.14,0,.21-.14.21-.35a10.43,10.43,0,0,0,.07-1.681V52.772Z" transform="translate(-98.32 -39.251)"/><path class="b" d="M144.371,52.772V51.16c0-.28-.07-.35-.35-.42h-.28c-.07,0-.14,0-.14-.07s.07-.07.14-.07h2.312a4.17,4.17,0,0,1,3.082.841A2.987,2.987,0,0,1,149.9,53.4a3.255,3.255,0,0,1-.841,2.172,3.5,3.5,0,0,1-2.592.911c-.56,0-1.261-.07-1.611-.07h-.981c-.07,0-.14,0-.14-.07s0-.07.14-.07h.28c.14,0,.21-.21.21-.42a9.932,9.932,0,0,0,.07-1.611V52.772Zm.981.841v1.541c0,.21,0,.49.07.56.07.14.42.28.981.28a2.3,2.3,0,0,0,1.751-.56,2.908,2.908,0,0,0-.14-3.783,2.963,2.963,0,0,0-2.172-.771c-.14,0-.42,0-.49.07-.07,0-.07.07-.07.14v2.522Z" transform="translate(-99.817 -39.251)"/><path class="b" d="M154.5,54.223h0l-.49,1.191a1.783,1.783,0,0,0-.14.49c0,.14.07.21.28.21h.14c.07,0,.14,0,.14.07s-.07.07-.14.07H152.54c-.07,0-.14,0-.14-.07s0-.07.07-.07h.21c.35-.07.49-.28.63-.7L155.2,50.58c.07-.21.14-.28.21-.28s.14.07.21.21c.21.42,1.4,3.573,1.891,4.694.28.7.49.771.7.841h.35c.07,0,.07,0,.07.07s-.07.07-.35.07h-1.471c-.14,0-.21,0-.21-.07s0-.07.14-.07c.07,0,.14-.07.07-.21l-.63-1.611a.069.069,0,0,0-.07-.07H154.5Zm1.541-.35c.07,0,.07-.07,0,0l-.63-1.961a.069.069,0,0,0-.07-.07l-.07.07-.7,1.891v.07Z" transform="translate(-102.453 -39.162)"/><path class="b" d="M163.071,52.772V51.16c0-.28-.07-.35-.35-.42h-.28c-.07,0-.14,0-.14-.07s.07-.07.14-.07h2.312a4.17,4.17,0,0,1,3.082.841A2.987,2.987,0,0,1,168.6,53.4a3.255,3.255,0,0,1-.841,2.172,3.5,3.5,0,0,1-2.592.911c-.56,0-1.261-.07-1.611-.07h-.981c-.07,0-.14,0-.14-.07s0-.07.14-.07h.28c.14,0,.21-.21.21-.42a9.926,9.926,0,0,0,.07-1.611V52.772Zm.981.841v1.541a1.2,1.2,0,0,0,.07.56c.07.14.42.28.981.28a2.3,2.3,0,0,0,1.751-.56,2.4,2.4,0,0,0,.63-1.891,2.667,2.667,0,0,0-.7-1.891,2.963,2.963,0,0,0-2.172-.771c-.14,0-.42,0-.49.07-.07,0-.07.07-.07.14v2.522Z" transform="translate(-105.417 -39.251)"/><path class="b" d="M82.381,71.284a2.967,2.967,0,0,1-.07-4.343,3.426,3.426,0,0,1,2.452-.841,5.315,5.315,0,0,1,1.121.07,3.615,3.615,0,0,0,.771.14.245.245,0,0,1,.14.07,1.5,1.5,0,0,1-.07.42v.841c0,.14,0,.21-.07.21s-.07-.07-.07-.14a1.479,1.479,0,0,0-.28-.7,2.24,2.24,0,0,0-1.541-.49,1.873,1.873,0,0,0-1.471.49,2.528,2.528,0,0,0-.7,1.961A2.588,2.588,0,0,0,84.973,71.7c.7,0,1.121-.07,1.4-.42a1.755,1.755,0,0,0,.28-.49c0-.14.07-.14.07-.14.07,0,.07.07.07.14a8.782,8.782,0,0,1-.14,1.051c-.07.14-.07.14-.21.21a3.936,3.936,0,0,1-1.4.21A5.289,5.289,0,0,1,82.381,71.284Z" transform="translate(-81.19 -43.893)"/><path class="b" d="M91.8,69.993h0l-.49,1.121a1.782,1.782,0,0,0-.14.49c0,.14.07.21.28.21h.14c.07,0,.14,0,.14.07s-.07.07-.14.07H89.84c-.07,0-.14,0-.14-.07s0-.07.07-.07h.21c.35-.07.49-.28.63-.7L92.5,66.28c.07-.21.14-.28.21-.28s.14.07.21.21c.21.42,1.4,3.573,1.891,4.694.28.7.49.771.7.841h.35c.07,0,.07,0,.07.07s-.07.07-.35.07H94.113c-.14,0-.21,0-.21-.07s0-.07.14-.07c.07,0,.14-.07.07-.21l-.63-1.611a.069.069,0,0,0-.07-.07H91.8Zm1.541-.42h0l-.63-1.891a.069.069,0,0,0-.07-.07l-.07.07-.7,1.891v.07h1.471Z" transform="translate(-83.675 -43.863)"/><path class="b" d="M100.572,66.63H99.451a1.012,1.012,0,0,0-.771.21c-.07.14-.14.21-.14.28a.069.069,0,0,1-.07.07c-.07,0-.07-.07-.07-.14,0-.14.14-.841.14-.911a.245.245,0,0,1,.07-.14,1.425,1.425,0,0,0,.35.07c.21,0,.49.07.771.07h3.012a2.487,2.487,0,0,0,.7-.07c.07,0,.07.07.07.14v.911c0,.07,0,.14-.07.14s-.07-.07-.07-.14v-.07c0-.21-.21-.42-.911-.42h-.981v3.152a9.475,9.475,0,0,0,.07,1.611.384.384,0,0,0,.28.42h.42c.07,0,.14,0,.14.07s-.07.07-.14.07h-2.172c-.07,0-.14,0-.14-.07s0-.07.14-.07h.28c.14,0,.21-.21.21-.42a9.926,9.926,0,0,0,.07-1.611V66.63Z" transform="translate(-86.281 -43.863)"/><path class="b" d="M106.7,68.394a2.928,2.928,0,0,1,3.152-3.012,2.782,2.782,0,0,1,3.082,2.872,3.054,3.054,0,0,1-3.152,3.152A2.95,2.95,0,0,1,106.7,68.394Zm5.184.14c0-1.751-.981-2.8-2.242-2.8-.911,0-1.891.49-1.891,2.382,0,1.611.911,2.872,2.382,2.872C110.693,70.985,111.884,70.775,111.884,68.534Zm-.771-4.273c.07.07,0,.14-.07.14h-.28a5.958,5.958,0,0,0-1.331.42.245.245,0,0,0-.14.07.07.07,0,0,1,0-.14,10.53,10.53,0,0,1,1.261-.981.217.217,0,0,1,.14-.07c.07,0,.07,0,.14.07A1.129,1.129,0,0,1,111.113,64.26Z" transform="translate(-88.767 -43.175)"/><path class="b" d="M118.651,69.9c0,.981,0,1.541.14,1.681s.35.14.911.14c.42,0,.7,0,.911-.21a.8.8,0,0,0,.21-.49c0-.07,0-.14.07-.14s.07.07.07.14a7.356,7.356,0,0,1-.14.911c-.07.14-.07.21-.49.21-1.121,0-1.611-.07-2.242-.07h-.981c-.07,0-.14,0-.14-.07s0-.07.14-.07h.28c.14,0,.21-.21.21-.42a9.926,9.926,0,0,0,.07-1.611V66.96c0-.28-.07-.35-.35-.42h-.28c-.07,0-.14,0-.14-.07s.07-.07.14-.07h2.1c.14,0,.14,0,.14.07s-.07.07-.14.07h-.28c-.21.07-.28.14-.28.42V69.9Z" transform="translate(-91.821 -43.983)"/><path class="b" d="M124.7,68.472V66.86c0-.28-.07-.42-.28-.42h-.28c-.07,0-.14,0-.14-.07s.07-.07.21-.07H126.1c.07,0,.14,0,.14.07s-.07.07-.14.07h-.21c-.21.07-.28.14-.28.42v4.623c0,.21.07.35.28.35h.42c.07,0,.14,0,.14.07s-.07.07-.14.07H124.14c-.07,0-.14,0-.14-.07s0-.07.14-.07h.28c.14,0,.21-.14.21-.35a10.431,10.431,0,0,0,.07-1.681Z" transform="translate(-93.947 -43.953)"/><path class="b" d="M129.581,71.284a2.967,2.967,0,0,1-.07-4.343,3.426,3.426,0,0,1,2.452-.841,5.315,5.315,0,0,1,1.121.07,3.615,3.615,0,0,0,.771.14.245.245,0,0,1,.14.07,1.5,1.5,0,0,1-.07.42v.841c0,.14,0,.21-.07.21s-.07-.07-.07-.14a1.479,1.479,0,0,0-.28-.7,2.24,2.24,0,0,0-1.541-.49,1.873,1.873,0,0,0-1.471.49,2.529,2.529,0,0,0-.7,1.961,2.588,2.588,0,0,0,2.382,2.732c.7,0,1.121-.07,1.4-.42a1.756,1.756,0,0,0,.28-.49c0-.14.07-.14.07-.14.07,0,.07.07.07.14a8.788,8.788,0,0,1-.14,1.051c-.07.14-.07.14-.21.21a3.936,3.936,0,0,1-1.4.21A5.289,5.289,0,0,1,129.581,71.284Z" transform="translate(-95.325 -43.893)"/><path class="b" d="M139,70.023h0l-.49,1.191a1.782,1.782,0,0,0-.14.49c0,.14.07.21.28.21h.14c.07,0,.14,0,.14.07s-.07.07-.14.07H137.04c-.07,0-.14,0-.14-.07s0-.07.07-.07h.21c.35-.07.49-.28.63-.7L139.7,66.38c.07-.21.14-.28.21-.28s.14.07.21.21c.21.42,1.4,3.573,1.891,4.694.28.7.49.771.7.841h.35c.07,0,.07,0,.07.07s-.07.07-.35.07h-1.471c-.14,0-.21,0-.21-.07s0-.07.14-.07c.07,0,.14-.07.07-.21l-.63-1.611a.069.069,0,0,0-.07-.07H139Zm1.541-.42h0l-.631-1.961a.07.07,0,0,0-.14,0l-.7,1.891v.07h1.471Z" transform="translate(-97.811 -43.893)"/><path class="b" d="M82.371,84.272V82.66c0-.28-.07-.35-.35-.42h-.28c-.07,0-.14,0-.14-.07s.07-.07.14-.07h2.312a4.17,4.17,0,0,1,3.082.841A2.987,2.987,0,0,1,87.9,84.9a3.255,3.255,0,0,1-.841,2.172,3.5,3.5,0,0,1-2.592.911c-.56,0-1.261-.07-1.611-.07H81.88c-.07,0-.14,0-.14-.07s0-.07.14-.07h.28c.14,0,.21-.21.21-.42a9.928,9.928,0,0,0,.07-1.611V84.272Zm.911.841v1.541a1.2,1.2,0,0,0,.07.56c.07.14.42.28.981.28a2.3,2.3,0,0,0,1.751-.56,2.908,2.908,0,0,0-.14-3.783,2.963,2.963,0,0,0-2.172-.771c-.14,0-.42,0-.49.07-.07,0-.07.07-.07.14v2.522Z" transform="translate(-81.25 -48.685)"/><path class="b" d="M92.471,84.242V82.63c0-.28-.07-.35-.35-.42h-.28c-.07,0-.14,0-.14-.07s.07-.07.14-.07h3.012A.525.525,0,0,0,95.2,82h.14c.07,0,.07,0,.07.07a1.711,1.711,0,0,0-.07.49c0,.07,0,.42-.07.49,0,.07,0,.07-.07.07s-.07-.07-.07-.14a.421.421,0,0,0-.07-.28c-.07-.14-.14-.21-.49-.28H93.451c-.07,0-.07,0-.07.07v1.961c0,.07,0,.07.07.07h1.261a.412.412,0,0,0,.35-.14c.07-.07.07-.07.14-.07a.069.069,0,0,1,.07.07,1.939,1.939,0,0,0-.07.56v.49c0,.07,0,.14-.07.14s-.07,0-.07-.07v-.28a.4.4,0,0,0-.42-.28H93.521c-.07,0-.07,0-.07.07v1.821c0,.56.14.63.911.63a2.384,2.384,0,0,0,.7-.07c.21-.07.28-.28.35-.56,0-.07,0-.14.07-.14s.07.07.07.14c0,.21-.07.7-.07.841-.07.21-.14.21-.42.21-1.191,0-1.681-.07-2.1-.07H91.98c-.07,0-.14,0-.14-.07s0-.07.14-.07h.28c.14,0,.21-.21.21-.42a9.927,9.927,0,0,0,.07-1.611v-1.4Z" transform="translate(-84.274 -48.655)"/><path class="b" d="M103.281,86.984a2.967,2.967,0,0,1-.07-4.343,3.426,3.426,0,0,1,2.452-.841,5.315,5.315,0,0,1,1.121.07,3.615,3.615,0,0,0,.771.14.245.245,0,0,1,.14.07,1.5,1.5,0,0,1-.07.42v.841c0,.14,0,.21-.07.21s-.07-.07-.07-.14a1.479,1.479,0,0,0-.28-.7,2.24,2.24,0,0,0-1.541-.49,1.873,1.873,0,0,0-1.471.49,2.528,2.528,0,0,0-.7,1.961,2.588,2.588,0,0,0,2.382,2.732c.7,0,1.121-.07,1.4-.42a1.756,1.756,0,0,0,.28-.49c0-.14.07-.14.07-.14.07,0,.07.07.07.14a8.786,8.786,0,0,1-.14,1.051c-.07.14-.07.14-.21.21a3.936,3.936,0,0,1-1.4.21A4.53,4.53,0,0,1,103.281,86.984Z" transform="translate(-87.449 -48.595)"/><path class="b" d="M116.223,84.482h0l.07-.21V82.66c0-.28-.07-.35-.35-.42h-.28c-.07,0-.14,0-.14-.07s.07-.07.14-.07h2.1c.14,0,.14,0,.14.07s-.07.07-.14.07h-.21c-.21.07-.28.14-.28.42V85.6a9.472,9.472,0,0,0,.07,1.611.384.384,0,0,0,.28.42h.42c.07,0,.14,0,.14.07s-.07.07-.14.07h-2.172c-.14,0-.14,0-.14-.07s0-.07.14-.07h.28c.14,0,.21-.21.21-.42a9.929,9.929,0,0,0,.07-1.611v-.7a.069.069,0,0,0-.07-.07h-3.082a.069.069,0,0,0-.07.07v.7a9.474,9.474,0,0,0,.07,1.611.384.384,0,0,0,.28.42h.42c.07,0,.14,0,.14.07s-.07.07-.14.07H111.81c-.07,0-.14,0-.14-.07s0-.07.14-.07h.28c.14,0,.21-.21.21-.42a9.929,9.929,0,0,0,.07-1.611V82.66c0-.28-.07-.35-.35-.42h-.28c-.07,0-.14,0-.14-.07s.07-.07.14-.07h2.1c.14,0,.14,0,.14.07s-.07.07-.14.07h-.21c-.21.07-.28.14-.28.42v1.751c0,.07,0,.07.07.07h2.8Z" transform="translate(-90.234 -48.685)"/><path class="b" d="M123.1,84.272V82.66c0-.28-.07-.42-.28-.42h-.28c-.07,0-.14,0-.14-.07s.07-.07.21-.07H124.5c.07,0,.14,0,.14.07s-.07.07-.14.07h-.21c-.21.07-.28.14-.28.42v4.623c0,.21.07.35.28.35h.42c.07,0,.14,0,.14.07s-.07.07-.14.07H122.54c-.07,0-.14,0-.14-.07s0-.07.14-.07h.28c.14,0,.21-.14.21-.35a10.434,10.434,0,0,0,.07-1.681V84.272Z" transform="translate(-93.468 -48.685)"/><path class="b" d="M129.151,85.6c0,.981,0,1.541.14,1.681s.35.14.911.14c.42,0,.7,0,.911-.21a.8.8,0,0,0,.21-.49c0-.07,0-.14.07-.14s.07.07.07.14a7.369,7.369,0,0,1-.14.911c-.07.14-.07.21-.49.21-1.121,0-1.611-.07-2.242-.07h-.981c-.07,0-.14,0-.14-.07s0-.07.14-.07h.28c.14,0,.21-.21.21-.42a9.923,9.923,0,0,0,.07-1.611V82.66c0-.28-.07-.35-.35-.42h-.28c-.07,0-.14,0-.14-.07s.07-.07.14-.07h2.1c.14,0,.14,0,.14.07s-.07.07-.14.07h-.28c-.21.07-.28.14-.28.42V85.6Z" transform="translate(-94.966 -48.685)"/><path class="b" d="M135.171,84.242V82.63c0-.28-.07-.35-.35-.42h-.28c-.07,0-.14,0-.14-.07s.07-.07.14-.07h3.012a.525.525,0,0,0,.35-.07h.14c.07,0,.07,0,.07.07a1.711,1.711,0,0,0-.07.49c0,.07,0,.42-.07.49,0,.07,0,.07-.07.07s-.07-.07-.07-.14a.421.421,0,0,0-.07-.28c-.07-.14-.14-.21-.49-.28h-1.121c-.07,0-.07,0-.07.07v1.961c0,.07,0,.07.07.07h1.261a.412.412,0,0,0,.35-.14c.07-.07.07-.07.14-.07a.069.069,0,0,1,.07.07,1.938,1.938,0,0,0-.07.56v.49c0,.07,0,.14-.07.14s-.07,0-.07-.07v-.28a.4.4,0,0,0-.42-.28h-1.121c-.07,0-.07,0-.07.07v1.821c0,.56.14.63.911.63a2.384,2.384,0,0,0,.7-.07c.21-.07.28-.28.35-.56,0-.07,0-.14.07-.14s.07.07.07.14c0,.21-.07.7-.07.841-.07.21-.14.21-.42.21-1.191,0-1.681-.07-2.1-.07h-.981c-.07,0-.14,0-.14-.07s0-.07.14-.07h.28c.14,0,.21-.21.21-.42a9.921,9.921,0,0,0,.07-1.611v-1.4Z" transform="translate(-97.062 -48.655)"/></g><path class="b" d="M46.865,29.142A1.74,1.74,0,0,0,48.2,27.461a2.257,2.257,0,0,0-1.191-1.891l-.42-.21a1.555,1.555,0,0,0,1.121-1.471.809.809,0,0,0-.841-.841.856.856,0,0,0-.63.28.757.757,0,0,0-.21.49c-.07.07-.35.14-1.051.14a3.516,3.516,0,0,1-.841-.14c.14-.07.63-.49.841-.63s.7-.28.911-.7a7.472,7.472,0,0,0,.981-2.382,3.879,3.879,0,0,0,.14-1.261c0-.35-.07-.63-.07-.841l-.07-.49c0-.28-.07-1.121-.771-1.331,0,0-1.191-1.821-1.261-1.891s-.07-.07-.14,0-.49.63-.49.63a.667.667,0,0,0-.49.14l-.14-.14c-.07,0-.07-.07-.14-.07l-.21-1.4h-.14s-.7.14-.771.14l-.42-.14c-.07,0-.14-.14-.21-.21v-.21a1.56,1.56,0,0,0-.911-1.471,1.592,1.592,0,0,0-1.891.35.53.53,0,0,1-.28-.07c-.21-.07-.28-.21-.35-.21l-.49-.841-1.121.7c-.7-.56-.981-.771-1.4-.56a.934.934,0,0,0-.42.35.421.421,0,0,0,.07-.28.841.841,0,0,0-.771-.841.245.245,0,0,1-.14-.07,3.748,3.748,0,0,0-.42-.911c0-.07-.14-.07-.21,0s-1.331,1.051-1.331,1.051a1.866,1.866,0,0,0-1.471-1.541V7.426h-.63a2.821,2.821,0,0,0-2.8-3.012h-.28V3.222h1.191V1.261H26.76V0H24.729V1.261H23.468V3.222h1.261V4.413c-.14,0-.28-.07-.42-.07a2.781,2.781,0,0,0-2.8,3.012h-.771V8.616a1.973,1.973,0,0,0-1.4,1.821l-.56-.49-1.121-.911-.14-.07L15.2,11.7a1.688,1.688,0,0,0-1.051-.28,8.666,8.666,0,0,0-1.681.28,1.741,1.741,0,0,0-1.961-.42,1.6,1.6,0,0,0-.981,1.471v.21a.967.967,0,0,1-.28.21l-.14.07a2.848,2.848,0,0,0-1.331,1.751h-3.5v3.363H6.8a3.2,3.2,0,0,0,.56,5.254,1.264,1.264,0,0,1-.841.21c-.7,0-.981-.07-1.051-.14a.9.9,0,0,0-.841-.771.852.852,0,0,0-.841.841A1.481,1.481,0,0,0,4.9,25.219a2.545,2.545,0,0,0-1.611,2.1A1.68,1.68,0,0,0,4.623,29,26.474,26.474,0,0,0,0,43.923a25.71,25.71,0,0,0,51.419-.28A25.274,25.274,0,0,0,46.865,29.142ZM6.165,27.11c0-.07-.07-.07-.07-.14a.605.605,0,0,0-.42-.21c-.07,0,.07-.07.21-.14s.981-.35.981-.35Zm3.082-9.527A3.188,3.188,0,0,0,7.776,18v-.911h1.4a5.685,5.685,0,0,1,.42.56A.525.525,0,0,1,9.247,17.583Zm8.616.21H16.813c0-.21-.07-.28-.07-.56h.771A2.458,2.458,0,0,0,17.863,17.793Zm-.981-4.974s.42.35.7.56a2.712,2.712,0,0,0-1.4,1.121l-.14-.63C16.392,13.38,16.743,13.03,16.883,12.82Zm-5.954,8.266h0a1.659,1.659,0,0,0-.21-.7,3.187,3.187,0,0,0,.49-.63,1.541,1.541,0,0,1,.35.42A10.248,10.248,0,0,1,10.928,21.086Zm.911,1.051c.42-.49.7-.911.981-1.191.21-.28.63-.771.7-.841.21-.07.49.21.49.28a.791.791,0,0,0,.771.21A14.849,14.849,0,0,0,11.839,22.137Zm3.082-1.681a.736.736,0,0,0,.35-.63v-.21c0-.14,0-.35.14-.42h2.662A24.644,24.644,0,0,0,14.921,20.455Zm4.974-7.215a2.979,2.979,0,0,0-.771-.14,4.134,4.134,0,0,0-.981.14l1.471-1.821a2.477,2.477,0,0,0,.841,1.051C20.245,12.82,20.035,13.03,19.895,13.24Zm4.343-1.331a2.777,2.777,0,0,0,1.541.56,2.777,2.777,0,0,0,1.541-.56,2.1,2.1,0,0,1,.28.56,4.771,4.771,0,0,0-1.821,1.051,5.184,5.184,0,0,0-1.821-1.051A1.408,1.408,0,0,1,24.238,11.909ZM21.3,10.018c.14,0,.21.28.21.35a2.408,2.408,0,0,1-.28.911.838.838,0,0,1-.28-.56C20.946,10.368,21.156,10.018,21.3,10.018Zm-.21,3.923a7.445,7.445,0,0,0,.63-.771c.21.07.35.14.56.21a6.026,6.026,0,0,0-.07,1.121v.42a.632.632,0,0,1-.35.07A2.524,2.524,0,0,0,21.086,13.94Zm.7,3.433a2.237,2.237,0,0,0,.21-.981,1.649,1.649,0,0,1,.56-.14,2.516,2.516,0,0,0,.49.7A5.152,5.152,0,0,1,21.786,17.373Zm.841-5.394a.245.245,0,0,1-.14-.07,2.9,2.9,0,0,0,.42-1.4,1.528,1.528,0,0,0,.28.35C22.977,11.278,22.767,11.629,22.627,11.979ZM23.748,14.5c-.07,0-.07,0-.14.07V14.5a1.94,1.94,0,0,1,.07-.63l.841.28A.791.791,0,0,0,23.748,14.5Zm.63,1.751c-.14-.14-.21-.28-.35-.42.911-.21.981-.841.981-.841A1.6,1.6,0,0,1,24.378,16.252ZM25.709,17.3c-.07-.07-.14-.07-.28-.14l.28-.28c.07.07.14.21.28.28A.364.364,0,0,0,25.709,17.3Zm1.4-1.051a1.866,1.866,0,0,1-.7-1.261s.07.63.981.841C27.32,15.972,27.18,16.112,27.11,16.252Zm.771-1.681a.245.245,0,0,1-.14-.07.737.737,0,0,0-.7-.35l.841-.28v.7Zm.7-3.993a7.55,7.55,0,0,0,.42,1.4.245.245,0,0,0-.14.07A7.656,7.656,0,0,0,28.3,11C28.371,10.858,28.511,10.718,28.581,10.578Zm-.28,6.445a4.252,4.252,0,0,0,.49-.7,2.165,2.165,0,0,0,.56.14,2.237,2.237,0,0,0,.21.981A6.6,6.6,0,0,0,28.3,17.023Zm1.331-2.032a.632.632,0,0,0-.35-.07V14.5c0-.35-.07-.771-.07-1.121.21-.07.35-.14.56-.21a7.445,7.445,0,0,0,.63.771A2.011,2.011,0,0,0,29.632,14.991Zm.56-3.713a2.112,2.112,0,0,1-.28-.911c0-.07.07-.35.21-.35s.35.35.35.7A.612.612,0,0,1,30.193,11.278Zm3.783,3.783a6.61,6.61,0,0,0,.981-.911h.21v.07a.421.421,0,0,0,.07.28h0a2.551,2.551,0,0,0-1.051,1.541l-.07.07-.07-.14v-.42a1.039,1.039,0,0,1-.07-.49Zm-2.732,2.312a1.476,1.476,0,0,1-.42-1.191h0a1.192,1.192,0,0,1,.07-.49,1,1,0,0,0,.42.14l.14.14a1.743,1.743,0,0,1-.35.49l-.07.42A4.664,4.664,0,0,1,31.243,17.373Zm.35-4.133c-.14-.21-.35-.42-.56-.771a2.259,2.259,0,0,0,.911-1.191,1.415,1.415,0,0,0,.7.35,2.516,2.516,0,0,0,.49.7h0a3.969,3.969,0,0,1-.771.7A3.718,3.718,0,0,0,31.594,13.24Zm.981,4.413c0-.21-.07-.42-.07-.63v-.21a2.738,2.738,0,0,0,.28-.35v.21c0,.07.14.21.14.21h.14a.245.245,0,0,0,.14.07l.49.42a2.477,2.477,0,0,0,.42.07h0a.531.531,0,0,1,.14.28H32.574C32.715,17.793,32.644,17.723,32.574,17.653Zm.771,1.541h2.522c.07.07.21.14.28.21v.49a.836.836,0,0,0,.35.63A15.776,15.776,0,0,0,33.345,19.194Zm3.292,1.331a1,1,0,0,0,.771-.21c.14-.14.21-.21.28-.21s.21.07.28.07c.14.21.42.49.63.771a12.422,12.422,0,0,0,.981,1.191A14.954,14.954,0,0,0,36.637,20.525Zm4.343,1.051c-.35-.42-.63-.771-.911-1.121h.42c.07.07.07.07.07.14a.639.639,0,0,0,.21.56l.42.14C41.191,21.366,41.051,21.506,40.981,21.576Zm4.273,5.534c-.35-.42-.49-.56-.841-.981l1.121.49a.767.767,0,0,1,.28.14A.941.941,0,0,0,45.254,27.11Z"/><g transform="translate(0.63 0.56)"><path class="c" d="M26.119,76.857A25.1,25.1,0,0,1,.9,51.918,25.367,25.367,0,0,1,5.664,37.067a1.129,1.129,0,0,0,.49-.28,1.621,1.621,0,0,0,.49-.981,25.077,25.077,0,0,1,38.669,0,1.488,1.488,0,0,0,.981,1.261,25.083,25.083,0,0,1-20.175,39.79Z" transform="translate(-0.9 -8.556)"/><g transform="translate(3.082)"><path class="c" d="M22.42,17.5h0l1.191-1.331.42.35-.14.21.49.42.7-.771-.49-.42-.14.21-.42-.35.49-.63.42.35-.14.21.49.42.7-.841-.49-.42-.14.21-.56-.35.14-.21-.7-.56L22,16.662A.917.917,0,0,0,22.42,17.5Z" transform="translate(-10.301 -4.753)"/><path class="c" d="M8.051,23.971h-.28v-.56h.771v.56h-.21v.63H9.382v-.63H9.1v-.56h1.891c0-.35-.07-.56-.56-.911H7v.911h.28v.56H7v.63H8.051Z" transform="translate(-5.809 -7.299)"/><path class="c" d="M24.751,23.012A1.076,1.076,0,0,0,25.8,24.063a1.132,1.132,0,0,0,.981-.7,1.037,1.037,0,0,0,0-1.961,1.038,1.038,0,0,0-.981-.7,1.077,1.077,0,0,0-1.051,1.051v.07H23.07v.07a.764.764,0,0,0,.21.911l.07.07h1.331C24.751,22.942,24.751,22.942,24.751,23.012Zm.771-1.051c0-.21.07-.35.28-.35.35,0,.28.35.35.42.14.14.42.07.42.42,0,.28-.35.28-.42.42-.14.14-.07.42-.35.42-.21,0-.28-.14-.28-.35Z" transform="translate(-10.601 -6.76)"/><path class="c" d="M14.041,26.68a1.182,1.182,0,0,0-.49-.28l-.981,1.191-.07-.07a1.13,1.13,0,0,0-.63-.21H11.8a.973.973,0,0,0-.7.35.791.791,0,0,0-.21.771c0,.14.14.35.14.42a3.034,3.034,0,0,0-.07.35,1.018,1.018,0,0,0,1.051.981,2.172,2.172,0,0,0,.49-.14c.07,0,.28.07.42.07.49,0,.911-.42.911-1.121a.973.973,0,0,0-.35-.7l-.07-.07.911-1.051C14.181,27.171,14.181,26.82,14.041,26.68ZM12.92,29.272c-.21.28-.42,0-.56,0s-.35.28-.56.07,0-.42,0-.56-.28-.35-.14-.56a.339.339,0,0,1,.49,0l.7.56A.346.346,0,0,1,12.92,29.272Z" transform="translate(-6.966 -8.467)"/><path class="c" d="M17.849,17.066a15.317,15.317,0,0,0-1.751.28c-.14,0-.21,0-.28-.14a1.079,1.079,0,0,0-1.331-.35.983.983,0,0,0-.56,1.191c.07.28-.35.49-.56.7l-.14.07c-.911.63-1.261,1.261-1.051,1.681a52.169,52.169,0,0,0,3.643,4.694,8.047,8.047,0,0,1,1.961-1.4,7.092,7.092,0,0,1,2.312-.63,45.367,45.367,0,0,0-1.261-5.744A1.168,1.168,0,0,0,17.849,17.066Zm-4.764,3.222a3.438,3.438,0,0,1,.7-.63l.07-.07c.28-.21.981-.63.981-1.4v-.35c0-.07,0-.07.07-.14h.07s.07,0,.14.14a1.176,1.176,0,0,0,.981.42,2.613,2.613,0,0,0,.841-.14h.14a4.574,4.574,0,0,1,.771-.14h.14c0,.07.07.28.14.63a16.355,16.355,0,0,0-1.751.49.888.888,0,0,0-.63-.28.632.632,0,0,0-.35.07.861.861,0,0,0-.49.771v.07A7.954,7.954,0,0,0,13.3,20.779,1.079,1.079,0,0,0,13.085,20.289Zm1.051,1.4a12.246,12.246,0,0,1,2.032-1.261,8.825,8.825,0,0,1,2.312-.7s.14.7.14.771a7.389,7.389,0,0,0-1.331.35.888.888,0,0,0-.63-.28.632.632,0,0,0-.35.07.861.861,0,0,0-.49.771v.07l-1.261.841Zm4.834.63a4.531,4.531,0,0,0-.911.28.761.761,0,0,0-.63-.28.632.632,0,0,0-.35.07.741.741,0,0,0-.42.49c0,.07-.07.21-.07.28v.14a5.844,5.844,0,0,0-.841.56l-.42-.63a6.821,6.821,0,0,1,1.681-1.051,9.991,9.991,0,0,1,1.891-.63Z" transform="translate(-7.341 -5.578)"/><path class="c" d="M64.394,34.165a2.489,2.489,0,0,0-.63-.28l-.981-.42-.42-.21h.28c.7,0,2.242,0,2.242-1.191a.331.331,0,0,0-.35-.35.706.706,0,0,0-.21.07.257.257,0,0,0-.07.21c0,.28-.21.56-1.541.56a4.467,4.467,0,0,1-2.242-.7,3.285,3.285,0,0,0,1.541-.63,2.783,2.783,0,0,0,.981-1.821v-.28a2.364,2.364,0,0,0-.56-1.611c-.14-.14-.21-.21-.35-.21a.248.248,0,0,0-.28.28c0,.14.07.21.14.35a1.71,1.71,0,0,1,.42,1.191v.21a2.035,2.035,0,0,1-.771,1.4,2.243,2.243,0,0,1-1.4.49h-.35s.07.42-.07.56-.56,0-.56,0l-.21-.07.28.21a13.03,13.03,0,0,0,1.961,1.471h0c.14.07,1.191.63,1.191.63l1.051.42a2.1,2.1,0,0,1,.56.28q.63.42.63.841a.551.551,0,0,1-.42.56c-.14,0-.35-.07-.35-.42a.35.35,0,0,0-.7,0,1.05,1.05,0,0,0,1.051,1.121,1.232,1.232,0,0,0,1.121-1.261A1.641,1.641,0,0,0,64.394,34.165Z" transform="translate(-21.382 -8.736)"/><path class="c" d="M19.6,27.79a1.7,1.7,0,0,1,.7.42.421.421,0,0,0,.28.07c.07-.07.14-.14.14-.21a1.223,1.223,0,0,1,.14-.771A2.014,2.014,0,0,0,19.6,27.79Z" transform="translate(-9.582 -8.736)"/><path class="c" d="M13.5,28.122a16.792,16.792,0,0,1-1.4,1.611l-.07.07a1.825,1.825,0,0,1-1.471.771,2.748,2.748,0,0,1-1.331-.49,2.164,2.164,0,0,1-.771-1.4,1.971,1.971,0,0,1,.42-1.4,2.8,2.8,0,0,1,1.961-.981.35.35,0,1,0,0-.7,3.452,3.452,0,0,0-2.522,1.261,2.546,2.546,0,0,0-.56,1.891,2.783,2.783,0,0,0,.981,1.821,2.7,2.7,0,0,0,1.541.63,4.251,4.251,0,0,1-2.242.7c-.28,0-1.191,0-1.471-.28,0,.07-.07-.07-.07-.14a.331.331,0,0,0-.35-.35.375.375,0,0,0-.35.35c0,.841.7,1.191,2.242,1.191h.21l-.35.21-.981.42a2.489,2.489,0,0,0-.63.28A1.828,1.828,0,0,0,5.3,35.057a1.234,1.234,0,0,0,1.051,1.261A1.063,1.063,0,0,0,7.472,35.2a.331.331,0,0,0-.35-.35.706.706,0,0,0-.21.07.257.257,0,0,0-.07.21c0,.14-.07.42-.35.42-.14,0-.35-.21-.42-.49,0-.35.21-.63.63-.911a4.16,4.16,0,0,1,.56-.28l.981-.42h0a7.772,7.772,0,0,0,1.261-.63,12.3,12.3,0,0,0,2.1-1.681l.14-.14a20.78,20.78,0,0,0,2.242-2.522C14.2,28.262,13.636,27.912,13.5,28.122Z" transform="translate(-5.3 -8.227)"/><path class="c" d="M48.891,25.9H47.07v.14h0v.21a.257.257,0,0,1-.07.21v.14l2.032-.07C49.382,26.6,49.242,25.9,48.891,25.9Z" transform="translate(-17.788 -8.317)"/><path class="c" d="M57.433,30.629l-.14-.21c-.49-.56-.911-1.121-1.261-1.541-.14-.14-.841,0-.56.42a15.753,15.753,0,0,0,1.191,1.471l.07.07.07-.07c.07,0,.21-.14.42-.14Z" transform="translate(-20.306 -9.193)"/><path class="c" d="M38.742,22.257l-.21-.21-.07-.28h-.07a1.944,1.944,0,0,1-.981-1.751,2.472,2.472,0,0,1,.21-.981v-.21a.541.541,0,0,1,.49-.56h.07a1.3,1.3,0,0,1,.56-.7l.42-.35s-.63.21-.7.21a9.933,9.933,0,0,1-.981-1.261,1.9,1.9,0,0,0,1.051-1.681,1.574,1.574,0,0,0-1.4-1.681,1.382,1.382,0,0,0-1.261,1.4,4.269,4.269,0,0,0,.56,1.751,7.3,7.3,0,0,0-.841.35,4.99,4.99,0,0,0-.7-1.4l-.07-.14-.07.07-.35.35-.07.07.07.07a5.945,5.945,0,0,1,.56,1.191,4.478,4.478,0,0,0-2.242,1.331,4.292,4.292,0,0,0-2.242-1.331,5.211,5.211,0,0,1,.56-1.191l.07-.07-.07-.07c-.14-.07-.21-.21-.35-.35l-.07-.07-.07.14a3.866,3.866,0,0,0-.7,1.471,4.285,4.285,0,0,1-.841-.35,4.269,4.269,0,0,0,.56-1.751,1.433,1.433,0,0,0-1.261-1.4,1.574,1.574,0,0,0-1.4,1.681,1.97,1.97,0,0,0,1.051,1.681c-.14.21-.56.771-.981,1.261a2.15,2.15,0,0,0-.911-.21A3.564,3.564,0,0,0,23.47,18.4c-.07.07-.07.14-.07.28,0,.07.07.14.14.21a.257.257,0,0,0,.21.07.531.531,0,0,0,.28-.14,2.743,2.743,0,0,1,2.032-.841,1.972,1.972,0,0,1,1.331.56,2.127,2.127,0,0,1,.56,1.471,1.875,1.875,0,0,1-2.1,1.961H23.82c-.21,0-.21.63,0,.63H25.5a12.93,12.93,0,0,0,5.814-1.261,4.244,4.244,0,0,0,1.471.771c.28,0,1.121-.63,1.471-.771a9.63,9.63,0,0,0,4.553,1.191h.28l-.14-.14ZM37.13,13.5c.35,0,.7.49.7,1.051a1.376,1.376,0,0,1-.7,1.121,3.273,3.273,0,0,1-.49-1.471C36.64,13.991,36.85,13.5,37.13,13.5Zm-.28,3.082a7.93,7.93,0,0,0,.981,1.261,2.6,2.6,0,0,0-.981,1.471,8.333,8.333,0,0,1-.981-.28c0-.14.07-.35.07-.7a5.237,5.237,0,0,0-.14-1.4ZM27.6,14.551c0-.56.35-1.051.7-1.051s.56.42.56.7a3.619,3.619,0,0,1-.49,1.471A1.422,1.422,0,0,1,27.6,14.551Zm0,3.292a7.93,7.93,0,0,0,.981-1.261,8,8,0,0,0,1.051.42,5.236,5.236,0,0,0-.14,1.4c0,.28.07.56.07.7a8.928,8.928,0,0,0-.981.28A2.3,2.3,0,0,0,27.6,17.844Zm.56,3.923a3,3,0,0,0,.56-1.751c.63-.14.911-.28,1.121-.28A4.154,4.154,0,0,0,30.756,21,15.579,15.579,0,0,1,28.164,21.767Zm3.152-1.191a3.69,3.69,0,0,1-.841-1.051l.7-.21a.744.744,0,0,0,.56-.841.465.465,0,0,0-.35-.28h-.07a.465.465,0,0,0-.28.35v.07a.217.217,0,0,0-.14.07l-.7.21a1.192,1.192,0,0,1-.07-.49,5.445,5.445,0,0,1,.14-1.121c1.051.35,2.032.771,2.032,1.681A1.811,1.811,0,0,1,31.316,20.576Zm1.4.911c-.35-.14-.63-.42-.841-.49a3.113,3.113,0,0,0,.841-.981,3.113,3.113,0,0,0,.841.981A2.944,2.944,0,0,1,32.717,21.487Zm1.4-.911a2.158,2.158,0,0,1-.981-1.681c0-.911.981-1.331,2.032-1.681a6.131,6.131,0,0,1,.14,1.121,1.192,1.192,0,0,1-.07.49l-.7-.21c-.07,0-.07,0-.07-.07v-.07a.465.465,0,0,0-.28-.35h-.07a.357.357,0,0,0-.35.28.744.744,0,0,0,.56.841l.7.21A7.074,7.074,0,0,1,34.118,20.576Zm.63.35a4.154,4.154,0,0,0,.911-1.261,7.847,7.847,0,0,0,1.121.28,3,3,0,0,0,.56,1.751A7.57,7.57,0,0,1,34.749,20.926Z" transform="translate(-10.72 -4.394)"/><path class="c" d="M56.89,20.891h0c-.28-.07-.49-.21-.56-.21a1.779,1.779,0,0,1-1.051-1.4V19a.069.069,0,0,0-.07.07,1.13,1.13,0,0,1-.911.42,2.518,2.518,0,0,1-.771-.14A1.942,1.942,0,0,1,52.9,19h0a2.1,2.1,0,0,1-.21,1.331c-.49.7-1.051.911-1.331,1.4a.946.946,0,0,0,.35,1.191,2.965,2.965,0,0,0,.49.35,4.443,4.443,0,0,1,.841.7h0a6.309,6.309,0,0,1,1.121.21l.56.14H55a.966.966,0,0,0,.911-.56c.21-.35-.14-1.261.28-2.1A1.211,1.211,0,0,1,56.89,20.891Zm-2.452,1.331-.14,1.121-.56-.981-1.121.14.771-.771-.49-.911h0l.981.49.771-.771-.14,1.051.981.49Z" transform="translate(-19.062 -6.25)"/><path class="c" d="M54.908,27.47l.14-.07a2.053,2.053,0,0,0-.28-.56l.49-.841s.14,0,.14.07l.14.28.28-.63-.14.911.28.21h0l.35-.07h0s.21-.981.21-1.051v-.56h.14c.21,0,.56-.42.771-.49a2.166,2.166,0,0,0-.14.56c0,.14-.07.35-.07.42l-.21.63v.07a1.441,1.441,0,0,0,.56-1.051v-.14a1.813,1.813,0,0,0-.28-.981.8.8,0,0,1-.21-.56.751.751,0,0,1,.14-.42.636.636,0,0,1,.49-.21.83.83,0,0,1,.63.35,2.8,2.8,0,0,1,.63,1.891v.28c0,.21-.07.35-.07.56a5.778,5.778,0,0,0,.7-1.821,4.684,4.684,0,0,0,0-2.242c0-.35-.07-.841-.56-.841S58.621,22.5,57.78,22.5a.531.531,0,0,1-.28-.14l.07-.35c.14,0,.42-.14.42-.56,0-.07,0-.14-.07-.14a.8.8,0,0,0,.35-.771l.42-.14-.21-.14.07-.21h-.21v-.21h-.21l-.07-.28-.28.35c-.14-.07-.21,0-.35,0-.07,0-.28,0-.35.14l-.07.14c.28-.07.35.07.35.21s.14.28.14.35l-.07.07a1.012,1.012,0,0,0-.49-.14.709.709,0,0,0-.49.28.421.421,0,0,0-.28.07l-.14.14a.364.364,0,0,1-.14-.28c0-.14.49-.35.56-.7-.28.14-.56.35-.7.42-.28.21-.35.35-.35,1.261a3.349,3.349,0,0,1-.14,1.261,2.826,2.826,0,0,1,0,.771,5.687,5.687,0,0,1-.7.63l-.35-.56v-.14a.069.069,0,0,0,.07-.07,1.931,1.931,0,0,0,.49-.63,2.666,2.666,0,0,0,.21-1.261c0-1.261.07-1.261,1.261-1.891l-.21-1.541-.28.07a1.827,1.827,0,0,1-.771-.21c-.21-.07-.63-.42-.63-.7a1,1,0,0,0-.56-1.191.934.934,0,0,0-1.261.35.525.525,0,0,1-.35.07,1.463,1.463,0,0,1-1.331-.841l-.981.63a3.015,3.015,0,0,0-.49-.49c-.14-.07-.35-.42-.56-.35l-.42.42c-.07.07-.21.28-.28.35a3.248,3.248,0,0,0-.7-.7,1.307,1.307,0,0,1-.28-.21c0-.07.56-.14.49-.42-.07-.14-.35-.14-.42-.21a2.332,2.332,0,0,0-.42-.21l-.21-.49-.07.35-.28-.21v.35l-.28-.14.07.28-.35-.07.28.28-.49.07c.07.21.56.35.771.35v.14c.07.28.35.49.56.7l.07.35a2.851,2.851,0,0,1-.7.771c-.14.14-.28.21-.35.28-.21.21-.35.35-.35.42-.07,0-.35.28-.49.49a1.32,1.32,0,0,0-.14.56c-.07,0-.21.07-.28,0V19.2c0-.14-.14-.14-.14,0v.21c.07.21.28.21.49.21a.967.967,0,0,0,.21.28l.21.21c.07.21-.21.7-.35.841v.14a3.3,3.3,0,0,0,.14.35,3.516,3.516,0,0,1,.14.841l.21.21.07.21.07.07a.308.308,0,0,0,.35.07c.07,0,.07-.14.07-.14,0-.07-.28-.35-.35-.42a1.008,1.008,0,0,1-.14-.21,4.731,4.731,0,0,0-.14-.981,2.084,2.084,0,0,0,.49-.56,5.684,5.684,0,0,1,.42-.56q.105,0,.21.21a.547.547,0,0,1,0,.35l.14.14c.35.07.7.56.7.56l.42.07.14.14h.07a2.323,2.323,0,0,0,.7.981h.07l.7.49c.21.14.35.28.49.35a1.34,1.34,0,0,1,.07.7.531.531,0,0,0,.14.28c.07.07.21,0,.28-.07a2.445,2.445,0,0,1,.63-.42,1.649,1.649,0,0,1,.56.14l.771.21h0a2.653,2.653,0,0,0,1.051,0h0l.07.07c.21.07.35,0,.63-.07l.28.49c0,.07,0,.42.07.42.14,0,.63-.21.7-.21s0,.07,0,.21c0,.28-.14.28-.14.7l-.49.911c-.21,0-.35-.14-.56-.14a.706.706,0,0,0-.21.07v.07H54c.07,0,.07.07.14.07a.734.734,0,0,0-.42.21v.07c.07,0,.28-.14.42-.14h.21l-.14.28.07.07a.493.493,0,0,1,.35-.28A3.808,3.808,0,0,1,54.908,27.47ZM48.6,16.682c.07-.21.21-.35.28-.35.21,0,.56.49.63.56a5.112,5.112,0,0,1,.14,1.051,1.068,1.068,0,0,1-.35.63,7.26,7.26,0,0,0-.07-1.121c-.07-.14-.63-.14-.911-.14v-.07C48.323,17.172,48.533,16.892,48.6,16.682Zm-.841,4.063v.28h0a2.155,2.155,0,0,1-.63-.28,1.32,1.32,0,0,1-.28-.63,1.464,1.464,0,0,0-.14-.911,11.851,11.851,0,0,0,1.261-1.191l.63-.14c.14,0,.14,0,.14.14l.14.771a.706.706,0,0,1-.07.21A2.248,2.248,0,0,0,47.763,20.745Zm5.954,2.312a1.475,1.475,0,0,1-.911.35.632.632,0,0,1-.35-.07l-.63-.07a4.908,4.908,0,0,0-.981-.21h-.21l-.07-.07a2.8,2.8,0,0,0-.841-.7l-.49-.35a1.462,1.462,0,0,1-.56-1.121,1.32,1.32,0,0,1,.14-.56,1.987,1.987,0,0,1,.63-.7,5.688,5.688,0,0,0,.7-.63c0-.07.07-.07.07-.14l.07-.14a1.039,1.039,0,0,0,.07-.49,1.543,1.543,0,0,0-.07-.56v-.14l.14-.07a1.008,1.008,0,0,1,.21-.14l.14-.07.14.14a1.442,1.442,0,0,0,.63.35,2.045,2.045,0,0,0,.63.14.683.683,0,0,0,.63-.28.385.385,0,0,1,.35-.21.257.257,0,0,1,.21.07c.07.07.28.14.28.35v.35c0,.56.63.911.841.981.07,0,.35.14.63.21h.14l.07.56-.14.14a1.493,1.493,0,0,0-.771.7l-.07.14h0v.14a2.628,2.628,0,0,0-.07.7v.42a1.508,1.508,0,0,1-.14.771C54,22.776,53.857,22.916,53.717,23.057Z" transform="translate(-17.009 -4.843)"/><rect class="c" width="8.757" height="0.701" transform="translate(17.583 7.285)"/><path class="c" d="M32.541,7.6a1.466,1.466,0,0,1,1.471-1.611,1.322,1.322,0,0,1,1.191.7,1.412,1.412,0,0,1,1.191-.7A1.508,1.508,0,0,1,37.865,7.6h.841a2.2,2.2,0,0,0-2.172-2.382,2.613,2.613,0,0,0-.841.14V2.832h1.261V2.061H35.693V.8h-.841V2.061H33.591v.771h1.261V5.353a2.034,2.034,0,0,0-.981-.21A2.157,2.157,0,0,0,31.7,7.525h.841Z" transform="translate(-13.206 -0.8)"/><path class="c" d="M32.4,12.8c.7,1.471,2.032,2.8,3.082,2.8.981,0,2.382-1.331,3.082-2.8h-.911c-.56,1.051-1.471,2.032-2.172,2.032s-1.611-.911-2.172-2.032Z" transform="translate(-13.416 -4.394)"/></g></g><path class="d" d="M10.3,30v0Z" transform="translate(-3.085 -8.984)"/><path class="d" d="M10.3,30v0Z" transform="translate(-3.085 -8.984)"/><g transform="translate(6.725 24.799)"><path class="b" d="M9.6,54.384A18.984,18.984,0,1,0,28.584,35.4,19,19,0,0,0,9.6,54.384Z" transform="translate(-9.6 -35.4)"/></g><g transform="translate(27.18 44.904)"><path class="e" d="M38.8,73.1a1.4,1.4,0,0,0,2.8,0Z" transform="translate(-38.8 -66.795)"/><path class="e" d="M44.442,73.38a1.626,1.626,0,0,1-.7-.28c-.21.35-2.032,3.222-2.242,3.573a2.746,2.746,0,0,0,.63.28,4.146,4.146,0,0,0,1.331.07,5.215,5.215,0,0,1,1.051,0,1.113,1.113,0,0,1,.7.771s.21-.14.35-.21l-.28-4.133A3.41,3.41,0,0,1,44.442,73.38Z" transform="translate(-39.609 -66.795)"/><path class="e" d="M51.549,66.9h0a.553.553,0,0,0,.56-.56.6.6,0,0,0-.56-.56.553.553,0,0,0-.56.56v.07c-1.051.07-3.152.14-4.553-.911a.8.8,0,0,0,.21-.56.841.841,0,0,0-1.681,0,.8.8,0,0,0,.21.56c-1.4,1.051-3.5.981-4.553.911v-.07a.56.56,0,1,0-.56.56h4.764l.771,10.368a.21.21,0,0,0,.42,0L46.785,66.9Z" transform="translate(-39.01 -64.1)"/><path class="e" d="M51.131,74.45a1.97,1.97,0,0,0-.771-.35h-.21l-.35,4.343a10.28,10.28,0,0,0,1.051.63,2.624,2.624,0,0,0,.56.07s1.471-3.363,1.681-3.923a4.821,4.821,0,0,1-.911-.14A4.594,4.594,0,0,1,51.131,74.45Z" transform="translate(-42.094 -67.095)"/><path class="e" d="M55.8,74.5a1.405,1.405,0,0,0,1.4-1.4H54.4A1.405,1.405,0,0,0,55.8,74.5Z" transform="translate(-43.472 -66.795)"/></g><g transform="translate(27.391 28.932)"><path class="e" d="M48.169,44.382a1.541,1.541,0,0,0,0-3.082A1.5,1.5,0,0,0,46.7,42.841,1.417,1.417,0,0,0,48.169,44.382Zm0-2.032a.56.56,0,1,1-.56.56A.553.553,0,0,1,48.169,42.351Z" transform="translate(-41.374 -41.3)"/><path class="e" d="M43.1,58.392h1.051V55.8L43.1,57.621Z" transform="translate(-40.298 -45.642)"/><path class="e" d="M46.13,52.6l-.63,1.051v3.783h1.051V53.581a.35.35,0,0,1,.7,0v3.853H48.3V53.581a.35.35,0,0,1,.7,0v3.853h1.051V53.651l-.63-1.051Z" transform="translate(-41.017 -44.684)"/><path class="e" d="M45.434,46.09a2.516,2.516,0,0,1-.7-.49C43.472,48.822,40.6,56.178,40.6,56.178l.14.07,5.254-9.177Z" transform="translate(-39.549 -42.588)"/><path class="e" d="M41.622,51.312c0-.63-.28-.981-.841-.981a.443.443,0,0,0-.49.49.327.327,0,0,0,.35.35.28.28,0,1,1,0,.56.958.958,0,0,1-.981-.981A1.05,1.05,0,0,1,40.781,49.7a1.41,1.41,0,0,1,1.331.841L42.743,49H41.061A1.769,1.769,0,0,0,39.1,50.821a1.48,1.48,0,0,0,1.471,1.471A.907.907,0,0,0,41.622,51.312Z" transform="translate(-39.1 -43.606)"/><path class="e" d="M49.492,50.921,48.441,49.1h-.49L46.9,50.921Z" transform="translate(-41.436 -43.636)"/><path class="e" d="M52.9,58.392h1.051v-.771L52.9,55.8Z" transform="translate(-43.233 -45.642)"/><path class="e" d="M56.943,50.921A1.769,1.769,0,0,0,54.981,49.1H53.3l.63,1.541a1.313,1.313,0,0,1,1.331-.841,1.093,1.093,0,0,1,1.121,1.051.958.958,0,0,1-.981.981.28.28,0,0,1,0-.56.327.327,0,0,0,.35-.35.526.526,0,0,0-.49-.49c-.49,0-.841.35-.841.981a.993.993,0,0,0,1.051,1.051A1.593,1.593,0,0,0,56.943,50.921Z" transform="translate(-43.353 -43.636)"/><path class="e" d="M48.74,46.3H48.6l5.674,9.947.14-.07S51.542,48.892,50.281,45.6A2.007,2.007,0,0,1,48.74,46.3Z" transform="translate(-41.945 -42.588)"/></g><g transform="translate(10.998 27.531)"><path class="e" d="M17.64,50.93a2.268,2.268,0,0,0,1.191,1.751c.35.28.841.49,1.051.841l1.191-.35s.49-.35.7-.49a2.268,2.268,0,0,0,1.191-1.751V50.3H17.5v.63Z" transform="translate(-16.239 -42.594)"/><path class="e" d="M20.242,56.121l1.821-.49c.14-.07.28-.21.21-.35,0-.21-.21-.28-.35-.28l-1.821.49c-.14.07-.28.21-.21.35C19.892,56.121,20.1,56.191,20.242,56.121Z" transform="translate(-16.95 -44.002)"/><path class="e" d="M22.024,56.889l-1.821.49c-.14.07-.28.21-.21.35s.21.28.35.21l1.821-.49c.14-.07.28-.21.21-.35C22.3,56.889,22.164,56.819,22.024,56.889Z" transform="translate(-16.98 -44.56)"/><path class="e" d="M28.594,39.3H26.912v3.433H23.9v1.681h3.012v9.807h1.681V44.414h3.012V42.733H28.594Z" transform="translate(-18.156 -39.3)"/><path class="e" d="M19.133,47.94a6.941,6.941,0,0,0-1.261-.14A2.277,2.277,0,0,0,15.7,50.182c0,1.751,1.4,2.592,2.592,3.012a.643.643,0,0,1,.42-.28h.07a12.2,12.2,0,0,1-1.261-.841A2.234,2.234,0,0,1,16.4,50.182,1.587,1.587,0,0,1,17.942,48.5a4.874,4.874,0,0,1,1.121.14c.28.07.7.42,1.121.42a1.341,1.341,0,0,0,1.051-.35l.07-.28a1.957,1.957,0,0,0-1.121-.56A8.356,8.356,0,0,0,19.133,47.94Zm1.261.42a.14.14,0,1,1-.14-.14A.151.151,0,0,1,20.394,48.36Z" transform="translate(-15.7 -41.846)"/><path class="e" d="M21.261,58.7l-.841.21c-.35.35-1.121.7-1.121,1.051v.07h3.222v-.07C22.522,59.541,21.332,59.05,21.261,58.7Z" transform="translate(-16.778 -45.11)"/></g><g transform="translate(2.102 20.105)"><path class="b" d="M13.561,81.768c-.07-.07-.21-.28-.42-.49-.07-.07-.07-.07-.14,0v.07c.21.28.21.28-.28.7L11.18,83.379c-.07.07-.07.07-.14-.07-.28-.28-.21-.63.14-.981a.567.567,0,0,1,.841,0,.217.217,0,0,0,.14.07c.07-.07,0-.14-.07-.14a.946.946,0,0,0-1.4-.14c-.42.35-.28.841.07,1.261.14.14.28.35.42.42.07.07.21.28.35.42.07.07.07.07.14.07v-.14c-.14-.14-.14-.28.07-.42l1.541-1.261c.42-.35.49-.35.63-.14,0,.07.07.07.07,0v-.14Z" transform="translate(-5.225 -44.43)"/><path class="b" d="M10.382,77.12a1.622,1.622,0,0,0-2.312-.63,1.522,1.522,0,0,0-.49,2.242,1.589,1.589,0,0,0,2.242.63A1.482,1.482,0,0,0,10.382,77.12ZM7.86,78.732a1.248,1.248,0,0,1,.63-1.751c.981-.63,1.471-.07,1.611.14a1.291,1.291,0,0,1-.63,1.821A1.113,1.113,0,0,1,7.86,78.732Z" transform="translate(-4.287 -42.935)"/><path class="b" d="M8.1,73.25a.069.069,0,0,0,.07.07c.07,0,.07-.07,0-.14a2.755,2.755,0,0,1-.14-.42c0-.07-.07-.21-.14-.49-.07-.07-.07-.07-.14-.07v.07c.07.21.07.35-.35.49l-1.541.56,1.331-2.8a.245.245,0,0,1,.07-.14c0-.07-.07-.07-.14,0l-2.452.841c-.21.07-.35.07-.42-.14a.069.069,0,0,0-.07-.07c-.07,0-.07.07,0,.14,0,.21.07.35.14.35a2.856,2.856,0,0,0,.14.49c0,.07.07.14.07.07.07,0,.07-.07,0-.07-.07-.28-.07-.35.21-.42l1.681-.63-1.4,2.732c0,.07-.07.14-.07.21s.07.07.14,0L7.47,73.11C7.96,72.969,8.03,73.04,8.1,73.25Z" transform="translate(-3.337 -41.166)"/><path class="b" d="M4.181,68.8c.07,0,.07,0,.07-.07a.069.069,0,0,0-.07-.07c-.14,0-.28-.07-.35-.42l-.07-.56,2.032-.35c.63-.14.7-.07.7.14,0,.07,0,.07.07.07s.07-.07.07-.14c0-.14-.07-.42-.07-.49,0-.14-.07-.35-.07-.63a.07.07,0,0,0-.14,0c.07.35,0,.35-.63.49l-1.961.35-.07-.49c-.07-.35,0-.49.21-.49a.069.069,0,0,0,.07-.07C3.83,66,3.83,66,3.76,66s-.42.07-.49.07-.07,0-.07.07a2.945,2.945,0,0,1,.14.35l.28,1.821v.35c0,.07,0,.07.07.07C3.69,68.8,4.041,68.8,4.181,68.8Z" transform="translate(-3.06 -39.87)"/><path class="b" d="M3.21,64.2c0-.21.07-.28.21-.28a5.836,5.836,0,0,0,.841-.07H5.872c.21,0,.21.07.21.21,0,.07,0,.07.07.07s.07-.07.07-.14c0-.14,0-.42-.07-.49v-.63c0-.07,0-.07-.07-.07a.069.069,0,0,0-.07.07c0,.21,0,.35-.21.35-.14,0-.49.07-.911.07h-.7c-.63,0-.7.07-.841,0-.21,0-.21-.07-.21-.28,0-.07,0-.07-.07-.07a.245.245,0,0,0-.07.14v1.051c0,.07,0,.14.07.14C3.21,64.341,3.21,64.271,3.21,64.2Z" transform="translate(-3 -38.912)"/><path class="b" d="M3.17,60.5a.069.069,0,0,0,.07-.07c0-.28.07-.35.49-.28l1.751.07c.56.07.56.07.56.28,0,.07,0,.07.07.07s.07,0,.07-.07v-.49c0-.14.07-.35.07-.63,0-.07,0-.14-.07-.14s-.07,0-.07.07c0,.28,0,.35-.63.35l-.63-.07h0c0-.07.07-.49.07-.56,0-.14.14-.21.28-.21.07,0,.07,0,.07-.07a.069.069,0,0,0-.07-.07,3.772,3.772,0,0,1-.56-.07.069.069,0,0,0-.07.07c0,.07.14.07.07.28l-.07.7h0l-1.121-.14h0l.07-.63c0-.14.07-.21.14-.21H3.8c.07,0,.07,0,.07-.07s0-.07-.07-.07-.28-.07-.35-.07-.07,0-.14-.07h0a.069.069,0,0,0-.07.07v.07h0v.21c0,.07-.07.911-.07,1.051s-.07.35-.07.56C3.1,60.432,3.1,60.5,3.17,60.5Z" transform="translate(-3.03 -37.594)"/><path class="b" d="M3.64,56.421c.07-.21.14-.21.28-.21s.21.07.841.14l.7.14a3.493,3.493,0,0,1,.841.21c.14.07.21.14.14.28v.07c.07,0,.07,0,.07-.07a.755.755,0,0,0,.14-.49,3.553,3.553,0,0,1,.14-.63c0-.07,0-.14-.07-.14s-.07,0-.07.07c-.07.21-.07.35-.28.28-.14,0-.49-.07-.911-.14l-.7-.14a3.384,3.384,0,0,0-.841-.14c-.07-.07-.14-.14-.07-.28,0-.07,0-.07-.07-.07a.069.069,0,0,0-.07.07c0,.14-.07.42-.07.49a1.3,1.3,0,0,1-.14.49v.14C3.64,56.491,3.64,56.491,3.64,56.421Z" transform="translate(-3.15 -36.666)"/><path class="b" d="M5.883,52.752c1.121.42,1.891-.28,2.242-1.261a3.615,3.615,0,0,0,.14-.771c0-.07,0-.14-.07-.14a4.02,4.02,0,0,0-.49-.28h-.07c0,.07,0,.07.07.07.28.21.35.42.14.981-.21.7-.841,1.051-1.751.7-.7-.28-1.121-.771-.841-1.471.14-.42.49-.841.911-.7H6.3c0-.07,0-.07-.07-.07a.751.751,0,0,0-.42-.14c-.14-.07-.14-.07-.21-.07s-.07,0-.07.07c-.07.21-.28.49-.42.911A1.471,1.471,0,0,0,5.883,52.752Z" transform="translate(-3.571 -34.959)"/><path class="b" d="M6.518,47.361c.14-.21.21-.21.35-.14s.21.14.771.42l.56.35c.35.21.63.35.771.42s.14.14.07.28v.07a.217.217,0,0,0,.14-.07,2.543,2.543,0,0,0,.21-.49,2.054,2.054,0,0,0,.28-.56V47.5a.069.069,0,0,0-.07.07c-.07.21-.21.28-.35.21s-.42-.21-.771-.42l-.63-.35c-.56-.28-.63-.35-.771-.42s-.14-.14-.07-.35V46.1a.069.069,0,0,0-.07.07c-.14.35-.21.56-.28.7s-.21.35-.28.49c-.07.07-.07.14,0,.14Z" transform="translate(-3.996 -33.911)"/><path class="b" d="M10.611,45.692c.14.28.21.35,0,.56v.07c.07,0,.07,0,.14-.07a4.29,4.29,0,0,0,.28-.42,1.528,1.528,0,0,0,.28-.35c0-.07.07-.07,0-.14-.07,0-.07,0-.14.07-.07.14-.14.14-.21.07-.07,0-.07-.07-.14-.21l-.21-.35v-.07l.56-.841h.07l.7.21c.07,0-.07.21-.07.21v.07a.217.217,0,0,0,.14-.07c.07-.07.21-.28.28-.35s.21-.21.21-.28a.542.542,0,0,0,.07-.21H12.5c-.14.14-.35.14-.63.07-.63-.14-2.382-.56-2.662-.56H9c0,.07,0,.07.07.21ZM9.7,43.73h0l1.191.35-.49.7L9.7,43.73Z" transform="translate(-4.797 -33.012)"/><path class="b" d="M16.692,36.541l-.7-.841c-.28-.28-.28-.35-.07-.56.07-.07.07-.07,0-.14h-.14c-.14.07-.21.21-.35.28-.07.07-.21.14-.35.28-.07.07-.07.07-.07.14h.14c.21-.21.28-.14.56.14l.7.841c.49.63.63,1.051.14,1.4-.56.42-.981.14-1.331-.35l-.7-.7c-.28-.28-.28-.35-.07-.56.07-.07.07-.07,0-.07h-.14a.844.844,0,0,0-.35.35,2.966,2.966,0,0,1-.49.35c-.07.07-.07.07-.07.14h.07c.21-.21.28-.14.56.14l.771.911a1.193,1.193,0,0,0,1.891.21C17.463,37.942,17.323,37.242,16.692,36.541Z" transform="translate(-6.115 -30.587)"/><path class="b" d="M20.208,35.47c.21.35.14.42-.07.49a.069.069,0,0,0-.07.07c0,.07.07.07.14,0a.987.987,0,0,0,.35-.21,1.08,1.08,0,0,1,.49-.21c.07,0,.07-.07.07-.14h-.07c-.21.14-.35.14-.56-.21l-.841-1.471,2.942.841h.21c.07,0,.07-.07,0-.14l-1.191-2.312c-.14-.21-.14-.35.07-.42a.069.069,0,0,0,.07-.07c0-.07-.07,0-.14,0-.21.07-.28.21-.35.21a2.332,2.332,0,0,1-.42.21c-.07.07-.07.07-.07.14s.07,0,.07,0c.21-.14.35-.14.49.14l.911,1.541L19.3,33.018c-.07,0-.21-.07-.21,0-.07,0,0,.07,0,.14Z" transform="translate(-7.808 -29.585)"/><path class="b" d="M24.458,31.12c.21-.07.28,0,.35.14s.07.21.28.841l.21.7c.14.35.21.7.28.841.07.21,0,.21-.14.28a.069.069,0,0,0-.07.07c0,.07.07.07.14,0a3.416,3.416,0,0,0,.49-.21,2.117,2.117,0,0,1,.63-.21.069.069,0,0,0,.07-.07c0-.07-.07-.07-.07,0-.21.07-.35.07-.42-.07s-.21-.49-.35-.841l-.21-.7a3.345,3.345,0,0,1-.28-.841c-.07-.14,0-.21.14-.28a.069.069,0,0,0,.07-.07h-.14c-.14.07-.35.14-.49.21a1.3,1.3,0,0,1-.49.14c-.07,0-.14.07-.07.07Z" transform="translate(-9.396 -29.299)"/><path class="b" d="M30.492,29.14c.07,0,.07,0,.07-.07s-.07-.07-.14-.07c-.14,0-.21.07-.35.07a1.041,1.041,0,0,0-.42.07.245.245,0,0,0-.14.07s.07.07.07,0h.21v.14l-.35,2.1-.981-1.4c-.07-.14-.14-.21-.14-.28a.151.151,0,0,1,.14-.14c.07,0,.07,0,.07-.07s-.07-.07-.14,0c-.21.07-.42.07-.49.14a2.166,2.166,0,0,0-.56.14.245.245,0,0,0-.14.07.069.069,0,0,0,.07.07.389.389,0,0,1,.49.21L29.372,32.5l.14.14c.07,0,.07-.07.14-.21l.56-2.662C30.282,29.28,30.352,29.21,30.492,29.14Z" transform="translate(-10.247 -28.79)"/><path class="b" d="M35.372,31.222c-.07,0-.07,0-.07.07a.364.364,0,0,1-.14.28c-.07.07-.42.07-.49.07-.28,0-.35,0-.35-.28a5.447,5.447,0,0,0-.07-.911h.56c.21,0,.21.14.28.28a.07.07,0,0,0,.14,0v-.56c0-.07,0-.07-.07-.07l-.07.07a.85.85,0,0,1-.35.07h-.42l-.07-1.121h0c.771-.07.841,0,.911.21a.069.069,0,0,0,.07.07c.07,0,.07,0,.07-.07v-.56a.069.069,0,0,0-.07-.07.307.307,0,0,1-.21.07c-.07,0-.911.07-1.051.07h-.63c-.07,0-.14,0-.14.07s0,.07.07.07c.21,0,.35,0,.35.21a6.587,6.587,0,0,0,.07.841l.07.7v.56c0,.49,0,.49-.21.49-.07,0-.07,0-.07.07s0,.07.07.07c.14,0,.42-.07.49-.07a7.614,7.614,0,0,0,1.261-.07.151.151,0,0,0,.14-.14v-.49C35.442,31.222,35.442,31.222,35.372,31.222Z" transform="translate(-12.044 -28.7)"/><path class="b" d="M37.64,31.852h.49a5.432,5.432,0,0,0,.63.07c.07,0,.07,0,.07-.07s0-.07-.07-.07c-.35,0-.35-.14-.35-.56l.07-.63h0l.35.07a.069.069,0,0,1,.07.07,3.91,3.91,0,0,0,.35.56c.28.49.49.7.981.771l.42.07c.07,0,.07,0,.07-.07s0-.07-.07-.07c-.35,0-.56-.28-1.331-1.471a1.339,1.339,0,0,0,.63-.841c.07-.56-.49-.771-.981-.841a1.542,1.542,0,0,1-.56-.07c-.07,0-.35-.07-.56-.07-.07,0-.14,0-.14.07s0,.07.07.07c.35,0,.35.07.28.49l-.21,1.961c-.07.42-.07.49-.28.49-.07,0-.07,0-.07.07Zm.981-2.732s0-.07.21,0c.35,0,.56.35.56.771a.572.572,0,0,1-.56.63c-.21,0-.35-.07-.35-.14Z" transform="translate(-13.332 -28.7)"/><path class="b" d="M44.421,32.134c.21-.911-.911-1.331-.771-1.961a.443.443,0,0,1,.56-.28c.28.07.49.35.42.56,0,.07,0,.07.07.14.07,0,.07,0,.07-.14.07-.28.14-.42.14-.49a.069.069,0,0,0-.07-.07,1.535,1.535,0,0,0-.56-.21c-.56-.14-1.051.07-1.121.56-.21.911.911,1.261.771,1.961a.444.444,0,0,1-.63.28.519.519,0,0,1-.42-.7c0-.07,0-.07-.07-.07s-.07,0-.07.07l-.14.56c0,.14.21.28.63.35A.841.841,0,0,0,44.421,32.134Z" transform="translate(-14.859 -28.981)"/><path class="b" d="M47.331,33.922c0-.07,0-.07-.07-.07-.21-.07-.28-.14-.28-.28.07-.14.14-.49.28-.841l.28-.7a5.719,5.719,0,0,0,.28-.771c.07-.14.14-.21.35-.14h.07a.069.069,0,0,0-.07-.07,1.3,1.3,0,0,0-.49-.14c-.14-.07-.35-.14-.49-.21h-.14c0,.07,0,.07.07.07.21.07.21.14.14.28s-.07.21-.28.841l-.28.7c-.14.35-.28.7-.35.841s-.14.14-.28.14H46c0,.07,0,.07.07.07a1.782,1.782,0,0,0,.49.14,2.372,2.372,0,0,0,.56.21C47.261,33.992,47.331,33.992,47.331,33.922Z" transform="translate(-15.877 -29.299)"/><path class="b" d="M49,34.569a.069.069,0,0,0,.07.07,1.484,1.484,0,0,0,.49.21c.21.07.49.35.771.49a1.625,1.625,0,0,0,2.382-.49c.56-.981,0-1.751-1.051-2.312a4.129,4.129,0,0,0-.56-.28,3.047,3.047,0,0,0-.49-.28c-.07-.07-.14-.07-.14,0a.069.069,0,0,0,.07.07c.21.14.28.21.14.35-.07.14-.14.21-.42.771l-.35.63c-.49.911-.56.911-.7.841A.542.542,0,0,0,49,34.569Zm1.191-.21.911-1.681c.07-.14.07-.14.35,0a1.4,1.4,0,0,1,.7,1.961c-.49.841-1.051.981-1.751.56C49.911,34.92,49.911,34.85,50.191,34.359Z" transform="translate(-16.776 -29.666)"/><path class="b" d="M56.152,39.2c.21-.63.771-2.312.841-2.592V36.4a.542.542,0,0,0-.21.07L54.33,37.8c-.28.14-.42.14-.56,0,0,0-.07-.07-.07,0a.217.217,0,0,0,.07.14,2.738,2.738,0,0,0,.35.28,1.529,1.529,0,0,0,.35.28c.07,0,.07.07.14,0a.217.217,0,0,0-.07-.14.257.257,0,0,1-.07-.21,1.008,1.008,0,0,0,.21-.14l.42-.21h.07l.771.63v.07l-.21.7c0,.07-.21-.07-.21-.07h-.07a.217.217,0,0,0,.07.14c.07.07.28.21.35.28l.28.28c.14.14.21.14.21.07v-.07C56.012,39.692,56.082,39.412,56.152,39.2Zm-.28-.981-.7-.56,1.051-.63h0Z" transform="translate(-18.183 -31.006)"/><path class="b" d="M58.711,42.292a1.655,1.655,0,0,0,2.452.35c.841-.7.63-1.611-.14-2.592-.14-.21-.35-.35-.42-.49a4.774,4.774,0,0,1-.35-.49c-.07-.07-.07-.07-.14-.07v.14a.263.263,0,0,1,0,.42,6.585,6.585,0,0,0-.63.56l-.56.49c-.771.63-.841.7-.981.56-.07-.07-.07-.07-.14-.07v.14a2.221,2.221,0,0,0,.35.42C58.36,41.732,58.571,42.082,58.711,42.292Zm.28-.981,1.471-1.191c.07-.07.14-.07.35.14a1.456,1.456,0,0,1-.07,2.1,1.153,1.153,0,0,1-1.821-.14C58.571,41.732,58.641,41.592,58.991,41.312Z" transform="translate(-19.411 -31.785)"/><path class="b" d="M64.026,50.8c.07.07.07.07.14.07.14,0,.49-.14.56-.14a.069.069,0,0,0,.07-.07c0-.07-.07-.07-.14,0-.35.07-.56-.07-.771-.63a1.3,1.3,0,0,1,.771-1.751c.7-.28,1.331-.21,1.611.49.21.42.21.981-.14,1.121a.069.069,0,0,0-.07.07c0,.07.07.07.14,0,.07,0,.28-.14.42-.14a.542.542,0,0,1,.21-.07s.07-.07,0-.07a4.38,4.38,0,0,0-.28-.981,1.69,1.69,0,0,0-2.172-1.051,1.726,1.726,0,0,0-.771,2.452A3.062,3.062,0,0,0,64.026,50.8Z" transform="translate(-21.084 -34.341)"/><path class="b" d="M64.65,52.987h0c-.14-.07-.14,0-.07.07a2.856,2.856,0,0,1,.14.49c0,.14.07.28.07.42,0,.07,0,.07.07.07s.07-.07,0-.14c0-.14,0-.14.07-.21h.28l.42.07h0l.21.981v.07l-.63.42-.14-.21a.069.069,0,0,0-.07-.07c-.07,0-.07.07,0,.14a1,1,0,0,0,.14.42c0,.14.07.28.07.42.07.14.07.21.14.21s.07-.07,0-.07c-.07-.21.14-.35.35-.49.56-.42,1.961-1.471,2.172-1.611l.14-.14c0-.07-.07-.07-.21-.07l-2.732-.35A.52.52,0,0,1,64.65,52.987Zm2.522.981h0l-1.051.7-.21-.841Z" transform="translate(-21.428 -35.964)"/><path class="b" d="M68.322,57.5c-.07,0-.07,0-.07.07s0,.07.07.07c.14,0,.28.07.28.42l.07.56-2.032.21c-.63.07-.7,0-.7-.21,0-.07,0-.07-.07-.07s-.07,0-.07.07c0,.14.07.42.07.49a2.414,2.414,0,0,0,.07.63c0,.07,0,.07.07.07a.069.069,0,0,0,.07-.07c0-.35,0-.35.7-.42l1.961-.07v.49c0,.35-.07.49-.21.49a.07.07,0,0,0,0,.14h.49c.07,0,.14,0,.07-.07a1.017,1.017,0,0,1-.07-.42l-.14-1.821a.85.85,0,0,1,.07-.35c0-.07,0-.07-.07-.07A1.32,1.32,0,0,0,68.322,57.5Z" transform="translate(-21.807 -37.325)"/><path class="b" d="M69.611,65.049s-.35-.63-.49-.841A1.608,1.608,0,0,0,67.649,62.6,1.574,1.574,0,0,0,65.9,64.138a1.735,1.735,0,0,0,1.541,1.891,1.524,1.524,0,0,0,1.681-1.471,7.688,7.688,0,0,0,.21.771c0,.07.07.07.14.07a.217.217,0,0,1,.14-.07Zm-.7-.7A1.288,1.288,0,0,1,67.369,65.4c-1.191-.07-1.261-.771-1.191-1.051a1.345,1.345,0,0,1,1.611-1.121A1.05,1.05,0,0,1,68.91,64.348Z" transform="translate(-21.835 -38.849)"/><path class="b" d="M68.143,69.171c-.07.28-.14.28-.63.14l-1.541-.42c-.63-.14-.7-.21-.63-.42V68.4c-.07,0-.07,0-.07.07-.07.14-.07.42-.14.49a8.966,8.966,0,0,1-.35,1.191c-.07.21-.07.28.07.28.14.07.49.21.49.21h.07c0-.07,0-.07-.07-.07-.28-.14-.35-.21-.21-.63.14-.49.21-.56.7-.42l1.541.42c.49.14.49.14.42.42,0,.07,0,.07.07.07a.069.069,0,0,0,.07-.07c.07-.14.07-.42.14-.56,0-.14.14-.35.14-.56V69.1Z" transform="translate(-21.488 -40.589)"/><path class="b" d="M66.892,73.621c-.07.21-.14.21-.28.14s-.21-.07-.841-.28l-.7-.28c-.35-.14-.7-.28-.841-.35s-.14-.14-.07-.28V72.5c-.07,0-.07,0-.07.07a3.415,3.415,0,0,1-.21.49c-.07.07-.14.35-.28.56v.14c.07,0,.07,0,.07-.07.07-.21.14-.28.28-.28.14.07.49.14.841.28l.7.28a2.558,2.558,0,0,1,.771.35c.14.07.21.14.14.35v.14a.069.069,0,0,0,.07-.07c.07-.14.14-.35.21-.49s.14-.35.21-.49v-.14Z" transform="translate(-21.148 -41.817)"/><path class="b" d="M64.032,76.3a1.752,1.752,0,0,0-2.452.841,1.479,1.479,0,0,0-.28.7c0,.07,0,.14.07.14a.934.934,0,0,0,.42.35h.07c0-.07,0-.07-.07-.14-.28-.28-.28-.49,0-.981a1.311,1.311,0,0,1,1.891-.42c.63.42.911.981.56,1.611-.21.42-.63.771-1.051.56-.07-.07-.14-.07-.14,0s0,.07.07.14.28.14.35.21c.14.07.14.14.21.14a.069.069,0,0,0,.07-.07c.14-.21.35-.42.63-.841A1.389,1.389,0,0,0,64.032,76.3Z" transform="translate(-20.459 -42.883)"/><path class="b" d="M59.982,80.03c-.14-.28-.14-.42,0-.56,0,0,.07-.07,0-.07a.217.217,0,0,0-.14.07,2.738,2.738,0,0,0-.28.35,1.528,1.528,0,0,0-.28.35c0,.07-.07.07,0,.14a.217.217,0,0,0,.14-.07.257.257,0,0,1,.21-.07,1.007,1.007,0,0,0,.14.21l.21.42v.07l-.63.63h-.07l-.7-.21c-.07,0,.07-.21.07-.21v-.07a.217.217,0,0,0-.14.07c-.07.07-.21.28-.28.35l-.28.28c-.14.14-.14.21-.07.21h.07c.14-.14.35-.07.63,0,.63.21,2.312.771,2.592.841h.21a.542.542,0,0,0-.07-.21Zm-.42,1.541.56-.63.63,1.051h0Z" transform="translate(-19.421 -43.883)"/><path class="b" d="M20.062,87.078a6.456,6.456,0,0,0-.56-.35,4.775,4.775,0,0,0-.49-.35c-.07-.07-.14-.07-.14,0a.069.069,0,0,0,.07.07c.21.14.21.21.14.35s-.14.21-.42.771l-.35.63c-.56.911-.56.911-.771.841-.07-.07-.14-.07-.14,0a.217.217,0,0,0,.07.14,2.18,2.18,0,0,1,.42.28c.14.07.49.35.7.49a1.649,1.649,0,0,0,2.452-.42C21.6,88.549,21.113,87.709,20.062,87.078Zm.42,2.172c-.49.771-1.051.911-1.751.42-.42-.28-.42-.35-.14-.841l.981-1.611c.07-.14.07-.14.35,0A1.5,1.5,0,0,1,20.482,89.25Z" transform="translate(-7.312 -45.957)"/><path class="b" d="M26.262,90.16a8.5,8.5,0,0,1-.981-.35,4.829,4.829,0,0,0-.56-.21h-.14c0,.07,0,.07.07.07.21.07.28.14.21.35-.07.14-.07.21-.28.841l-.28.7a4.826,4.826,0,0,1-.21.56c-.14.42-.21.49-.42.35H23.6c0,.07,0,.07.07.07a1.783,1.783,0,0,0,.49.14c.42.14.771.28,1.191.42a.257.257,0,0,0,.21-.07c.07-.07.14-.35.21-.42v-.14c-.07,0-.07,0-.07.07-.07.14-.14.21-.28.21a1.012,1.012,0,0,1-.49-.14c-.28-.07-.28-.14-.21-.42.07-.14.14-.42.35-.911h0a3.415,3.415,0,0,0,.49.21c.21.07.14.21.14.35v.07c.07,0,.07,0,.07-.07a4.663,4.663,0,0,1,.21-.49v-.07h-.14a.937.937,0,0,1-.35-.07,1.453,1.453,0,0,0-.42-.14V91l.35-1.051h0c.771.28.771.28.7.56v.07c.07,0,.07,0,.07-.07a1.822,1.822,0,0,0,.21-.49v-.07C26.472,90.23,26.4,90.23,26.262,90.16Z" transform="translate(-9.169 -46.938)"/><path class="b" d="M34.536,91.907a5.483,5.483,0,0,0-.981-.21c-.981-.07-1.891.35-1.961,1.331-.14,1.191.771,1.751,1.751,1.891a2.825,2.825,0,0,0,.771,0c.07,0,.07-.07.14-.14a2.165,2.165,0,0,0,.14-.56c0-.07,0-.07-.07-.07s-.07,0-.07.07c-.14.35-.35.42-.911.42A1.287,1.287,0,0,1,32.224,93.1c.07-.771.49-1.261,1.261-1.191.49.07.981.28.911.7,0,.07,0,.14.07.14s.07,0,.07-.07.07-.28.07-.42a.307.307,0,0,1,.07-.21Z" transform="translate(-11.559 -47.564)"/><path class="b" d="M41.3,94.412c-.21,0-.35,0-.35-.14-.07-.21-.07-.49-.14-.841l-.07-.7a8.138,8.138,0,0,1-.07-.911c0-.21.07-.21.21-.28.07,0,.07,0,.07-.07s-.07-.07-.14-.07c-.14,0-.42.07-.49.07a1.741,1.741,0,0,0-.56.07c-.07,0-.14,0-.07.07a.069.069,0,0,0,.07.07c.21,0,.28,0,.35.21a4.736,4.736,0,0,1,.07.841v.21h0l-1.541.14h0v-.14a6.586,6.586,0,0,1-.07-.841c0-.21.07-.21.21-.28.07,0,.07,0,.07-.07s-.07-.07-.14-.07c-.14,0-.42.07-.49.07a1.741,1.741,0,0,0-.56.07c-.07,0-.14,0-.07.07a.069.069,0,0,0,.07.07c.21,0,.28,0,.35.21a6.586,6.586,0,0,0,.07.841l.07.7a4.374,4.374,0,0,1,.07.841c0,.21,0,.21-.21.28-.07,0-.07,0-.07.07s.07.07.14.07c.14,0,.42-.07.49-.07a2.413,2.413,0,0,0,.63-.07c.07,0,.07,0,.07-.07a.069.069,0,0,0-.07-.07c-.21,0-.35,0-.35-.14a6.785,6.785,0,0,1-.14-.841V93.5h0l1.541-.14h0v.28a4.375,4.375,0,0,1,.07.841c0,.21,0,.21-.21.28-.07,0-.07,0-.07.07a.245.245,0,0,0,.14.07c.14,0,.42-.07.49-.07a2.413,2.413,0,0,0,.63-.07.069.069,0,0,0,.07-.07C41.44,94.412,41.37,94.412,41.3,94.412Z" transform="translate(-13.349 -47.477)"/><path class="b" d="M46.319,93.389c-.21.07-.35.07-.42-.07s-.14-.49-.28-.841l-.21-.7a2.094,2.094,0,0,1-.21-.841c-.07-.21,0-.21.21-.28a.069.069,0,0,0,.07-.07.1.1,0,0,0-.14,0,1.3,1.3,0,0,1-.49.14,1.3,1.3,0,0,0-.49.14c-.07,0-.14.07-.07.07,0,.07.07.07.07,0,.21-.07.28,0,.35.14s.07.21.28.841l.21.7a2.838,2.838,0,0,1,.21.841c.07.21,0,.21-.21.28a.069.069,0,0,0-.07.07c0,.07.07.07.14,0a1.782,1.782,0,0,1,.49-.14,5.7,5.7,0,0,0,.63-.14.069.069,0,0,0,.07-.07C46.389,93.319,46.389,93.319,46.319,93.389Z" transform="translate(-15.356 -47.224)"/><path class="b" d="M50.842,90.878a.069.069,0,0,0-.07-.07c-.07,0,0,.07,0,.07.07.28.07.42-.35.63-.49.21-.56.21-.771-.35l-.7-1.471c-.21-.49-.21-.49.07-.63a.069.069,0,0,0,.07-.07.1.1,0,0,0-.14,0,2.543,2.543,0,0,1-.49.21,3.419,3.419,0,0,1-.49.21.069.069,0,0,0-.07.07.1.1,0,0,0,.14,0c.28-.14.28-.07.49.35l.7,1.471c.28.63.28.7.07.771a.069.069,0,0,0-.07.07.1.1,0,0,0,.14,0,1.483,1.483,0,0,1,.49-.21c.28-.14.56-.21,1.121-.49.21-.07.21-.14.21-.21C50.982,91.3,50.842,90.948,50.842,90.878Z" transform="translate(-16.446 -46.745)"/><path class="b" d="M54.892,88.348a.069.069,0,0,0-.07-.07c-.07,0,0,.07,0,.07a.318.318,0,0,1,0,.35c-.07.07-.35.28-.42.35-.28.14-.28.21-.42-.07a8.07,8.07,0,0,1-.49-.771h0a3.045,3.045,0,0,1,.49-.28c.14-.14.28,0,.35.14,0,0,.07.07.07,0,.07,0,0-.07,0-.14-.14-.21-.21-.42-.28-.49h-.07a.217.217,0,0,1-.07.14c0,.07-.07.14-.28.28-.14.07-.35.21-.35.21h-.07l-.63-.911h0c.63-.42.7-.42.841-.21,0,0,.07.07.07,0,.07,0,.07-.07,0-.07a5.439,5.439,0,0,1-.28-.49s-.07-.07-.07,0a.867.867,0,0,1-.21.14c-.07.07-.771.49-.841.56s-.35.21-.49.35c-.07.07-.07.07-.07.14h.14c.21-.14.28-.14.42,0a7.2,7.2,0,0,0,.49.7l.42.63a2.966,2.966,0,0,0,.35.49c.28.35.28.42.07.56a.069.069,0,0,0-.07.07h.14c.14-.07.35-.28.42-.28a9.127,9.127,0,0,0,1.051-.7c.07-.07.07-.07.07-.21A.8.8,0,0,0,54.892,88.348Z" transform="translate(-17.554 -45.966)"/></g><g transform="translate(7.887 44.291)"><path class="e" d="M19.93,70.125a1.976,1.976,0,0,0-.63.841,1.57,1.57,0,0,0,1.051-.14,1.976,1.976,0,0,0,.63-.841A1.563,1.563,0,0,0,19.93,70.125Z" transform="translate(-13.667 -65.239)"/><path class="e" d="M28.91,75.451a4.83,4.83,0,0,1,.7-.28l.07-1.471H28.7l.07,1.821C28.84,75.451,28.84,75.451,28.91,75.451Z" transform="translate(-16.482 -66.362)"/><path class="e" d="M17.33,70.826a1.563,1.563,0,0,0,1.051.14,1.472,1.472,0,0,0-.63-.841,1.563,1.563,0,0,0-1.051-.14A1.641,1.641,0,0,0,17.33,70.826Z" transform="translate(-12.888 -65.239)"/><path class="e" d="M26.962,69.261v.42h-.42v-.42a.331.331,0,0,0-.35-.35H24.3v.07a1.367,1.367,0,0,0,.07.49h1.261v.21H24.44a1.023,1.023,0,0,0,.981.63h.49v.42H24.86v.7h5.954v-.7H29.9v-.42h.49a1.023,1.023,0,0,0,.981-.63H30.184v-.21h1.261a1.192,1.192,0,0,0,.07-.49v-.07H29.624a.331.331,0,0,0-.35.35v.42h-.42v-.42a.613.613,0,0,1,.42-.63l.14-.07-.07-.07A2.387,2.387,0,0,0,27.8,68a2.327,2.327,0,0,0-1.471.49l-.14.07.14.07C26.822,68.7,26.962,68.981,26.962,69.261Z" transform="translate(-15.164 -64.655)"/><path class="e" d="M20.381,69.208a1.29,1.29,0,0,0,.42-.911,1.409,1.409,0,0,0-.981.28,1.29,1.29,0,0,0-.42.911A2.008,2.008,0,0,0,20.381,69.208Z" transform="translate(-13.697 -64.742)"/><path class="e" d="M14,67.8a2.741,2.741,0,0,0,2.452,2.8c.63.14.841.28.911.56h.63v-.21c0-.21-.14-.63-.911-.771a2.234,2.234,0,0,1-1.821-2.242,2.407,2.407,0,0,1,2.592-2.312,2.9,2.9,0,0,1,1.611.42l.14-.14A3.639,3.639,0,0,0,17.152,65,2.826,2.826,0,0,0,14,67.8Z" transform="translate(-12.08 -63.755)"/><path class="e" d="M18.238,66.92a1.444,1.444,0,0,0-.841-.42,1.205,1.205,0,0,0,.28.911,1.444,1.444,0,0,0,.841.42A1.676,1.676,0,0,0,18.238,66.92Z" transform="translate(-13.095 -64.206)"/><path class="e" d="M20.521,66.5a1.444,1.444,0,0,0-.841.42,1.676,1.676,0,0,0-.28.911,1.444,1.444,0,0,0,.841-.42A1.205,1.205,0,0,0,20.521,66.5Z" transform="translate(-13.697 -64.206)"/><path class="e" d="M17,68.2a1.762,1.762,0,0,0,.42.911,1.7,1.7,0,0,0,.981.35,1.762,1.762,0,0,0-.42-.911A1.7,1.7,0,0,0,17,68.2Z" transform="translate(-12.978 -64.715)"/><path class="e" d="M18.38,74.6l-.28,2.732a.786.786,0,0,0,1.541,0l-.28-2.732Z" transform="translate(-13.307 -66.632)"/><path class="e" d="M31.764,73.5c-.56,0-1.261.28-1.891,1.541a1.189,1.189,0,0,1-.42.42h0a4.665,4.665,0,0,1-.841.42c-.28.14-.63.28-.981.42A1.208,1.208,0,0,0,27,77.353a1.01,1.01,0,0,0,.56.911,2.458,2.458,0,0,1,.56-.35c-.28-.14-.49-.35-.49-.56,0-.28.28-.49.63-.7h0c.21-.07.42-.21.63-.28.28-.14.63-.28.911-.42a1.375,1.375,0,0,0,.63-.63,5.7,5.7,0,0,1,.56-.841c.21-.21.49,0,.911,0a1.017,1.017,0,0,0,.841-.35v-.14A1.436,1.436,0,0,0,31.764,73.5Zm.21.63a.14.14,0,1,1,.14-.14A.151.151,0,0,1,31.974,74.13Z" transform="translate(-15.973 -66.302)"/><ellipse class="e" cx="0.28" cy="0.28" rx="0.28" ry="0.28" transform="translate(12.428 10.701)"/><path class="e" d="M29.421,77.95a.657.657,0,0,1,.42.56c0,.28-.28.42-.63.63a.531.531,0,0,1-.28.14,6.392,6.392,0,0,0-.911.56h0a1,1,0,0,0-.42.841.855.855,0,0,0,.42.771,3.047,3.047,0,0,1,.49-.42.473.473,0,0,1-.28-.42c0-.14.07-.21.21-.35h0l.07-.07a4.184,4.184,0,0,1,.771-.42c.07-.07.14-.07.28-.14h0c.49-.28.981-.63.981-1.191a1,1,0,0,0-.42-.841A1.335,1.335,0,0,1,29.421,77.95Z" transform="translate(-16.152 -67.53)"/><path class="e" d="M26.372,75.782c.21-.14.42-.21.63-.35-.28-.14-.49-.28-.56-.49-.63-1.261-1.331-1.541-1.891-1.541a1.638,1.638,0,0,0-1.051.49v.14a1.017,1.017,0,0,0,.841.35c.49,0,.7-.21.911,0a5.7,5.7,0,0,1,.56.841A1.434,1.434,0,0,0,26.372,75.782Zm-2.1-1.681a.14.14,0,1,1,.14-.14C24.481,74.03,24.411,74.1,24.271,74.1Z" transform="translate(-14.925 -66.272)"/><path class="e" d="M29.731,81.31c-.07,0-.07.07-.14.07a.375.375,0,0,1,.21.28.364.364,0,0,1-.14.28h0a.069.069,0,0,0-.07.07,2.8,2.8,0,0,0-1.051.911,1,1,0,0,0-.14.42.664.664,0,0,0,.56.63v.35a.21.21,0,1,0,.42,0v-.35a.664.664,0,0,0,.56-.63.257.257,0,0,0-.07-.21c-.14.07-.21.14-.35.21a.248.248,0,0,1-.35-.35,1.129,1.129,0,0,1,.49-.28,1.182,1.182,0,0,0,.7-1.051.8.8,0,0,0-.21-.56Z" transform="translate(-16.392 -68.578)"/><path class="e" d="M11.288,66.87c-.07.07,0,.14.07.21l1.261.771.07-.35L11.5,66.8C11.428,66.8,11.288,66.8,11.288,66.87Z" transform="translate(-11.259 -64.296)"/><path class="e" d="M13.718,65.688l.21-.21-.841-.7a.149.149,0,0,0-.21.21Z" transform="translate(-11.728 -63.674)"/><path class="e" d="M15.308,64.258l.28-.14-.7-.841a.149.149,0,0,0-.21.21Z" transform="translate(-12.267 -63.225)"/><path class="e" d="M23.261,63.488a.149.149,0,0,0-.21-.21L22,64.538l.28.21Z" transform="translate(-14.475 -63.225)"/><path class="e" d="M24.482,64.778a.131.131,0,0,0-.21,0L22.1,66.6v.42l2.382-1.961C24.552,64.918,24.552,64.848,24.482,64.778Z" transform="translate(-14.505 -63.674)"/><path class="e" d="M25.692,66.87a.257.257,0,0,0-.21-.07L22.4,68.621v.35l3.222-1.891C25.692,67.01,25.763,66.94,25.692,66.87Z" transform="translate(-14.595 -64.296)"/></g><g transform="translate(7.356 25.429)"><path class="f" d="M10.5,54.3H28.574v-18A18.382,18.382,0,0,0,10.5,54.3Zm7.145-10.438a7.613,7.613,0,0,1,.911-.07,1.566,1.566,0,0,1,.7.21V41.274h3.012V37.841h2.872v3.433h3.012v2.872H25.141v9.667H22.269V44.146H19.607a3.155,3.155,0,0,1,.7.63,1.041,1.041,0,0,1,.42-.07c.28,0,.49.21.63.21s.21,0,.21.07-.07.14-.28.14-.42-.14-.56-.14a1.3,1.3,0,0,0-.49.14l-.07.42h1.4v1.261A2.79,2.79,0,0,1,20.1,49.05a1.531,1.531,0,0,1-.35.21.531.531,0,0,1,.14.28.744.744,0,0,1-.07.56l-.21.21a.8.8,0,0,1,.35.63c0,.63-.771.771-.771.771v.07c.07.07.14.14.21.14.35.28,1.051.63,1.051,1.331v.42H16.034v-.42c0-.56.56-.981.911-1.191a.576.576,0,0,1-.28-.42.744.744,0,0,1,.07-.56l.21-.21a.811.811,0,0,1-.35-.49c-1.4-.49-3.082-1.471-3.082-3.643a2.9,2.9,0,0,1,2.8-3.012A7.945,7.945,0,0,1,17.645,43.866Z" transform="translate(-10.5 -36.3)"/><path class="f" d="M53.132,71.282,54.183,68.9H50.61l-.21,3.082c.14,0,.21,0,.28.07a2.307,2.307,0,0,1,.911.49,1.834,1.834,0,0,0,.911.42,1.368,1.368,0,0,0,.49.07,2.117,2.117,0,0,1-.35-1.121v-.56h.49Z" transform="translate(-22.449 -46.063)"/><path class="f" d="M39.4,71.372h1.961L40.381,69.2Z" transform="translate(-19.155 -46.153)"/><path class="f" d="M41.4,68.9l1.051,2.382h.49v.911l.49-.771.14-.21.21.14a1.8,1.8,0,0,0,.771.28,1.94,1.94,0,0,0,.63.07l-.21-2.8Z" transform="translate(-19.754 -46.063)"/><path class="f" d="M55,71.372h1.961L55.981,69.2Z" transform="translate(-23.827 -46.153)"/><path class="f" d="M37.2,62.9V81.044A18.457,18.457,0,0,0,55.274,62.9Zm13.45,9.107a2.072,2.072,0,0,1-.7-.14v.28L48.128,76.63l-2.1-.7-.07.981h0a.771.771,0,0,1-1.541,0v.07l-.07-1.471a1.94,1.94,0,0,1-.63.07c-.21-.07-.56-.28-.56-.49l-3.713-.771.14-.841h0L40.7,71.727a1.888,1.888,0,0,1-1.051.35,1.958,1.958,0,0,1-1.961-1.961v-.56h.49l1.051-2.382a1.133,1.133,0,0,1-.981-1.121,1.1,1.1,0,0,1,2.1-.49A6.615,6.615,0,0,0,43.715,65c0-.14-.07-.21-.07-.35a1.4,1.4,0,1,1,2.8,0,.632.632,0,0,1-.07.35,6.9,6.9,0,0,0,3.433.56,1.186,1.186,0,0,1,.981-.63,1.106,1.106,0,0,1,1.121,1.121,1.132,1.132,0,0,1-.981,1.121l1.051,2.382h.49v.56A1.746,1.746,0,0,1,50.65,72.007Z" transform="translate(-18.496 -44.266)"/></g></g></g></svg>