<svg xmlns="http://www.w3.org/2000/svg" xmlns:xlink="http://www.w3.org/1999/xlink" viewBox="0 0 120 70"><defs><style>.a{clip-path:url(#b);}.b{fill:#a6a49d;}</style><clipPath id="b"><rect width="120" height="70"/></clipPath></defs><g id="a" class="a"><g transform="translate(0 16)"><g transform="translate(0)"><path class="b" d="M16.647,0c.55.048,1.1.088,1.651.149a14.243,14.243,0,0,1,5.959,1.773A11.372,11.372,0,0,1,28.5,6.441a18.263,18.263,0,0,1,1.97,6.346,54.233,54.233,0,0,1,.414,5.748c.048,2.066,0,4.145-.136,6.21a18.315,18.315,0,0,1-1.943,7.6A12.516,12.516,0,0,1,24.434,37.3a12.693,12.693,0,0,1-4.974,1.692,28.834,28.834,0,0,1-5.728.211,15.827,15.827,0,0,1-5.891-1.291,11.872,11.872,0,0,1-5.68-5.714,19.729,19.729,0,0,1-1.8-6.435C.2,24.386.156,23.007.054,21.634.041,21.491.02,21.349,0,21.2V18.278c.02-.177.054-.353.061-.53.1-1.474.149-2.956.292-4.43A18.17,18.17,0,0,1,2.46,6.258,10.88,10.88,0,0,1,5.585,2.643a13.807,13.807,0,0,1,7.2-2.5L14.608,0ZM1.237,20.527c.129,1.59.231,3.56.462,5.51a16.942,16.942,0,0,0,2.086,6.516,9.768,9.768,0,0,0,6.251,4.811,23.771,23.771,0,0,0,9.839.272,10.4,10.4,0,0,0,7.515-5.327,16.957,16.957,0,0,0,2.093-7.549c.129-1.943.17-3.893.143-5.837a38.543,38.543,0,0,0-.6-6.958,15.86,15.86,0,0,0-2.134-5.748,10.148,10.148,0,0,0-4.9-3.982A14.146,14.146,0,0,0,17.958,1.4a24.368,24.368,0,0,0-7.562.428A10.061,10.061,0,0,0,3.4,7.216a19.245,19.245,0,0,0-1.909,7.406C1.352,16.457,1.332,18.3,1.237,20.527Z" transform="translate(0)"/><path class="b" d="M1626.025,318.532c-.088.347-.143.707-.258,1.046a4.674,4.674,0,0,1-3.968,3.207,6.687,6.687,0,0,1-3.017-.245,3.838,3.838,0,0,1-2.656-2.6,4.938,4.938,0,0,1,.734-4.783,4.556,4.556,0,0,1,2.718-1.672,6.04,6.04,0,0,1,4.036.414,4.136,4.136,0,0,1,2.337,3.323c.021.122.054.238.082.36C1626.025,317.9,1626.025,318.213,1626.025,318.532Zm-5.388,3.574a2.686,2.686,0,0,0,2.616-1.542,5.684,5.684,0,0,0,.156-4.824,2.53,2.53,0,0,0-2.439-1.644,2.461,2.461,0,0,0-2.324,1.427,5.961,5.961,0,0,0-.421,4.512A2.493,2.493,0,0,0,1620.637,322.107Z" transform="translate(-1506.032 -292.033)"/><path class="b" d="M522.6,324.966V315.8c1.739.054,3.5.027,5.232.183a3.564,3.564,0,0,1,3.336,3.642,5.141,5.141,0,0,1-1.074,3.723,4.22,4.22,0,0,1-3.214,1.6C525.467,325.007,524.04,324.966,522.6,324.966Zm2.032-.727c.367.02.693.041,1.019.048a2.976,2.976,0,0,0,3.085-1.923,5.813,5.813,0,0,0,.272-3.173,2.864,2.864,0,0,0-2.208-2.514,6.95,6.95,0,0,0-1.685-.068c-.51.014-.516.041-.516.564q0,3.312.007,6.625C524.6,323.926,524.618,324.062,524.632,324.239Z" transform="translate(-487.091 -294.343)"/><path class="b" d="M1633.5,125.878c1.5,0,3.017-.027,4.525.014a4.927,4.927,0,0,1,2.093.516,3.241,3.241,0,0,1,1.773,2.195,5.393,5.393,0,0,1-.557,4.287,4.2,4.2,0,0,1-3.574,2.072c-1.366.054-2.738.014-4.111.014a.881.881,0,0,1-.149-.02Q1633.5,130.38,1633.5,125.878Zm2.025,8.425c.394,0,.754.007,1.114,0a3,3,0,0,0,3.064-2.106,6.22,6.22,0,0,0,.217-2.956,2.934,2.934,0,0,0-2.813-2.643c-.36-.007-.72,0-1.087.014-.516.02-.523.027-.523.557q0,3.312.007,6.625C1635.5,133.93,1635.518,134.059,1635.525,134.3Z" transform="translate(-1522.51 -117.317)"/><path class="b" d="M1369.9,134.908v-9.091c1.474,0,2.962-.02,4.45.014a5.929,5.929,0,0,1,1.529.272,3.307,3.307,0,0,1,2.46,2.67,5.582,5.582,0,0,1-.333,3.547,4.211,4.211,0,0,1-3.676,2.568C1372.862,134.99,1371.375,134.908,1369.9,134.908Zm2.025-8.323v7.658c.4,0,.761.007,1.121,0a3,3,0,0,0,3.037-2.045,6.143,6.143,0,0,0,.258-2.847,3.1,3.1,0,0,0-1.658-2.528A5.2,5.2,0,0,0,1371.925,126.585Z" transform="translate(-1276.82 -117.262)"/><path class="b" d="M1095.243,130.533c.951,1.495,1.875,2.949,2.833,4.457-.774,0-1.515.007-2.256-.014-.081,0-.183-.143-.238-.245-.686-1.209-1.366-2.419-2.052-3.635a.677.677,0,0,0-.285-.306v4.179H1091.2V125.9c1.352,0,2.739-.041,4.118.014a2.038,2.038,0,0,1,1.964,1.583,2.348,2.348,0,0,1-1.189,2.677C1095.848,130.295,1095.583,130.39,1095.243,130.533Zm-2.018-.3a1.581,1.581,0,0,0,2-1.135,5.1,5.1,0,0,0,.013-1.542,1.055,1.055,0,0,0-1-.91,3.71,3.71,0,0,0-.775-.048.292.292,0,0,0-.217.2C1093.218,127.93,1093.225,129.072,1093.225,130.234Z" transform="translate(-1017.057 -117.331)"/><path class="b" d="M663.387,125.47h1.047c-.068,3.01-.129,6.04-.2,9.112a8.212,8.212,0,0,1-.911-.014c-.109-.014-.224-.136-.312-.231q-2.681-2.956-5.354-5.911l-.279-.306v6.448H656.3c.068-3.037.136-6.074.2-9.078.285-.014.6-.048.931-.034a.594.594,0,0,1,.347.2q2.65,2.895,5.293,5.789c.088.1.156.217.238.319l.081-.061C663.387,129.635,663.387,127.55,663.387,125.47Z" transform="translate(-611.707 -116.93)"/><path class="b" d="M518.694,125.7h2.1c-.02.326-.061.659-.068.992-.027,1.563-.075,3.126-.048,4.682a5.162,5.162,0,0,0,.34,1.583,1.8,1.8,0,0,0,1.739,1.182,4.776,4.776,0,0,0,.985-.007,1.671,1.671,0,0,0,1.413-1.169,6.216,6.216,0,0,0,.4-1.841c.041-1.753-.014-3.506-.027-5.259v-.156h1.3c-.014.374-.041.761-.054,1.155-.048,1.481-.061,2.969-.149,4.444a6.164,6.164,0,0,1-.374,1.78,2.928,2.928,0,0,1-2.494,1.841,6.3,6.3,0,0,1-2.888-.177,2.908,2.908,0,0,1-2.154-2.745c-.048-1.536-.02-3.078-.02-4.62Z" transform="translate(-483.443 -117.159)"/><path class="b" d="M917.7,325.425h-2V316.3c.224.014.469.054.714.048.931-.014,1.855-.054,2.786-.041a3.964,3.964,0,0,1,1.128.19,2.115,2.115,0,0,1,1.454,2.331,4.873,4.873,0,0,1-.129.836,2.492,2.492,0,0,1-2.14,1.7,9.4,9.4,0,0,1-1.318.115c-.5.02-.5.007-.5.53C917.7,323.122,917.7,324.257,917.7,325.425Zm.034-8.364v3.717a1.614,1.614,0,0,0,1.909-1.25,3.144,3.144,0,0,0,.054-1.04C919.573,317.34,918.948,316.884,917.732,317.061Z" transform="translate(-853.481 -294.809)"/><path class="b" d="M1000.964,315.7h.951q1.814,4.576,3.642,9.173h-1.488c-.693,0-.686,0-.911-.646-.2-.6-.414-1.2-.612-1.794a.325.325,0,0,0-.36-.265c-.863.014-1.719.014-2.582,0a.338.338,0,0,0-.387.279c-.218.679-.455,1.352-.68,2.025-.047.136-.1.272-.136.408h-1.2C998.45,321.8,999.707,318.751,1000.964,315.7Zm.02,2.575c-.034,0-.075.007-.109.007-.408,1.033-.808,2.059-1.23,3.126h2.507C1001.752,320.341,1001.372,319.308,1000.984,318.275Z" transform="translate(-929.444 -294.249)"/><path class="b" d="M1500.871,124.8h.951q1.8,4.556,3.635,9.173h-1.3c-.883,0-.883,0-1.155-.829-.177-.537-.374-1.067-.55-1.6a.354.354,0,0,0-.387-.285q-1.274.02-2.548,0a.36.36,0,0,0-.408.3c-.231.72-.489,1.434-.714,2.154-.061.19-.129.279-.346.265-.306-.02-.611-.007-.951-.007Q1499,129.359,1500.871,124.8Zm1.2,5.714c-.4-1.08-.788-2.113-1.175-3.139-.034-.007-.061-.007-.1-.014-.408,1.04-.822,2.072-1.243,3.153Z" transform="translate(-1395.378 -116.32)"/><path class="b" d="M673.155,316.6v1.094c-.516-.027-1.033-.061-1.549-.088-.394-.02-.795-.027-1.189-.048-.156-.007-.265.02-.265.211v2.725l2.942-.1v1.026h-2.969v3.4l3.03-.163v1.04H668.1v-9.1Z" transform="translate(-622.705 -295.088)"/><path class="b" d="M997.414,129.5v1.074l-1.332-.061c-.476-.02-.951-.041-1.427-.034-.088,0-.245.116-.245.177-.014,1.06-.014,2.12-.014,3.268,1.04-.054,2.025-.109,3.03-.156v1.026H992.4V125.7h5.028v1.094c-.972-.048-1.95-.1-2.976-.149-.02.958-.041,1.869-.034,2.786,0,.054.183.163.285.163.795-.02,1.583-.054,2.371-.088A2.865,2.865,0,0,1,997.414,129.5Z" transform="translate(-924.97 -117.159)"/><path class="b" d="M1134.437,315.563a2.142,2.142,0,0,1-.306-.265,2.759,2.759,0,0,0-4.6.578,5.161,5.161,0,0,0-.265,4.4,3.156,3.156,0,0,0,5.062,1.216c.081-.061.156-.129.285-.238a1.047,1.047,0,0,1,.041.279,6.08,6.08,0,0,1-.211.781.53.53,0,0,1-.265.265,6.714,6.714,0,0,1-3.6.36,4.545,4.545,0,0,1-2.358-1.033,3.994,3.994,0,0,1-1.413-2.874,5.93,5.93,0,0,1,.3-2.507,4.117,4.117,0,0,1,2.371-2.514,6.41,6.41,0,0,1,5.021.02c.224.088.279.2.2.435A10.379,10.379,0,0,0,1134.437,315.563Z" transform="translate(-1050.224 -292.209)"/><path class="b" d="M1498.052,315.63a2.932,2.932,0,0,1-.354-.319,2.744,2.744,0,0,0-4.545.632,5.1,5.1,0,0,0-.081,4.8,2.967,2.967,0,0,0,3.315,1.536,3.706,3.706,0,0,0,1.658-.8.56.56,0,0,1,.2-.061.729.729,0,0,1,.014.211,2.633,2.633,0,0,0-.136.489.636.636,0,0,1-.523.639,6.622,6.622,0,0,1-4.8-.17,3.916,3.916,0,0,1-2.351-3.3,5.579,5.579,0,0,1,.476-3.146,4.135,4.135,0,0,1,2.507-2.195,6.458,6.458,0,0,1,4.7.156c.2.082.265.17.19.408C1498.208,314.835,1498.154,315.2,1498.052,315.63Z" transform="translate(-1389.127 -292.27)"/><path class="b" d="M860.1,125.7h1.04c-1.209,3.03-2.426,6.054-3.649,9.1.027-.007.014,0,0,0-1.087.061-1.08.054-1.468-.944q-1.539-3.914-3.085-7.814c-.047-.116-.088-.224-.136-.347h2.29q1.182,3.292,2.365,6.611a.867.867,0,0,1,.129.007Q858.837,129.006,860.1,125.7Z" transform="translate(-794.855 -117.159)"/><path class="b" d="M1205.716,123.414c-.115.36-.217.707-.333,1.046a1.057,1.057,0,0,1-.136.217.874.874,0,0,1-.2-.19,1.7,1.7,0,0,0-2.1-.843,1.179,1.179,0,0,0-.4,2.059,9.655,9.655,0,0,0,1.536.917,5.756,5.756,0,0,1,1.563,1.114,2.791,2.791,0,0,1-.136,3.418,3.6,3.6,0,0,1-2.949,1.1,9.588,9.588,0,0,1-1.78-.347c-.21-.048-.292-.19-.21-.435.122-.387.183-.788.285-1.182a.929.929,0,0,1,.129-.2c.061.054.149.1.17.17a1.908,1.908,0,0,0,2.378,1.209,1.23,1.23,0,0,0,.985-.931,1.179,1.179,0,0,0-.38-1.352,12.947,12.947,0,0,0-1.5-.9,5.347,5.347,0,0,1-1.515-1.074,2.8,2.8,0,0,1,.6-3.907A3.647,3.647,0,0,1,1205.716,123.414Z" transform="translate(-1118.969 -114.418)"/><path class="b" d="M1338.18,320.291v1.026h-2.949V325.6H1333.2v-9.1h5.048v1.087c-.978-.048-1.957-.1-2.983-.149-.021.34-.041.645-.048.944-.013.564-.013,1.135-.041,1.7-.014.258.082.333.333.313.768-.048,1.536-.068,2.3-.1Z" transform="translate(-1242.614 -294.995)"/><path class="b" d="M769.3,325.8v-9.1h2.045v8.215l3-.163V325.8Z" transform="translate(-717.029 -295.181)"/><path class="b" d="M1307.1,134.784V125.7h2.045v9.084Z" transform="translate(-1218.287 -117.159)"/><path class="b" d="M1434.9,316.7h2.045v9.091H1434.9Z" transform="translate(-1337.404 -295.181)"/><path class="b" d="M1269.6,316.6h2.031v9.1H1269.6Z" transform="translate(-1183.335 -295.088)"/><path class="b" d="M802.2,125.7h2.045v9.091H802.2Z" transform="translate(-747.693 -117.159)"/><path class="b" d="M1268.6,273.594c.7-.775,1.332-1.495,1.977-2.195a.8.8,0,0,1,.374-.217.564.564,0,0,1,.7.258.53.53,0,0,1-.143.727c-.319.251-.652.482-.985.707-.292.2-.6.353-.89.557A1.3,1.3,0,0,1,1268.6,273.594Z" transform="translate(-1182.403 -252.728)"/><path class="b" d="M86.8,102.908c.122-1.909.211-3.819.381-5.721a11.138,11.138,0,0,1,1.006-3.751,6.22,6.22,0,0,1,4.559-3.458,18.264,18.264,0,0,1,6.108-.231,8.3,8.3,0,0,1,3.248,1A6.282,6.282,0,0,1,105.01,94.6a21.585,21.585,0,0,1,.747,4.607,50.23,50.23,0,0,1,.136,6.475,24.4,24.4,0,0,1-.815,6.068,6.307,6.307,0,0,1-2.29,3.363,7.725,7.725,0,0,1-3.737,1.4,21.693,21.693,0,0,1-4.879.068,7.313,7.313,0,0,1-5.089-2.453,7.561,7.561,0,0,1-1.318-2.541,18.952,18.952,0,0,1-.795-5.042c-.054-1.209-.014-2.419-.014-3.635A1.2,1.2,0,0,1,86.8,102.908Zm.89-.136c0,.659-.014,1.311,0,1.97a26.219,26.219,0,0,0,.747,6.251,5.913,5.913,0,0,0,4.715,4.614,16.139,16.139,0,0,0,6.6-.007,5.726,5.726,0,0,0,4.539-4.022,16.826,16.826,0,0,0,.72-4.641,53.279,53.279,0,0,0-.054-7.291,26.125,26.125,0,0,0-.679-4.586,5.545,5.545,0,0,0-4.2-4.267,15.991,15.991,0,0,0-7.263,0,5.459,5.459,0,0,0-3.275,1.977,8.709,8.709,0,0,0-1.515,3.982A33.63,33.63,0,0,0,87.69,102.772Z" transform="translate(-80.902 -83.509)"/><path class="b" d="M104.645,480.305c.2-.455.394-.883.578-1.311-.02-.014-.041-.034-.061-.048-.367.251-.734.51-1.108.761a1.063,1.063,0,0,1-.272.088,1.084,1.084,0,0,1-.061-.279c.02-.428.048-.849.082-1.277-.027-.014-.061-.027-.088-.041-.258.367-.523.734-.795,1.121-.1-.054-.19-.1-.319-.177.516-.666,1.019-1.311,1.515-1.943.285.048.34.2.313.442-.048.469-.068.944-.1,1.434.659-.143,1.012-.917,1.835-.856-.347.849-.659,1.61-.978,2.392C105.012,480.509,104.849,480.421,104.645,480.305Z" transform="translate(-95.629 -444.776)"/><path class="b" d="M83.6,70.348c.353-.265.666-.5.985-.734a1.153,1.153,0,0,1,1.739.143,1.334,1.334,0,0,1-.054,1.916c-.313.292-.673.53-1.046.829C84.68,71.781,84.157,71.081,83.6,70.348Zm.632-.17c.455.6.877,1.169,1.311,1.746.353-.224.7-.462.645-.9a1.474,1.474,0,0,0-.856-1.216C84.891,69.6,84.6,69.933,84.232,70.178Z" transform="translate(-77.92 -64.579)"/><path class="b" d="M180.2,39.081c.476-.034.9-.082,1.325-.1a1.14,1.14,0,0,1,1.291.944,1.32,1.32,0,0,1-.8,1.61,11.8,11.8,0,0,1-1.57.265C180.356,40.861,180.282,39.992,180.2,39.081Zm.809,2.331c.795.061,1.148-.258,1.155-.992,0-.088.007-.183,0-.272a.862.862,0,0,0-1.108-.89.311.311,0,0,0-.2.224C180.893,40.121,180.954,40.759,181.009,41.412Z" transform="translate(-167.956 -36.329)"/><path class="b" d="M382.313,340.942a1.337,1.337,0,0,1-1.366,1.474,1.44,1.44,0,0,1-1.447-1.542,1.354,1.354,0,0,1,1.379-1.474A1.408,1.408,0,0,1,382.313,340.942Zm-1.332.843c.231-.061.421-.1.6-.163a.662.662,0,0,0,.469-.6.7.7,0,0,0-.353-.72,1.754,1.754,0,0,0-1.474-.129.7.7,0,0,0-.469.646.665.665,0,0,0,.387.7A6.624,6.624,0,0,0,380.981,341.784Z" transform="translate(-353.714 -316.338)"/><path class="b" d="M247.2,36.8c.578.088,1.128.129,1.658.265a1.1,1.1,0,0,1,.707,1.339,1.248,1.248,0,0,1-1.108,1.182c-.5.027-1.006-.041-1.556-.061C247,38.587,247.09,37.717,247.2,36.8Zm.571.367c-.061.482-.116.951-.17,1.42a2.865,2.865,0,0,0-.048.537.316.316,0,0,0,.211.2c.707.1,1.087-.279,1.135-1.087C248.952,37.452,248.626,37.126,247.77,37.167Z" transform="translate(-230.124 -34.3)"/><path class="b" d="M40.2,168.923c.061-.414.109-.781.183-1.142.082-.387.3-.578.6-.584a.7.7,0,0,1,.693.537,1.2,1.2,0,0,0,.068.149c.469-.2.924-.408,1.406-.618a1.92,1.92,0,0,0-.048.4c.02.258-.116.353-.326.428a4.074,4.074,0,0,0-.9.435c.353.054.707.116,1.08.177-.027.19-.048.36-.082.584C41.987,169.168,41.11,169.052,40.2,168.923Zm1.311-.428c.061-.428-.068-.6-.435-.652s-.476.048-.537.5C40.852,168.393,41.172,168.448,41.511,168.5Z" transform="translate(-37.469 -155.837)"/><path class="b" d="M40.052,299a2.515,2.515,0,0,1-.272.455c-.489.53-.992,1.053-1.488,1.576.455,0,.951.007,1.454,0,.238-.007.306.082.2.347H37.361c-.109-.19-.041-.353.129-.537.489-.5.958-1.012,1.42-1.508H37.531c-.231,0-.231-.007-.231-.333Z" transform="translate(-34.766 -278.684)"/><path class="b" d="M313.865,487.488c-.17.088-.326.177-.51.272-.38-.727-.754-1.447-1.155-2.2.34-.17.666-.347,1-.5a.549.549,0,0,1,.707.143.613.613,0,0,1,.054.754l-.122.2c.4.238.788.462,1.175.693-.618.666-1.026-.048-1.59-.258C313.593,486.931,313.722,487.2,313.865,487.488Zm-1.012-1.964c.136.258.258.5.394.754a.4.4,0,0,0,.238-.612C313.355,485.389,313.165,485.307,312.852,485.525Z" transform="translate(-290.987 -452.041)"/><path class="b" d="M38.243,347.6v-.6c.564-.041,1.128-.075,1.685-.136.489-.054.693-.279.686-.679s-.217-.639-.686-.679a10.8,10.8,0,0,0-1.148.02c-.2.007-.408,0-.639,0-.014-.1-.02-.183-.041-.38.625,0,1.209-.014,1.794.007a1.014,1.014,0,0,1,1.019,1.121c.027.6-.2,1.135-.836,1.182C39.486,347.5,38.895,347.544,38.243,347.6Z" transform="translate(-35.511 -321.684)"/><path class="b" d="M355.977,108.157c-.326.156-.659.319-1.006.489-.088-.177-.17-.333-.272-.53.8-.4,1.59-.8,2.419-1.216.177.394.36.754.51,1.128a.569.569,0,0,1-.211.741.717.717,0,0,1-.9.02A7.824,7.824,0,0,1,355.977,108.157Zm.279-.143c.211.381.482.448.795.245.285-.19.313-.374.088-.686Z" transform="translate(-330.599 -99.637)"/><path class="b" d="M367.823,151.746c-.02-.1-.027-.129-.034-.156-.082-.516-.1-.55.394-.741.414-.163.217-.448.217-.7a.375.375,0,0,0-.374-.421c-.224-.027-.6.048-.537-.428a1.251,1.251,0,0,1,.224.02c.775.2,1.556.387,2.331.6a.4.4,0,0,1,.265.231c.014.082-.1.224-.2.279C369.365,150.87,368.611,151.3,367.823,151.746Zm1.6-1.583.02-.082c-.251-.061-.5-.129-.809-.2.034.245.061.435.1.666C368.985,150.4,369.2,150.278,369.42,150.163Z" transform="translate(-342.513 -139.156)"/><path class="b" d="M144.271,50.782a2.116,2.116,0,0,1-.516.177c-.1.007-.224-.109-.3-.2-.326-.414-.693-.5-1.08-.156-.122.1-.109.387-.116.591,0,.224-.068.34-.36.333.027-.347.048-.686.075-1.033.041-.55.075-1.1.136-1.651a.325.325,0,0,1,.17-.238.273.273,0,0,1,.245.088c.537.625,1.067,1.257,1.59,1.889C144.169,50.64,144.21,50.7,144.271,50.782Zm-1.977-.469c.238-.075.421-.136.652-.211-.2-.231-.36-.428-.584-.7C142.335,49.756,142.321,50.008,142.294,50.314Z" transform="translate(-132.258 -45.292)"/><path class="b" d="M339.618,457.917c.1-.115.17-.19.19-.217.408.38.809.713,1.169,1.087a.847.847,0,0,1,.17,1.06,1.28,1.28,0,0,1-1.053.754.651.651,0,0,1-.442-.143c-.455-.4-.89-.829-1.352-1.264.17-.143.306-.251.462-.38.347.333.713.7,1.08,1.053a.611.611,0,0,0,.734.183.575.575,0,0,0,.217-.91,10.264,10.264,0,0,0-.775-.856A5.375,5.375,0,0,0,339.618,457.917Z" transform="translate(-315.314 -426.601)"/><path class="b" d="M40.405,204.519v-.883c.143.014.245.027.367.041-.034.5-.068.965-.1,1.474-.89-.061-1.753-.115-2.67-.183.034-.51.061-.985.088-1.468h.333c-.027.292-.054.571-.088.883.272.02.516.041.809.061.014-.3.027-.578.048-.876.1.014.2.027.319.041-.02.279-.041.544-.068.856C39.76,204.478,40.052,204.5,40.405,204.519Z" transform="translate(-35.418 -189.673)"/><path class="b" d="M291.8,48.434c.3-.856.584-1.678.883-2.534.469.163.924.319,1.406.489-.034.109-.068.2-.1.319-.272-.109-.53-.2-.829-.319-.1.258-.177.5-.272.775.279.1.537.177.809.272-.027.1-.054.19-.088.306-.272-.1-.53-.19-.815-.3-.109.313-.211.591-.319.9.285.088.55.177.843.265-.041.109-.075.2-.122.319C292.731,48.754,292.289,48.6,291.8,48.434Z" transform="translate(-271.973 -42.781)"/><path class="b" d="M374.954,188.85c-.245.075-.414-.014-.455-.251a3.8,3.8,0,0,1-.109-1.026,1.206,1.206,0,0,1,1.053-1.08,1.355,1.355,0,0,1,1.488.618,1.793,1.793,0,0,1,.231,1.237c-.068.36-.088.36-.469.265.306-.673.279-1.012-.1-1.284a1.551,1.551,0,0,0-1.685.1C374.533,187.763,374.54,188.13,374.954,188.85Z" transform="translate(-348.944 -173.793)"/><path class="b" d="M38.7,234.76c-.51-.2-1.012-.421-1.529-.6-.231-.082-.313-.19-.217-.455.877.38,1.746.761,2.616,1.135.068.245,0,.367-.251.448-.809.272-1.6.571-2.405.856-.014-.034-.027-.041-.027-.054-.007-.618-.007-.612.6-.809.408-.129.809-.279,1.209-.421A.448.448,0,0,1,38.7,234.76Z" transform="translate(-34.376 -217.821)"/><path class="b" d="M382.274,300.271a.392.392,0,0,1-.469-.306,1.568,1.568,0,0,1,.673-1.909A1.413,1.413,0,0,1,384.5,299.1a6.874,6.874,0,0,1-.034,1.169c-.224-.034-.347-.048-.489-.068a.562.562,0,0,1,.027-.122.819.819,0,0,0-.5-1.434,1.681,1.681,0,0,0-.639-.027.9.9,0,0,0-.673,1.495A1.425,1.425,0,0,1,382.274,300.271Z" transform="translate(-355.782 -277.672)"/><path class="b" d="M257.175,505.352c.034.326.068.659.1,1.006-.19.027-.353.054-.564.088-.1-.822-.2-1.631-.313-2.487.394-.034.754-.061,1.114-.088a.525.525,0,0,1,.612.414.66.66,0,0,1-.292.822A3.847,3.847,0,0,1,257.175,505.352Zm-.156-1.182c.041.306.075.584.109.883.353-.054.455-.245.414-.53C257.514,504.258,257.392,504.088,257.018,504.169Z" transform="translate(-238.979 -469.632)"/><path class="b" d="M151.371,497.4c.109.115.265.2.279.3.115.795.211,1.59.306,2.385.007.034-.014.068-.02.109a1.877,1.877,0,0,0-.265-.061c-.279-.02-.374-.177-.374-.442a.6.6,0,0,0-.734-.571c-.088.02-.163.136-.231.224-.082.109-.149.224-.238.367-.109-.02-.224-.041-.394-.075C150.264,498.881,150.794,498.168,151.371,497.4Zm-.679,1.454c.211.041.353.075.55.115-.041-.251-.068-.448-.109-.727C150.964,498.474,150.848,498.637,150.692,498.854Z" transform="translate(-139.528 -463.604)"/><path class="b" d="M50.855,133.1c.116-.041.251-.048.313-.116a1.285,1.285,0,0,0,.265-.5c.014-.1-.136-.306-.224-.313a.989.989,0,0,0-.482.143,1.355,1.355,0,0,0-.265.258.814.814,0,0,1-1.121.177.87.87,0,0,1-.258-1.114,3.653,3.653,0,0,1,.285-.435c.143.1.251.17.34.231-.149.136-.34.231-.4.381a.513.513,0,0,0,.1.462c.068.068.313.02.442-.041a1.945,1.945,0,0,0,.374-.34c.4-.374.713-.428,1.094-.2a.947.947,0,0,1,.34,1.114,1.058,1.058,0,0,1-.054.156C51.391,133.435,51.283,133.463,50.855,133.1Z" transform="translate(-45.657 -122.285)"/><path class="b" d="M288.043,496.4c.265-.082.489-.156.747-.231.034.1.061.2.1.313-.265.075-.5.143-.754.211.082.272.149.523.231.8.258-.081.489-.163.747-.245.034.1.068.2.115.326-.455.129-.883.258-1.339.387-.231-.788-.455-1.556-.693-2.371.435-.129.856-.258,1.325-.394l.109.326c-.265.068-.5.129-.775.2C287.92,495.947,287.975,496.145,288.043,496.4Z" transform="translate(-267.686 -461.553)"/><path class="b" d="M381.777,248.3c.034.51.068.978.109,1.474-.115.02-.211.034-.34.054v-.91c-.3.048-.659.007-.775.156s-.007.489.007.775c-.088.014-.183.034-.319.054,0-.17.007-.313,0-.455s-.027-.265-.048-.428c-.428.027-.829.054-1.271.082-.014-.2-.027-.374-.041-.591C379.99,248.436,380.86,248.368,381.777,248.3Z" transform="translate(-353.342 -231.429)"/><path class="b" d="M320.38,63.51c.272.163.5.3.754.448-.061.1-.115.177-.19.285-.408-.265-.809-.53-1.243-.815.489-.747.972-1.481,1.468-2.229.17.109.326.211.51.326C321.249,62.185,320.828,62.831,320.38,63.51Z" transform="translate(-297.978 -57.042)"/><path class="b" d="M68.552,442.8c.122.177.211.313.326.482-.591.4-1.175.788-1.78,1.2.163.224.306.421.462.639l-.285.2c-.251-.38-.5-.747-.775-1.162C67.186,443.711,67.852,443.269,68.552,442.8Z" transform="translate(-61.982 -412.713)"/><path class="b" d="M63.6,104.3c.122-.183.224-.326.347-.5.741.5,1.461,1,2.208,1.508-.116.17-.211.313-.34.5C65.081,105.308,64.354,104.819,63.6,104.3Z" transform="translate(-59.279 -96.747)"/><path class="b" d="M381.6,280.647v-.6l2.643-.143v.6C383.373,280.546,382.5,280.593,381.6,280.647Z" transform="translate(-355.672 -260.882)"/><path class="b" d="M377.1,228.351c.9-.082,1.773-.17,2.67-.251.02.19.034.36.061.6-.876.082-1.746.17-2.636.251C377.168,228.773,377.141,228.6,377.1,228.351Z" transform="translate(-351.477 -212.601)"/><path class="b" d="M37.2,279.064V278.5h2.643v.564Z" transform="translate(-34.672 -259.577)"/><path class="b" d="M87.66,466.34c-.116-.122-.231-.245-.36-.387.591-.55,1.189-1.107,1.794-1.665a.621.621,0,0,1-.054-.088c.109.129.217.258.326.394-.571.53-1.169,1.08-1.767,1.631C87.619,466.266,87.64,466.3,87.66,466.34Z" transform="translate(-81.368 -432.659)"/><path class="b" d="M213.3,526.7h.9v.4h-.9Z" transform="translate(-198.807 -490.913)"/><path class="b" d="M163.788,241.6c-.754,0-1.406.007-2.066-.007-.075,0-.2-.129-.211-.217a3.39,3.39,0,0,1-.007-.591c-.448.217-.856.4-1.25.612-.061.034-.088.177-.088.272,0,.917,0,1.835.02,2.752a.746.746,0,0,0,.163.387,6.117,6.117,0,0,0,.435.5h-2.745c.014-.048.014-.088.034-.1a1.464,1.464,0,0,0,.516-1.413c-.034-.666-.014-1.339-.007-2,0-.177-.034-.285-.231-.347a3.81,3.81,0,0,1-2.711-4.423,7.529,7.529,0,0,1,.768-2.412c.136-.251.136-.421-.088-.6a3.88,3.88,0,0,1-.38-.408h2.1c-.1.2-.19.387-.279.578a7.363,7.363,0,0,0-.863,3.656,3.093,3.093,0,0,0,1.332,2.582c.088.061.19.109.36.2v-.489c0-2.806-.007-5.612.014-8.425a1.042,1.042,0,0,0-.421-.992,2.346,2.346,0,0,1-.285-.292c.347,0,.6.007.856,0a15.188,15.188,0,0,1,4.152.251,6.71,6.71,0,0,1,1.481.557,2.446,2.446,0,0,1,1.42,2.188,2.606,2.606,0,0,1-1.407,2.453c-.319.183-.686.292-1.012.469a.443.443,0,0,0-.224.3q-.02,2.038-.007,4.077a.556.556,0,0,0,.136.326C163.421,241.2,163.584,241.363,163.788,241.6Zm-3.635-5.612a2.39,2.39,0,0,0,.279.048c1.06.136,1.053.122,1.08-.924A1.5,1.5,0,0,0,161,233.7c-.027-.02-.034-.068-.054-.109h2.765c.027.02.054.034.082.054-.795.448-.652,1.155-.618,1.868a1.408,1.408,0,0,0,.177-.068,2.407,2.407,0,0,0,1.074-2.181,1.936,1.936,0,0,0-1.121-1.739,6.645,6.645,0,0,0-3.159-.462C160.153,232.733,160.153,234.357,160.153,235.988Zm.027,4.539c.034.02.061.048.1.068.313-.231.632-.462.944-.693a.755.755,0,0,0,.292-.679c-.02-.713-.007-1.427-.007-2.14,0-.129-.014-.258-.027-.408-.462.02-.883.041-1.3.061Z" transform="translate(-145.014 -214.728)"/><path class="b" d="M203,126.2c.122.313.224.571.347.89.17-.245.313-.448.489-.7.061.326.109.591.17.91.285-.2.537-.374.788-.544.014.014.034.027.048.041-.224.5-.442,1.006-.679,1.495a.305.305,0,0,1-.238.122c-.618.014-1.243.014-1.862,0a.322.322,0,0,1-.245-.156,12.833,12.833,0,0,1-.618-1.529c.245.177.5.353.795.571.034-.306.068-.564.109-.89.2.245.36.448.55.693C202.77,126.784,202.878,126.519,203,126.2Z" transform="translate(-187.529 -117.625)"/><path class="b" d="M244.8,174.862c.34.238.591.421.883.625.034-.306.061-.564.1-.883.2.251.367.455.564.693.122-.319.217-.578.34-.9.122.313.224.578.353.9.163-.245.306-.448.482-.707.061.326.116.6.17.91.292-.2.544-.374.883-.612-.265.591-.476,1.094-.72,1.59a.339.339,0,0,1-.272.129c-.6.014-1.2.014-1.8,0a.4.4,0,0,1-.3-.19C245.255,175.936,245.051,175.446,244.8,174.862Z" transform="translate(-228.167 -162.55)"/><path class="b" d="M155.954,175.03c.245.177.489.347.781.557.034-.313.061-.578.1-.9.2.251.36.455.55.7.122-.306.224-.564.347-.89.129.313.231.578.36.883.17-.251.306-.455.482-.72.061.326.109.591.17.917.285-.2.537-.367.788-.544.014.014.034.02.048.034-.224.5-.442,1.006-.679,1.495a.3.3,0,0,1-.238.116c-.618.007-1.243.007-1.862,0a.268.268,0,0,1-.217-.1c-.238-.51-.455-1.019-.679-1.529C155.914,175.057,155.934,175.044,155.954,175.03Z" transform="translate(-145.307 -162.643)"/></g></g></g></svg>