<svg xmlns="http://www.w3.org/2000/svg" xmlns:xlink="http://www.w3.org/1999/xlink" viewBox="0 0 16 16"><defs><style>.a{clip-path:url(#b);}.b{fill:#faf9f2;}</style><clipPath id="b"><rect width="16" height="16"/></clipPath></defs><g id="a" class="a"><path class="b" d="M120,1.781a.735.735,0,0,0-.234-.562A.776.776,0,0,0,119.219,1H106.781a.749.749,0,0,0-.781.781V14.219a.776.776,0,0,0,.219.547.735.735,0,0,0,.563.234h6.687V9.563h-1.812V7.469h1.813V5.906a2.723,2.723,0,0,1,.75-2.062,2.727,2.727,0,0,1,1.969-.719q.969,0,1.625.063V5.094h-1.125a1.083,1.083,0,0,0-.844.281,1.161,1.161,0,0,0-.187.75V7.469h2.094l-.281,2.094h-1.812V15h3.562a.735.735,0,0,0,.563-.234.776.776,0,0,0,.219-.547Z" transform="translate(-105)"/></g></svg>