<svg xmlns="http://www.w3.org/2000/svg" xmlns:xlink="http://www.w3.org/1999/xlink" viewBox="0 0 16 16"><defs><style>.a{clip-path:url(#b);}.b{fill:#faf9f2;}</style><clipPath id="b"><rect width="16" height="16"/></clipPath></defs><g id="a" class="a"><path class="b" d="M113,4.406a3.5,3.5,0,0,1,1.8.484A3.6,3.6,0,0,1,116.109,6.2a3.575,3.575,0,0,1,0,3.594,3.6,3.6,0,0,1-1.312,1.312,3.575,3.575,0,0,1-3.594,0A3.6,3.6,0,0,1,109.891,9.8a3.575,3.575,0,0,1,0-3.594A3.6,3.6,0,0,1,111.2,4.891,3.5,3.5,0,0,1,113,4.406Zm0,5.937A2.347,2.347,0,0,0,115.344,8a2.344,2.344,0,1,0-4,1.656A2.258,2.258,0,0,0,113,10.344Zm4.594-6.094a.974.974,0,0,1-.266.594.761.761,0,0,1-.578.25.84.84,0,0,1-.594-1.437.844.844,0,0,1,1.437.594Zm2.375.844Q120,5.969,120,8t-.047,2.922a5.894,5.894,0,0,1-.266,1.547,3.658,3.658,0,0,1-2.219,2.219,5.893,5.893,0,0,1-1.547.266Q115.031,15,113,15t-2.922-.047a5.1,5.1,0,0,1-1.547-.3,3.331,3.331,0,0,1-1.359-.828,3.642,3.642,0,0,1-.859-1.359,5.893,5.893,0,0,1-.266-1.547Q106,10.031,106,8t.047-2.922a5.893,5.893,0,0,1,.266-1.547,3.658,3.658,0,0,1,2.219-2.219,5.894,5.894,0,0,1,1.547-.266Q110.969,1,113,1t2.922.047a5.893,5.893,0,0,1,1.547.266,3.658,3.658,0,0,1,2.219,2.219A6.358,6.358,0,0,1,119.969,5.094Zm-1.5,7.031a6.58,6.58,0,0,0,.25-1.687q.031-.687.031-1.937v-1q0-1.281-.031-1.937a6.27,6.27,0,0,0-.25-1.687,2.255,2.255,0,0,0-1.344-1.344,6.27,6.27,0,0,0-1.687-.25q-.688-.031-1.937-.031h-1q-1.25,0-1.937.031a6.58,6.58,0,0,0-1.687.25,2.255,2.255,0,0,0-1.344,1.344,6.27,6.27,0,0,0-.25,1.687q-.031.687-.031,1.937v1q0,1.25.031,1.937a6.58,6.58,0,0,0,.25,1.687,2.369,2.369,0,0,0,1.344,1.344,6.58,6.58,0,0,0,1.688.25q.687.031,1.937.031h1q1.281,0,1.937-.031a6.27,6.27,0,0,0,1.687-.25A2.369,2.369,0,0,0,118.469,12.125Z" transform="translate(-105)"/></g></svg>