<svg xmlns="http://www.w3.org/2000/svg" xmlns:xlink="http://www.w3.org/1999/xlink" viewBox="0 0 16 16"><defs><style>.a{clip-path:url(#b);}.b{fill:#faf9f2;}</style><clipPath id="b"><rect width="16" height="16"/></clipPath></defs><g id="a" class="a"><path class="b" d="M119,1a.961.961,0,0,1,.7.3.961.961,0,0,1,.3.7V14a1.014,1.014,0,0,1-1,1H107a1.014,1.014,0,0,1-1-1V2a.961.961,0,0,1,.3-.7A.961.961,0,0,1,107,1Zm-8.781,12h.031V6.313h-2.094V13Zm-1.031-7.594a1.173,1.173,0,0,0,.859-.359,1.17,1.17,0,0,0,0-1.687A1.173,1.173,0,0,0,109.187,3a1.122,1.122,0,0,0-.844.359,1.207,1.207,0,0,0,0,1.687A1.122,1.122,0,0,0,109.187,5.406ZM118,13V9.344a4.542,4.542,0,0,0-.437-2.281,2.243,2.243,0,0,0-2.031-.906,2.407,2.407,0,0,0-1.281.344,1.748,1.748,0,0,0-.687.719h-.031V6.313h-2V13h2.063V9.688a2.564,2.564,0,0,1,.219-1.187,1.1,1.1,0,0,1,1.031-.531.9.9,0,0,1,.938.594,3.311,3.311,0,0,1,.156,1.187V13Z" transform="translate(-105)"/></g></svg>