<svg xmlns="http://www.w3.org/2000/svg" xmlns:xlink="http://www.w3.org/1999/xlink" viewBox="0 0 16 16"><defs><style>.a{clip-path:url(#b);}.b{fill:#faf9f2;}</style><clipPath id="b"><rect width="16" height="16"/></clipPath></defs><g id="a" class="a"><path class="b" d="M118.344,4.75A7.213,7.213,0,0,0,120,3.031a7.049,7.049,0,0,1-1.875.531,3.256,3.256,0,0,0,1.437-1.812,6.676,6.676,0,0,1-2.094.781,3.711,3.711,0,0,0-1.078-.75,3.131,3.131,0,0,0-1.328-.281,3.169,3.169,0,0,0-1.625.437,3.211,3.211,0,0,0-1.187,1.2,3.253,3.253,0,0,0-.437,1.641,4.554,4.554,0,0,0,.063.75,9.083,9.083,0,0,1-3.766-1,9.048,9.048,0,0,1-2.984-2.437,3.183,3.183,0,0,0-.062,3.219A3.64,3.64,0,0,0,106.125,6.5a3.089,3.089,0,0,1-1.469-.437v.062a3.146,3.146,0,0,0,.75,2.062,3.306,3.306,0,0,0,1.875,1.156,4.165,4.165,0,0,1-.875.094q-.281,0-.594-.031a3.263,3.263,0,0,0,1.141,1.609,3.052,3.052,0,0,0,1.922.641,6.505,6.505,0,0,1-4.094,1.406q-.437,0-.781-.031a9.1,9.1,0,0,0,5.031,1.469,9.016,9.016,0,0,0,5.094-1.469A8.924,8.924,0,0,0,117.281,9.5a9.266,9.266,0,0,0,1.094-4.344A1.862,1.862,0,0,0,118.344,4.75Z" transform="translate(-104)"/></g></svg>