<svg xmlns="http://www.w3.org/2000/svg" xmlns:xlink="http://www.w3.org/1999/xlink" viewBox="0 0 260 260"><defs><style>.a{fill:url(#a);}.b{fill:url(#b);}.c{fill:url(#c);}.d{fill:url(#d);}</style><linearGradient id="a" x1="0.459" y1="0.459" x2="1.506" y2="1.506" gradientUnits="objectBoundingBox"><stop offset="0" stop-color="#3cc751"/><stop offset="1" stop-color="#36b24a"/></linearGradient><linearGradient id="b" x1="-0.541" y1="-0.541" x2="0.506" y2="0.506" xlink:href="#a"/><linearGradient id="c" x1="1" x2="0.053" y2="0.904" gradientUnits="objectBoundingBox"><stop offset="0" stop-color="#1c716c"/><stop offset="1" stop-color="#1c716c"/></linearGradient><linearGradient id="d" x1="-0.041" y1="-0.041" x2="1.006" y2="1.006" xlink:href="#a"/></defs><path class="a" d="M130,0A129.86,129.86,0,0,0,0,130,129.86,129.86,0,0,0,130,0Z"/><path class="b" d="M96,226A129.86,129.86,0,0,0,226,96,129.86,129.86,0,0,0,96,226Z" transform="translate(34 34)"/><path class="c" d="M96,226A129.86,129.86,0,0,0,226,96,129.86,129.86,0,0,0,96,226Z" transform="translate(34 -96)"/><path class="d" d="M0,96A129.86,129.86,0,0,0,130,226,129.86,129.86,0,0,0,0,96Z" transform="translate(0 34)"/></svg>