<svg xmlns="http://www.w3.org/2000/svg" viewBox="0 0 133.891 40"><defs><style>.a{fill:#38b335;}.b{fill:#fff;}</style></defs><g transform="translate(468 -1730)"><path class="a" d="M260.852,1.5a4.395,4.395,0,0,1,2.96.888,3,3,0,0,1,.836,2.194,2.728,2.728,0,0,1-.383,1.48,2.128,2.128,0,0,1-.975.853,3.025,3.025,0,0,1,1.6.784,2.835,2.835,0,0,1,.749,2.072,3.178,3.178,0,0,1-.906,2.351,4.4,4.4,0,0,1-3.065.993H257.3V1.5Zm-.906,4.719h.435a2.489,2.489,0,0,0,1.358-.331,1.233,1.233,0,0,0,.47-1.027,1.183,1.183,0,0,0-.453-.975,2.229,2.229,0,0,0-1.393-.3h-.418Zm0,4.806h.644a2.951,2.951,0,0,0,1.985-.47,1.283,1.283,0,0,0,.383-.975,1.249,1.249,0,0,0-.366-.94,3.006,3.006,0,0,0-1.916-.435h-.731Z" transform="translate(-680.621 1728.761)"/><path class="a" d="M314.663,10.921h-4.388l-.888,2.194H306.6L311.284,1.5h2.455l4.58,11.615h-2.786Zm-.731-2.055-1.428-3.9-1.445,3.9Z" transform="translate(-721.336 1728.761)"/><path class="a" d="M378.4,13.115V1.5h2.333l6.3,7.488V1.5h2.682V13.115h-2.333l-6.3-7.523v7.523Z" transform="translate(-780.632 1728.761)"/><path class="a" d="M460.833,11.511a5.4,5.4,0,0,1-2.56.627,6.221,6.221,0,0,1-4.562-1.689A6.081,6.081,0,0,1,451.9,6.043a6.059,6.059,0,0,1,1.811-4.371A6.165,6.165,0,0,1,458.047,0a6.914,6.914,0,0,1,2.786.644v3.1a3.681,3.681,0,0,0-2.717-1.236,3.258,3.258,0,0,0-2.368.906,3.72,3.72,0,0,0-1.1,2.682,3.5,3.5,0,0,0,1.01,2.56,3.526,3.526,0,0,0,2.508.975,3.663,3.663,0,0,0,2.664-1.2Z" transform="translate(-841.333 1730)"/><path class="a" d="M513.463,10.921h-4.388l-.888,2.194H505.4L510.084,1.5h2.455l4.58,11.615h-2.786Zm-.731-2.055-1.428-3.9-1.445,3.9Z" transform="translate(-885.517 1728.761)"/><path class="b" d="M601.174,1.5a6.12,6.12,0,0,1,4.58,1.6,5.545,5.545,0,0,1,1.672,4.162,5.553,5.553,0,0,1-1.585,4.11,6.26,6.26,0,0,1-4.58,1.741H597.5V1.5Zm-.993,9.351h.714a4.188,4.188,0,0,0,2.647-.784,3.628,3.628,0,0,0,1.132-2.8,3.438,3.438,0,0,0-.958-2.508,3.834,3.834,0,0,0-2.821-.993h-.714Z" transform="translate(-961.578 1728.761)"/><path class="b" d="M669.565,3.764h-3.883V6.01h3.692V8.274h-3.692v2.577h3.883v2.264H663V1.5h6.565Z" transform="translate(-1015.672 1728.761)"/><path class="b" d="M260.282,81.5V93.115H257.6V81.5Z" transform="translate(-680.869 1662.692)"/><path class="b" d="M284.9,93.115V81.5h2.333l6.3,7.488V81.5h2.682V93.115h-2.333l-6.3-7.523v7.523Z" transform="translate(-703.415 1662.692)"/><path class="b" d="M357.491,81.5l2.943,7.436,2.943-7.436h2.891l-4.928,11.615h-1.811L354.6,81.5Z" transform="translate(-760.977 1662.692)"/><path class="b" d="M432.865,83.764h-3.883V86.01h3.692v2.264h-3.692v2.577h3.883v2.264H426.3V81.5h6.565Z" transform="translate(-820.191 1662.692)"/><path class="b" d="M477.575,81.5a4.155,4.155,0,0,1,2.96,1.01,3.5,3.5,0,0,1,1.01,2.595,3.178,3.178,0,0,1-.905,2.368,3.655,3.655,0,0,1-1.62.888l3.57,4.754h-3.274l-3.135-4.58v4.58H473.5V81.5Zm-1.393,5.276h.609a2.205,2.205,0,0,0,1.6-.505,1.564,1.564,0,0,0,.435-1.132,1.409,1.409,0,0,0-.54-1.184,2.62,2.62,0,0,0-1.48-.366h-.627Z" transform="translate(-859.172 1662.692)"/><path class="b" d="M533.969,83.1a2.829,2.829,0,0,0-1.95-.836,1.452,1.452,0,0,0-1.132.4,1.039,1.039,0,0,0-.3.731.815.815,0,0,0,.261.644,4.667,4.667,0,0,0,1.463.662l.871.331a4.657,4.657,0,0,1,1.585.888,2.9,2.9,0,0,1,.853,2.159,4.163,4.163,0,0,1-1.027,2.873,4.5,4.5,0,0,1-3.291,1.184,4.922,4.922,0,0,1-2.3-.488,7.386,7.386,0,0,1-1.707-1.271l1.393-1.916a7.116,7.116,0,0,0,1.08.888,2.7,2.7,0,0,0,1.463.418,1.855,1.855,0,0,0,1.219-.4,1.2,1.2,0,0,0,.418-.94,1.024,1.024,0,0,0-.4-.836,5.671,5.671,0,0,0-1.358-.644l-.958-.331a3.91,3.91,0,0,1-1.62-.923,2.856,2.856,0,0,1-.7-2.02,3.57,3.57,0,0,1,1.01-2.612A3.74,3.74,0,0,1,531.723,80a5.614,5.614,0,0,1,3.448,1.149Z" transform="translate(-903.603 1663.931)"/><path class="b" d="M586.182,81.5V93.115H583.5V81.5Z" transform="translate(-950.016 1662.692)"/><path class="b" d="M688.8,93.115V81.5h2.333l6.3,7.488V81.5h2.682V93.115h-2.333l-6.3-7.523v7.523Z" transform="translate(-1036.979 1662.692)"/><path class="a" d="M260.07,163.1a2.829,2.829,0,0,0-1.95-.836,1.452,1.452,0,0,0-1.132.4,1.039,1.039,0,0,0-.3.731.815.815,0,0,0,.261.644,4.667,4.667,0,0,0,1.463.662l.871.331a4.658,4.658,0,0,1,1.585.888,2.9,2.9,0,0,1,.853,2.159,4.163,4.163,0,0,1-1.027,2.873,4.5,4.5,0,0,1-3.291,1.184,4.922,4.922,0,0,1-2.3-.488,7.388,7.388,0,0,1-1.707-1.271l1.393-1.916a7.114,7.114,0,0,0,1.08.888,2.7,2.7,0,0,0,1.463.418,1.855,1.855,0,0,0,1.219-.4,1.2,1.2,0,0,0,.418-.94,1.024,1.024,0,0,0-.4-.836,5.673,5.673,0,0,0-1.358-.644l-.958-.331a3.91,3.91,0,0,1-1.62-.923,2.856,2.856,0,0,1-.7-2.02,3.57,3.57,0,0,1,1.01-2.612A3.74,3.74,0,0,1,257.823,160a5.614,5.614,0,0,1,3.448,1.149Z" transform="translate(-677.4 1597.862)"/><path class="a" d="M317.031,161.689a6.18,6.18,0,0,1,0,8.742,6.2,6.2,0,0,1-4.493,1.707,6.392,6.392,0,0,1-4.528-1.707,5.931,5.931,0,0,1-1.811-4.319,6.485,6.485,0,0,1,1.794-4.406,6.863,6.863,0,0,1,9.038-.017Zm-7.053,1.776a3.558,3.558,0,0,0-1.027,2.63,3.466,3.466,0,0,0,1.062,2.612,3.416,3.416,0,0,0,2.49.958,3.517,3.517,0,0,0,2.577-.993,3.478,3.478,0,0,0,1.01-2.595,3.661,3.661,0,0,0-1.01-2.612,3.725,3.725,0,0,0-2.56-.993A3.565,3.565,0,0,0,309.979,163.465Z" transform="translate(-721.005 1597.862)"/><path class="a" d="M390.07,163.1a2.829,2.829,0,0,0-1.95-.836,1.453,1.453,0,0,0-1.132.4,1.039,1.039,0,0,0-.3.731.815.815,0,0,0,.261.644,4.666,4.666,0,0,0,1.463.662l.871.331a4.657,4.657,0,0,1,1.585.888,2.9,2.9,0,0,1,.853,2.159,4.163,4.163,0,0,1-1.027,2.873,4.5,4.5,0,0,1-3.291,1.184,4.922,4.922,0,0,1-2.3-.488,7.388,7.388,0,0,1-1.707-1.271l1.393-1.916a7.111,7.111,0,0,0,1.08.888,2.7,2.7,0,0,0,1.463.418,1.855,1.855,0,0,0,1.219-.4,1.2,1.2,0,0,0,.418-.94,1.024,1.024,0,0,0-.4-.836,5.674,5.674,0,0,0-1.358-.644l-.958-.331a3.91,3.91,0,0,1-1.619-.923,2.856,2.856,0,0,1-.7-2.02,3.57,3.57,0,0,1,1.01-2.612A3.74,3.74,0,0,1,387.823,160a5.614,5.614,0,0,1,3.448,1.149Z" transform="translate(-784.762 1597.862)"/><path class="a" d="M438.007,163.764v9.351h-2.682v-9.351H432.8V161.5h7.732v2.264Z" transform="translate(-825.559 1596.624)"/><path class="a" d="M488.865,163.764h-3.883v2.246h3.692v2.264h-3.692v2.577h3.883v2.264H482.3V161.5h6.565Z" transform="translate(-866.439 1596.624)"/><path class="a" d="M529.5,173.115V161.5h2.333l6.3,7.488V161.5h2.682v11.615h-2.333l-6.3-7.523v7.523Z" transform="translate(-905.42 1596.624)"/><path class="a" d="M609.082,161.5v11.615H606.4V161.5Z" transform="translate(-968.929 1596.624)"/><path class="a" d="M637.252,161.5a4.394,4.394,0,0,1,2.96.888,3,3,0,0,1,.836,2.194,2.729,2.729,0,0,1-.383,1.48,2.128,2.128,0,0,1-.975.853,3.025,3.025,0,0,1,1.6.784,2.835,2.835,0,0,1,.749,2.072,3.178,3.178,0,0,1-.906,2.351,4.4,4.4,0,0,1-3.065.993H633.7V161.5Zm-.906,4.719h.435a2.489,2.489,0,0,0,1.358-.331,1.233,1.233,0,0,0,.47-1.027,1.183,1.183,0,0,0-.453-.975,2.23,2.23,0,0,0-1.393-.3h-.418Zm0,4.806h.644a2.951,2.951,0,0,0,1.985-.47,1.283,1.283,0,0,0,.383-.975,1.248,1.248,0,0,0-.366-.94,3.006,3.006,0,0,0-1.915-.435h-.731v2.821Z" transform="translate(-991.475 1596.624)"/><path class="a" d="M692.782,161.5v9.351h3.6v2.264H690.1V161.5Z" transform="translate(-1038.053 1596.624)"/><path class="a" d="M738.465,163.764h-3.883v2.246h3.692v2.264h-3.692v2.577h3.883v2.264H731.9V161.5h6.565Z" transform="translate(-1072.574 1596.624)"/><g transform="translate(-468 1730.923)"><path class="b" d="M19.208,43.258A19.181,19.181,0,0,0,2.142,24.868,19.184,19.184,0,0,0,19.19,5.8,19.182,19.182,0,0,0,0,24.99H.035A19.157,19.157,0,0,0,19.19,43.937v.087a19.182,19.182,0,0,0,19.19-19.19A19.177,19.177,0,0,0,19.208,43.258Z" transform="translate(0 -5.713)"/><path class="a" d="M129.3,5.3a19.1,19.1,0,0,0-19.1,19.1A19.089,19.089,0,0,0,129.3,5.3Z" transform="translate(-91.01 -5.3)"/></g><g transform="translate(-362 1743.659)"><path class="b" d="M6.091,17.678A6.083,6.083,0,0,0,.679,11.847,6.083,6.083,0,0,0,6.085,5.8,6.083,6.083,0,0,0,0,11.885H.011a6.075,6.075,0,0,0,6.074,6.008v.028a6.083,6.083,0,0,0,6.085-6.085A6.081,6.081,0,0,0,6.091,17.678Z" transform="translate(0 -5.772)"/><path class="a" d="M116.258,5.3a6.057,6.057,0,0,0-6.058,6.058A6.053,6.053,0,0,0,116.258,5.3Z" transform="translate(-104.115 -5.3)"/></g></g></svg>