<svg xmlns="http://www.w3.org/2000/svg" xmlns:xlink="http://www.w3.org/1999/xlink" viewBox="0 0 24 24"><defs><style>.a{fill:#faf9f2;}.b{fill:url(#a);}</style><linearGradient id="a" x1="1" x2="0.053" y2="0.904" gradientUnits="objectBoundingBox"><stop offset="0" stop-color="#1c716c"/><stop offset="1" stop-color="#1c716c"/></linearGradient></defs><g transform="translate(51 -150.575)"><g transform="translate(-51 150.575)"><path class="a" d="M12,0A11.987,11.987,0,0,0,0,12,11.987,11.987,0,0,0,12,0Z"/><path class="a" d="M96,108a11.987,11.987,0,0,0,12-12A11.987,11.987,0,0,0,96,108Z" transform="translate(-84 -84)"/><path class="b" d="M96,108a11.987,11.987,0,0,0,12-12A11.987,11.987,0,0,0,96,108Z" transform="translate(-84 -96)"/><path class="a" d="M0,96a11.987,11.987,0,0,0,12,12A11.987,11.987,0,0,0,0,96Z" transform="translate(0 -84)"/></g></g></svg>