<svg xmlns="http://www.w3.org/2000/svg" xmlns:xlink="http://www.w3.org/1999/xlink" viewBox="0 0 130.924 40"><defs><style>.a{fill:#36b24a;}.b{fill:#1c716c;}.c{fill:url(#a);}.d{fill:url(#b);}.e{fill:url(#c);}.f{fill:url(#d);}</style><linearGradient id="a" x1="0.459" y1="0.459" x2="1.506" y2="1.506" gradientUnits="objectBoundingBox"><stop offset="0" stop-color="#3cc751"/><stop offset="1" stop-color="#36b24a"/></linearGradient><linearGradient id="b" x1="-0.541" y1="-0.541" x2="0.506" y2="0.506" xlink:href="#a"/><linearGradient id="c" x1="1" x2="0.053" y2="0.904" gradientUnits="objectBoundingBox"><stop offset="0" stop-color="#1c716c"/><stop offset="1" stop-color="#1c716c"/></linearGradient><linearGradient id="d" x1="-0.041" y1="-0.041" x2="1.006" y2="1.006" xlink:href="#a"/></defs><g transform="translate(-24 -24)"><path class="a" d="M250.583,4.4a3.989,3.989,0,0,1,2.628.78,2.693,2.693,0,0,1,.739,1.951,2.347,2.347,0,0,1-.349,1.314,1.892,1.892,0,0,1-.862.76,2.721,2.721,0,0,1,1.417.7,2.5,2.5,0,0,1,.657,1.848,2.883,2.883,0,0,1-.8,2.094,3.936,3.936,0,0,1-2.731.883H247.4V4.4Zm-.8,4.189h.39a2.238,2.238,0,0,0,1.211-.287,1.1,1.1,0,0,0,.411-.924,1.05,1.05,0,0,0-.411-.862,1.955,1.955,0,0,0-1.232-.267h-.37Zm0,4.292h.575a2.7,2.7,0,0,0,1.766-.411,1.241,1.241,0,0,0,.021-1.7,2.659,2.659,0,0,0-1.7-.39h-.657Z" transform="translate(-172.599 20.503)"/><path class="a" d="M292.266,12.778h-3.9l-.78,1.951H285.1L289.268,4.4h2.177l4.086,10.329h-2.485Zm-.637-1.828-1.273-3.47-1.294,3.47Z" transform="translate(-202.558 20.503)"/><path class="a" d="M339.7,14.729V4.4h2.074l5.606,6.674V4.4h2.382V14.729h-2.074l-5.606-6.694v6.694Z" transform="translate(-245.946 20.503)"/><path class="a" d="M403.467,13.526a4.743,4.743,0,0,1-2.279.554,5.612,5.612,0,0,1-4.066-1.5A5.444,5.444,0,0,1,395.5,8.659a5.3,5.3,0,0,1,1.622-3.881,5.486,5.486,0,0,1,3.86-1.478,6.238,6.238,0,0,1,2.485.575V6.626a3.3,3.3,0,0,0-2.423-1.109,3,3,0,0,0-2.115.8,3.3,3.3,0,0,0-.986,2.382,3.092,3.092,0,0,0,.9,2.279,3.137,3.137,0,0,0,2.238.862,3.21,3.21,0,0,0,2.361-1.068v2.752Z" transform="translate(-290.288 21.378)"/><path class="a" d="M443.466,12.778h-3.9l-.78,1.951H436.3L440.468,4.4h2.177l4.086,10.329h-2.485Zm-.637-1.828-1.273-3.47-1.294,3.47Z" transform="translate(-322.711 20.503)"/><path class="b" d="M509.785,4.4a5.526,5.526,0,0,1,4.086,1.417,4.891,4.891,0,0,1,1.478,3.7,4.892,4.892,0,0,1-1.417,3.655,5.56,5.56,0,0,1-4.086,1.54H506.5V4.4Zm-.883,8.316h.637a3.718,3.718,0,0,0,2.361-.7,3.271,3.271,0,0,0,1.006-2.505,3.073,3.073,0,0,0-.862-2.238,3.4,3.4,0,0,0-2.505-.883H508.9Z" transform="translate(-378.496 20.503)"/><path class="b" d="M562.152,6.412H558.7V8.4h3.285v2.012H558.7v2.3h3.45v2.012H556.3V4.4h5.852Z" transform="translate(-418.07 20.503)"/><path class="b" d="M250.182,73.8V84.129H247.8V73.8Z" transform="translate(-172.917 -34.646)"/><path class="b" d="M268.7,84.149V73.8h2.074l5.606,6.674V73.8h2.382V84.129h-2.074l-5.606-6.694v6.694H268.7Z" transform="translate(-189.525 -34.646)"/><path class="b" d="M324.187,73.8l2.628,6.612,2.628-6.612h2.567l-4.394,10.329h-1.622L321.6,73.8Z" transform="translate(-231.563 -34.646)"/><path class="b" d="M382.052,75.812H378.6V77.8h3.285v2.012H378.6v2.3h3.45v2.012H376.2V73.8h5.852Z" transform="translate(-274.952 -34.646)"/><path class="b" d="M415.914,73.8a3.647,3.647,0,0,1,2.628.9,3.121,3.121,0,0,1,.9,2.3,2.874,2.874,0,0,1-.8,2.115,2.964,2.964,0,0,1-1.437.78l3.183,4.23h-2.916l-2.793-4.086v4.086H412.3V73.8Zm-1.253,4.7h.534a1.9,1.9,0,0,0,1.417-.452,1.4,1.4,0,0,0,.39-1.006A1.255,1.255,0,0,0,416.53,76a2.4,2.4,0,0,0-1.314-.329h-.554Z" transform="translate(-303.639 -34.646)"/><path class="b" d="M458.975,75.452a2.507,2.507,0,0,0-1.745-.739,1.3,1.3,0,0,0-1.006.349.914.914,0,0,0-.267.657.773.773,0,0,0,.226.575,4.265,4.265,0,0,0,1.294.6l.78.287a4.4,4.4,0,0,1,1.417.78,2.617,2.617,0,0,1,.76,1.93,3.712,3.712,0,0,1-.924,2.567,3.985,3.985,0,0,1-2.936,1.047,4.4,4.4,0,0,1-2.053-.431A6.5,6.5,0,0,1,453,81.94l1.232-1.7a5.549,5.549,0,0,0,.965.78,2.424,2.424,0,0,0,1.294.37,1.7,1.7,0,0,0,1.088-.349,1.054,1.054,0,0,0,.37-.842.916.916,0,0,0-.349-.739,5.4,5.4,0,0,0-1.211-.575l-.862-.287a3.4,3.4,0,0,1-1.437-.821,2.574,2.574,0,0,1-.616-1.807,3.173,3.173,0,0,1,.9-2.32,3.347,3.347,0,0,1,2.567-.945A4.912,4.912,0,0,1,460,73.727Z" transform="translate(-335.982 -33.772)"/><path class="b" d="M498.382,73.8V84.129H496V73.8Z" transform="translate(-370.152 -34.646)"/><path class="b" d="M524.251,59.577a5.478,5.478,0,0,1,0,7.782,5.549,5.549,0,0,1-4,1.52,5.68,5.68,0,0,1-4.025-1.52,5.292,5.292,0,0,1-1.622-3.84,5.718,5.718,0,0,1,1.6-3.922,6.121,6.121,0,0,1,8.049-.021Zm-6.283,1.581a3.151,3.151,0,0,0-.924,2.341,3.087,3.087,0,0,0,3.162,3.183,3.164,3.164,0,0,0,2.3-.883,3.051,3.051,0,0,0,.9-2.3,3.2,3.2,0,0,0-.9-2.32,3.338,3.338,0,0,0-2.279-.883A3.1,3.1,0,0,0,517.968,61.158Zm4.6-5.729-2.546,1.992-1.006-.821,2.074-2.3Z" transform="translate(-384.933 -19.15)"/><path class="b" d="M576.2,84.149V73.8h2.074l5.606,6.674V73.8h2.382V84.129h-2.074l-5.606-6.694v6.694H576.2Z" transform="translate(-433.884 -34.646)"/><path class="a" d="M250.375,144.952a2.507,2.507,0,0,0-1.745-.739,1.3,1.3,0,0,0-1.006.349.913.913,0,0,0-.267.657.773.773,0,0,0,.226.575,4.264,4.264,0,0,0,1.294.6l.78.287a4.4,4.4,0,0,1,1.417.78,2.617,2.617,0,0,1,.76,1.93,3.713,3.713,0,0,1-.924,2.567A3.985,3.985,0,0,1,247.973,153a4.4,4.4,0,0,1-2.053-.431,6.5,6.5,0,0,1-1.52-1.129l1.232-1.7a5.547,5.547,0,0,0,.965.78,2.424,2.424,0,0,0,1.294.37,1.705,1.705,0,0,0,1.088-.349,1.054,1.054,0,0,0,.37-.842.916.916,0,0,0-.349-.739,5.4,5.4,0,0,0-1.211-.575l-.862-.287a3.4,3.4,0,0,1-1.437-.821,2.575,2.575,0,0,1-.616-1.807,3.173,3.173,0,0,1,.9-2.32,3.347,3.347,0,0,1,2.567-.945,4.912,4.912,0,0,1,3.06,1.027Z" transform="translate(-170.215 -89.001)"/><path class="a" d="M294.351,143.7a5.478,5.478,0,0,1,0,7.782,5.549,5.549,0,0,1-4,1.52,5.681,5.681,0,0,1-4.025-1.52,5.292,5.292,0,0,1-1.622-3.84,5.718,5.718,0,0,1,1.6-3.922,5.559,5.559,0,0,1,4.045-1.52A5.42,5.42,0,0,1,294.351,143.7Zm-6.263,1.581a3.151,3.151,0,0,0-.924,2.341,3.088,3.088,0,0,0,3.162,3.183,3.164,3.164,0,0,0,2.3-.883,3.051,3.051,0,0,0,.9-2.3,3.2,3.2,0,0,0-.9-2.32,3.338,3.338,0,0,0-2.279-.883A3.065,3.065,0,0,0,288.088,145.278Z" transform="translate(-202.24 -88.999)"/><path class="a" d="M349.275,144.952a2.507,2.507,0,0,0-1.745-.739,1.3,1.3,0,0,0-1.006.349.913.913,0,0,0-.267.657.773.773,0,0,0,.226.575,4.265,4.265,0,0,0,1.294.6l.78.287a4.4,4.4,0,0,1,1.417.78,2.617,2.617,0,0,1,.76,1.93,3.712,3.712,0,0,1-.924,2.567A3.985,3.985,0,0,1,346.873,153a4.4,4.4,0,0,1-2.053-.431,6.505,6.505,0,0,1-1.52-1.129l1.232-1.7a5.545,5.545,0,0,0,.965.78,2.424,2.424,0,0,0,1.294.37,1.7,1.7,0,0,0,1.088-.349,1.054,1.054,0,0,0,.37-.842.916.916,0,0,0-.349-.739,5.4,5.4,0,0,0-1.211-.575l-.862-.287a3.4,3.4,0,0,1-1.437-.821,2.575,2.575,0,0,1-.616-1.807,3.173,3.173,0,0,1,.9-2.32,3.347,3.347,0,0,1,2.567-.945,4.912,4.912,0,0,1,3.06,1.027Z" transform="translate(-248.807 -89.001)"/><path class="a" d="M385.82,145.312v8.316h-2.382v-8.316H381.2V143.3h6.879v2.012Z" transform="translate(-278.925 -89.875)"/><path class="a" d="M424.652,145.312H421.2V147.3h3.285v2.012H421.2v2.3h3.45v2.012H418.8V143.3h5.852Z" transform="translate(-308.804 -89.875)"/><path class="a" d="M454.9,153.629V143.3h2.074l5.606,6.674V143.3h2.382v10.329h-2.074l-5.606-6.694v6.694Z" transform="translate(-337.491 -89.875)"/><path class="a" d="M515.682,143.3v10.329H513.3V143.3Z" transform="translate(-383.9 -89.875)"/><path class="a" d="M537.383,143.3a3.989,3.989,0,0,1,2.628.78,2.693,2.693,0,0,1,.739,1.951,2.347,2.347,0,0,1-.349,1.314,1.893,1.893,0,0,1-.863.76,2.722,2.722,0,0,1,1.417.7,2.5,2.5,0,0,1,.657,1.848,2.883,2.883,0,0,1-.8,2.094,3.937,3.937,0,0,1-2.731.883H534.2V143.3Zm-.821,4.189h.39a2.239,2.239,0,0,0,1.212-.287,1.1,1.1,0,0,0,.411-.924,1.05,1.05,0,0,0-.411-.862,1.956,1.956,0,0,0-1.232-.267h-.37Zm0,4.292h.575a2.7,2.7,0,0,0,1.766-.411,1.241,1.241,0,0,0,.021-1.7,2.66,2.66,0,0,0-1.7-.39h-.657Z" transform="translate(-400.508 -89.875)"/><path class="a" d="M579.582,143.3v8.316h3.2v2.012H577.2V143.3Z" transform="translate(-434.678 -89.875)"/><path class="a" d="M614.952,145.312H611.5V147.3h3.285v2.012H611.5v2.3h3.45v2.012H609.1V143.3h5.852Z" transform="translate(-460.028 -89.875)"/><g transform="translate(24 24)"><path class="c" d="M19.713,0A19.691,19.691,0,0,0,0,19.713,19.691,19.691,0,0,0,19.713,0Z"/><path class="d" d="M96,115.713A19.691,19.691,0,0,0,115.713,96,19.691,19.691,0,0,0,96,115.713Z" transform="translate(-76.287 -76.287)"/><path class="e" d="M96,115.713A19.691,19.691,0,0,0,115.713,96,19.691,19.691,0,0,0,96,115.713Z" transform="translate(-76.287 -96)"/><path class="f" d="M0,96a19.691,19.691,0,0,0,19.713,19.713A19.691,19.691,0,0,0,0,96Z" transform="translate(0 -76.287)"/></g></g></svg>