<svg xmlns="http://www.w3.org/2000/svg" viewBox="0 0 112 57.29">
  <defs>
    <style>
      .cls-1 {
        fill: #fff;
      }

      .cls-2 {
        fill: #39bf6f;
      }

      .cls-3 {
        fill: #fcfdfc;
      }
    </style>
  </defs>
  <g id="Group_26" data-name="Group 26" transform="translate(-171.5 -211.3)">
    <g id="Group_21" data-name="Group 21" transform="translate(171.5 220.464)">
      <path id="Path_50" data-name="Path 50" class="cls-1" d="M175.579,225.8a5.579,5.579,0,0,1,3.326.882,3.5,3.5,0,0,1,1.29,2.987,3.231,3.231,0,0,1-1.425,2.851,3.611,3.611,0,0,1,2.783,3.665,3.857,3.857,0,0,1-1.493,3.122,5.4,5.4,0,0,1-3.462.95H173V225.8Zm-.95,6.381h1.222c.815,0,2.851-.2,2.851-2.444,0-2.376-2.376-2.444-2.783-2.444h-1.29Zm0,6.584h1.833a3.868,3.868,0,0,0,2.512-.611,2.511,2.511,0,0,0,.95-1.968,2.292,2.292,0,0,0-1.222-2.1,5.47,5.47,0,0,0-2.444-.407h-1.629v5.091Z" transform="translate(-171.982 -225.121)"/>
      <path id="Path_51" data-name="Path 51" class="cls-1" d="M196.207,235.932H190.03L188.265,240H186.5l6.652-15.2,6.516,15.2H197.9Zm-.611-1.561-2.444-5.77-2.444,5.77Z" transform="translate(-176.318 -224.8)"/>
      <path id="Path_52" data-name="Path 52" class="cls-1" d="M207.9,240.069V225l11.268,11.811v-11.2H220.8v15.137l-11.268-11.811v11.2H207.9Z" transform="translate(-183.192 -224.864)"/>
      <path id="Path_53" data-name="Path 53" class="cls-1" d="M242.211,228.862a6.815,6.815,0,0,0-1.9-1.358,6.172,6.172,0,0,0-2.512-.543A5.884,5.884,0,0,0,231.961,233a5.789,5.789,0,0,0,5.838,5.905,6.18,6.18,0,0,0,2.715-.679,6.835,6.835,0,0,0,1.7-1.222v1.968a7.542,7.542,0,0,1-4.344,1.426,7.5,7.5,0,1,1,.136-15,7.056,7.056,0,0,1,4.276,1.425v2.036Z" transform="translate(-190.419 -224.993)"/>
      <path id="Path_54" data-name="Path 54" class="cls-1" d="M258.407,235.932H252.23L250.465,240H248.7l6.652-15.2,6.516,15.2H260.1Zm-.611-1.561-2.444-5.77-2.444,5.77Z" transform="translate(-196.298 -224.8)"/>
      <path id="Path_55" data-name="Path 55" class="cls-2" d="M171.568,254.5h1.493a3.89,3.89,0,0,1,2.647.815,3.712,3.712,0,0,1-.068,5.566,3.747,3.747,0,0,1-2.647.815H171.5v-7.2Zm.815,6.516h.679a3.188,3.188,0,0,0,2.1-.679,2.735,2.735,0,0,0,.95-2.172,2.766,2.766,0,0,0-3.055-2.851h-.679Z" transform="translate(-171.5 -234.34)"/>
      <path id="Path_56" data-name="Path 56" class="cls-2" d="M185.033,255.215h-2.987v2.172H184.9v.747h-2.851v2.783h2.987v.747H181.3V254.4h3.733Z" transform="translate(-174.648 -234.308)"/>
      <path id="Path_57" data-name="Path 57" class="cls-2" d="M193.2,254.5v7.263h-1.7V254.5h1.7Z" transform="translate(-177.924 -234.34)"/>
      <path id="Path_58" data-name="Path 58" class="cls-2" d="M195.9,261.763V254.5h1.425l3.937,4.684V254.5h1.7v7.263h-1.425l-3.937-4.684v4.684Z" transform="translate(-179.338 -234.34)"/>
      <path id="Path_59" data-name="Path 59" class="cls-2" d="M208.965,254.5l1.833,4.616,1.833-4.616h1.833l-3.055,7.263h-1.154L207.2,254.5h1.765Z" transform="translate(-182.967 -234.34)"/>
      <path id="Path_60" data-name="Path 60" class="cls-2" d="M222.673,255.958h-2.444v1.425h2.308v1.426h-2.308v1.629h2.444v1.425H218.6V254.6h4.073Z" transform="translate(-186.629 -234.372)"/>
      <path id="Path_61" data-name="Path 61" class="cls-2" d="M228.679,254.5a2.437,2.437,0,0,1,1.833.611,2.285,2.285,0,0,1,.611,1.629,1.958,1.958,0,0,1-.543,1.493,1.868,1.868,0,0,1-1.018.543l2.24,2.987h-2.036l-1.968-2.851v2.851h-1.7V254.5h2.579Zm-.882,3.326h.407a1.247,1.247,0,0,0,1.018-.339.9.9,0,0,0,.272-.679.968.968,0,0,0-.339-.747,1.617,1.617,0,0,0-.95-.2H227.8Z" transform="translate(-189.038 -234.34)"/>
      <path id="Path_62" data-name="Path 62" class="cls-2" d="M238.941,256.136a1.915,1.915,0,0,0-1.222-.543c-.2,0-.543,0-.679.272a.616.616,0,0,0-.2.475.728.728,0,0,0,.136.407,5.771,5.771,0,0,0,.882.407l.543.2a3.721,3.721,0,0,1,1.018.543,1.945,1.945,0,0,1,.543,1.358,2.618,2.618,0,0,1-.611,1.765,2.728,2.728,0,0,1-2.036.747,3.338,3.338,0,0,1-1.425-.272,6.484,6.484,0,0,1-1.086-.814l.882-1.222a4.76,4.76,0,0,0,.679.543,1.364,1.364,0,0,0,.882.271,1.131,1.131,0,0,0,.747-.271.861.861,0,0,0,.272-.611.551.551,0,0,0-.272-.543,4.565,4.565,0,0,0-.815-.407l-.611-.2a2.953,2.953,0,0,1-1.018-.543,1.636,1.636,0,0,1-.407-1.29,2.432,2.432,0,0,1,.611-1.629,2.248,2.248,0,0,1,1.765-.679,3.419,3.419,0,0,1,2.172.747Z" transform="translate(-191.833 -234.212)"/>
      <path id="Path_63" data-name="Path 63" class="cls-2" d="M245.4,254.5v7.263h-1.7V254.5h1.7Z" transform="translate(-194.692 -234.34)"/>
      <path id="Path_64" data-name="Path 64" class="cls-2" d="M254.388,254.065a3.845,3.845,0,0,1,1.154,2.715,3.65,3.65,0,0,1-1.154,2.715,3.727,3.727,0,0,1-2.783,1.086,3.97,3.97,0,0,1-2.851-1.086,3.845,3.845,0,0,1-1.154-2.715,4.1,4.1,0,0,1,1.086-2.715,3.867,3.867,0,0,1,2.851-1.086A4.461,4.461,0,0,1,254.388,254.065Zm-4.412,1.154a2.381,2.381,0,0,0,.068,3.258,2.088,2.088,0,0,0,1.561.611,2.25,2.25,0,0,0,1.629-.611,2.285,2.285,0,0,0,.611-1.629,2.25,2.25,0,0,0-.611-1.629,2.375,2.375,0,0,0-1.629-.611A1.888,1.888,0,0,0,249.976,255.219Zm3.19-4.073-1.765,1.425-.679-.543,1.425-1.629Z" transform="translate(-195.944 -233.023)"/>
      <path id="Path_65" data-name="Path 65" class="cls-2" d="M260.6,261.763V254.5h1.425l3.937,4.684V254.5h1.7v7.263h-1.425l-3.937-4.684v4.684Z" transform="translate(-200.12 -234.34)"/>
      <path id="Path_66" data-name="Path 66" class="cls-1" d="M179.713,277.3a3.627,3.627,0,0,0-2.444-1.018,1.92,1.92,0,0,0-1.425.475,1.29,1.29,0,0,0-.339.882,1.124,1.124,0,0,0,.339.815,4.659,4.659,0,0,0,1.833.815l1.086.407a6.274,6.274,0,0,1,1.968,1.086,3.781,3.781,0,0,1,1.086,2.715,5.371,5.371,0,0,1-1.29,3.6,5.543,5.543,0,0,1-4.073,1.493,5.839,5.839,0,0,1-2.851-.611,8.087,8.087,0,0,1-2.1-1.561l1.765-2.376a6.814,6.814,0,0,0,1.358,1.086,3.414,3.414,0,0,0,1.833.543,2.279,2.279,0,0,0,1.493-.475,1.56,1.56,0,0,0,.543-1.154,1.226,1.226,0,0,0-.475-1.018,6.46,6.46,0,0,0-1.7-.815l-1.222-.407a5.608,5.608,0,0,1-2.036-1.154,3.668,3.668,0,0,1-.882-2.512,4.4,4.4,0,0,1,1.29-3.258,4.8,4.8,0,0,1,3.6-1.358,7.148,7.148,0,0,1,4.276,1.425Z" transform="translate(-171.5 -240.443)"/>
      <path id="Path_67" data-name="Path 67" class="cls-1" d="M201.708,275.534a7.677,7.677,0,0,1,2.24,5.5,7.49,7.49,0,0,1-2.24,5.43,7.854,7.854,0,0,1-5.634,2.1,8.041,8.041,0,0,1-5.634-2.1,7.474,7.474,0,0,1-2.24-5.362,8.1,8.1,0,0,1,2.24-5.5,7.868,7.868,0,0,1,5.7-2.1A7.269,7.269,0,0,1,201.708,275.534Zm-8.756,2.172a4.55,4.55,0,0,0-1.29,3.258,4.116,4.116,0,0,0,1.358,3.258,4.688,4.688,0,0,0,6.313,0,4.435,4.435,0,0,0,1.29-3.258,4.523,4.523,0,0,0-1.29-3.258,4.838,4.838,0,0,0-3.19-1.222A4.519,4.519,0,0,0,192.952,277.706Z" transform="translate(-176.864 -240.441)"/>
      <path id="Path_68" data-name="Path 68" class="cls-1" d="M221.313,277.3a3.627,3.627,0,0,0-2.444-1.018,1.92,1.92,0,0,0-1.425.475,1.29,1.29,0,0,0-.339.882,1.124,1.124,0,0,0,.339.815,4.658,4.658,0,0,0,1.833.815l1.086.407a6.275,6.275,0,0,1,1.969,1.086,3.781,3.781,0,0,1,1.086,2.715,5.371,5.371,0,0,1-1.29,3.6,5.543,5.543,0,0,1-4.073,1.493,5.84,5.84,0,0,1-2.851-.611,8.086,8.086,0,0,1-2.1-1.561l1.765-2.376a6.813,6.813,0,0,0,1.358,1.086,3.414,3.414,0,0,0,1.833.543,2.279,2.279,0,0,0,1.493-.475,1.56,1.56,0,0,0,.543-1.154,1.226,1.226,0,0,0-.475-1.018,6.46,6.46,0,0,0-1.7-.815l-1.222-.407a5.608,5.608,0,0,1-2.036-1.154,3.668,3.668,0,0,1-.882-2.512,4.4,4.4,0,0,1,1.29-3.258,4.8,4.8,0,0,1,3.6-1.358,7.148,7.148,0,0,1,4.276,1.425Z" transform="translate(-184.862 -240.443)"/>
      <path id="Path_69" data-name="Path 69" class="cls-1" d="M235.248,276.651v11.675h-3.326V276.651H228.8V273.8h9.639v2.851Z" transform="translate(-189.905 -240.539)"/>
      <path id="Path_70" data-name="Path 70" class="cls-1" d="M252.713,276.683h-4.819v2.783h4.616v2.851h-4.616v3.19h4.819v2.851H244.5V273.9h8.213v2.783Z" transform="translate(-194.948 -240.572)"/>
      <path id="Path_71" data-name="Path 71" class="cls-1" d="M259.7,288.358V273.9h2.919l7.874,9.367V273.9h3.326v14.458H270.9l-7.874-9.367v9.367Z" transform="translate(-199.831 -240.571)"/>
      <path id="Path_72" data-name="Path 72" class="cls-1" d="M287.626,273.8v14.458H284.3V273.8Z" transform="translate(-207.733 -240.539)"/>
      <path id="Path_73" data-name="Path 73" class="cls-1" d="M297.48,273.768a5.528,5.528,0,0,1,3.666,1.086,3.6,3.6,0,0,1,1.018,2.715,3.225,3.225,0,0,1-.475,1.833,2.941,2.941,0,0,1-1.222,1.086,4.114,4.114,0,0,1,1.968.95,3.513,3.513,0,0,1,.95,2.579,3.778,3.778,0,0,1-1.154,2.919,5.449,5.449,0,0,1-3.8,1.222H293V273.7h4.48Zm-1.154,5.905h.543a3.134,3.134,0,0,0,1.7-.407,1.67,1.67,0,0,0,.611-1.29,1.491,1.491,0,0,0-.543-1.222,3.064,3.064,0,0,0-1.765-.339h-.543Zm0,5.973h.815a3.331,3.331,0,0,0,2.444-.611,1.684,1.684,0,0,0,.475-1.222,1.532,1.532,0,0,0-.475-1.154,3.737,3.737,0,0,0-2.376-.543h-.882Z" transform="translate(-210.527 -240.507)"/>
      <path id="Path_74" data-name="Path 74" class="cls-1" d="M314.394,273.8v11.675h4.48v2.851H311V273.868h3.394Z" transform="translate(-216.309 -240.539)"/>
      <path id="Path_75" data-name="Path 75" class="cls-1" d="M332.613,276.683h-4.819v2.783h4.616v2.851h-4.616v3.19h4.819v2.851H324.4V273.9h8.213Z" transform="translate(-220.613 -240.572)"/>
    </g>
    <g id="Group_22" data-name="Group 22" transform="translate(247.117 211.3)">
      <path id="Path_76" data-name="Path 76" class="cls-3" d="M296.783,247.719c-2.512,2.919-2.783,4.684-2.783,5.634.475.339,1.018.679,1.493.95a7.106,7.106,0,0,1,1.29-5.362,17.348,17.348,0,0,1,6.177-6.041S300.313,243.443,296.783,247.719Z" transform="translate(-286.465 -221.45)"/>
      <path id="Path_77" data-name="Path 77" class="cls-3" d="M300.413,211.3a17.467,17.467,0,0,0-13.236,28.916c-1.425-4.684-.815-11.4,6.72-13.983,11.064-3.8,10.046-8.213,10.046-8.213s4.752,6.788,4.073,15c-.475,5.905-4.616,12.286-10.25,13.1a17.517,17.517,0,1,0,2.647-34.822Z" transform="translate(-282.9 -211.3)"/>
    </g>
  </g>
</svg>
